<svg xmlns="http://www.w3.org/2000/svg" width="794" height="485" fill="none" viewBox="0 0 794 485"><g clip-path="url(#clip0_8_6854)"><path fill="#EAD5B9" d="M429.79 146.64C399.157 142.302 370.112 130.323 345.053 112.165C307.622 85.0409 229.304 38.9015 154.593 61.8892C51.5435 93.5904 51.0769 185.314 77.927 235.136C104.764 284.957 295.124 430.853 541.907 407.639C762.736 386.87 805.779 149.074 688 106.049C585.846 68.7238 551 163.815 429.803 146.64H429.79Z"/><path fill="#EAD5B9" d="M174.305 329.231C174.305 329.231 158.893 322.182 152.878 334.426C146.862 346.67 168.869 359.229 180.838 355.623C192.819 352.017 190.712 333.972 174.305 329.231Z"/><path fill="#EAD5B9" d="M417.632 108.47C417.632 108.47 400.859 103.212 396.256 116.591C391.653 129.97 415.917 140.045 427.772 134.774C439.627 129.516 435.125 111.219 417.632 108.457V108.47Z"/><path fill="#DBBF9F" d="M394.755 485C520.435 485 622.319 474.928 622.319 462.504C622.319 450.08 520.435 440.008 394.755 440.008C269.076 440.008 167.192 450.08 167.192 462.504C167.192 474.928 269.076 485 394.755 485Z"/><path fill="#F4AD4B" d="M522.321 429.1C519.635 431.786 516.722 434.346 513.556 436.767C497.741 448.91 475.873 457.611 446.828 460.524C298.302 475.391 249.217 405.722 237.224 298.538C231.877 250.772 244.387 219.247 259.899 198.983C261.526 196.865 263.178 194.872 264.843 192.994C265.789 191.934 266.748 190.9 267.744 189.892C287.771 169.438 316.689 159.804 345.103 164.483C367.438 168.152 387.73 180.081 404.189 203.926C430.522 242.046 405.614 274.819 480.854 277.013C538.451 278.69 574.949 376.606 522.309 429.113L522.321 429.1Z"/><path fill="#D57635" d="M294.934 197.647C294.934 197.647 277.366 235.224 297.646 304.2C317.925 373.176 344.788 367.741 362.142 367.741C392.46 367.741 453.853 339.192 465.847 316.696C477.84 294.2 455.202 292.864 412.815 289.535C370.415 286.206 338.785 182.767 294.934 197.647Z"/><path fill="#D57635" d="M333.021 396.68C332.693 396.68 332.353 396.554 332.101 396.29C331.621 395.785 331.634 394.991 332.151 394.499C347.31 380.086 361.788 371.599 371.272 367.009C381.576 362.029 388.222 360.478 388.5 360.415C389.181 360.263 389.862 360.679 390.013 361.36C390.164 362.041 389.748 362.722 389.067 362.873C388.765 362.949 362.369 369.254 333.904 396.327C333.665 396.554 333.349 396.68 333.034 396.68H333.021Z"/><path fill="#D57635" d="M338.028 379.796C337.625 379.796 337.221 379.607 336.981 379.241C336.59 378.661 336.742 377.879 337.322 377.488C337.915 377.085 352.027 367.728 373.87 365.345C374.564 365.269 375.182 365.774 375.258 366.467C375.333 367.161 374.829 367.779 374.135 367.854C352.91 370.174 338.861 379.481 338.722 379.581C338.507 379.733 338.255 379.796 338.016 379.796H338.028Z"/><path fill="#D57635" d="M292.223 275.437C291.592 275.437 291.05 274.97 290.974 274.327C289.146 259.712 282.853 248.54 277.909 241.743C272.524 234.354 267.504 230.382 267.454 230.344C266.912 229.915 266.811 229.121 267.239 228.566C267.668 228.011 268.463 227.923 269.018 228.352C269.232 228.516 274.315 232.538 279.901 240.18C285.047 247.229 291.58 258.817 293.497 274.012C293.585 274.705 293.093 275.336 292.4 275.424C292.349 275.424 292.299 275.424 292.236 275.424L292.223 275.437Z"/><path fill="#D57635" d="M522.321 429.1C519.635 431.786 516.722 434.346 513.556 436.767C495.282 447.738 472.972 454.963 448.405 457.788C440.787 458.658 433.094 459.099 425.401 459.099C404.189 459.099 382.925 455.796 362.886 449.301C310.749 432.417 273.129 396.29 256.961 347.59C248.095 320.883 243.744 294.919 244.022 270.405C244.236 250.772 247.427 232.021 253.468 214.67C255.485 208.882 257.68 203.662 259.899 198.983C261.526 196.865 263.178 194.873 264.843 192.994C265.789 191.934 266.748 190.9 267.744 189.892C263.784 196.676 259.546 205.288 255.927 215.691C246.607 242.513 239.658 287.025 259.483 346.746C275.374 394.625 312.389 430.147 363.693 446.767C418.2 464.421 481.245 457.258 520.568 428.962C521.111 428.571 521.842 428.646 522.296 429.113L522.321 429.1Z"/><path fill="#E05042" d="M304.507 154.244C304.507 154.244 284 133.286 313.864 118.52C343.741 103.754 378.928 126.313 384.691 142.769C390.467 159.224 304.494 154.244 304.494 154.244H304.507Z"/><path fill="#B11722" d="M340.185 139.868C340.008 139.868 339.819 139.805 339.668 139.679C331.521 132.706 317.862 133.349 317.724 133.349H317.686C317.27 133.349 316.917 133.021 316.904 132.605C316.879 132.164 317.219 131.798 317.648 131.773C318.228 131.735 332.076 131.092 340.702 138.481C341.03 138.759 341.068 139.263 340.79 139.591C340.639 139.767 340.412 139.868 340.185 139.868Z"/><path fill="#B11722" d="M320.17 140.865C319.893 140.865 319.615 140.713 319.477 140.448C319.275 140.057 319.414 139.591 319.805 139.377C320.208 139.162 329.654 134.194 336.351 135.758C336.78 135.858 337.045 136.275 336.944 136.703C336.843 137.132 336.427 137.397 335.998 137.296C329.869 135.871 320.637 140.726 320.549 140.776C320.435 140.839 320.309 140.865 320.183 140.865H320.17Z"/><path fill="#F69D84" d="M526.811 416.503L537.329 435.885C537.329 435.885 550.256 438.923 565.642 440.109C589.011 441.899 595.935 438.217 597.587 443.438C598.873 447.511 581.104 456.703 572.881 458.154C564.658 459.604 546.699 466.968 535.034 468.267C523.38 469.553 518.235 454.837 515.586 449.604C512.951 444.358 504.64 426.616 504.64 426.616L526.798 416.503H526.811Z"/><path fill="#E05042" d="M588.418 448.558C588.469 450.02 588.204 451.407 587.435 452.53C587.308 452.706 587.182 452.87 587.031 453.034C582.894 457.599 566.323 459.818 566.323 459.818C567.647 458.544 568.278 456.754 568.467 454.749C568.984 449.478 566.474 442.719 565.39 440.084C565.087 439.365 564.898 438.961 564.898 438.961C567.761 438.293 570.485 437.915 572.944 437.738C575.365 437.562 577.534 437.562 579.325 437.637C582.705 437.789 584.774 438.205 584.774 438.205C584.774 438.205 585.354 439.138 586.047 440.575C587.056 442.644 588.305 445.746 588.406 448.558H588.418Z"/><path fill="#B11722" d="M581.381 445.354L575.643 445.947C575.643 445.947 574.886 443.148 574.029 440.575C573.675 439.529 573.297 438.507 572.957 437.751C575.378 437.574 577.547 437.574 579.338 437.65C579.679 438.406 580.082 439.478 580.435 440.664C580.889 442.164 581.28 443.854 581.368 445.354H581.381Z"/><path fill="#E05042" d="M595.569 446.3C595.569 446.3 542.046 463.248 534.844 464.496C527.656 465.757 523.734 464.345 523.734 464.345C523.734 464.345 523.961 467.296 524.566 470.045C525.272 473.298 528.652 475.215 531.83 474.231C546.144 469.805 593.476 455.026 596.704 452.404C600.513 449.314 599.681 446.023 595.569 446.3Z"/><path fill="#F69D84" d="M477.499 412.052L476.806 429.466C476.806 429.466 486.365 438.697 498.977 447.574C518.146 461.066 525.978 461.445 524.73 466.766C523.759 470.915 503.769 469.742 495.975 466.779C488.169 463.828 468.961 460.966 458.279 456.123C447.597 451.269 450.712 435.998 451.116 430.147C451.532 424.296 452.402 411.106 452.402 411.106L477.499 412.052Z"/><path fill="#E05042" d="M514.237 466.476C513.531 467.762 512.597 468.821 511.349 469.389C511.16 469.477 510.958 469.553 510.744 469.616C504.854 471.432 489.48 464.862 489.48 464.862C491.259 464.446 492.722 463.235 493.92 461.609C497.06 457.346 498.359 450.26 498.763 447.435C498.876 446.666 498.914 446.212 498.914 446.212C501.726 447.107 504.249 448.179 506.456 449.276C508.625 450.361 510.491 451.47 511.992 452.454C514.817 454.307 516.381 455.72 516.381 455.72C516.381 455.72 516.406 456.817 516.267 458.406C516.078 460.701 515.561 464.004 514.212 466.476H514.237Z"/><path fill="#B11722" d="M509.823 460.121L504.589 457.699C504.589 457.699 505.371 454.9 505.951 452.252C506.191 451.168 506.38 450.108 506.481 449.276C508.65 450.361 510.517 451.47 512.017 452.454C511.916 453.273 511.727 454.408 511.425 455.606C511.046 457.132 510.517 458.784 509.823 460.121Z"/><path fill="#E05042" d="M521.526 468.191C521.526 468.191 466.855 455.379 460.032 452.782C453.209 450.184 450.561 446.969 450.561 446.969C450.561 446.969 449.249 449.617 448.354 452.29C447.307 455.442 449.224 458.822 452.453 459.604C467.019 463.122 515.258 474.622 519.37 474.017C524.225 473.31 525.196 470.057 521.514 468.178L521.526 468.191Z"/><path fill="#1E453E" d="M496.089 273.722C482.216 263.054 432.388 267.442 393.355 272.965C392.245 290.644 397.693 275.967 394.402 293.356C443.133 295.852 456.829 299.698 456.829 299.698C456.829 299.698 449.54 339.356 449.893 355.938C450.246 372.52 444.369 420.501 444.369 420.501L479.505 427.121C479.505 427.121 515.952 288.993 496.089 273.722Z"/><path fill="#396C61" d="M481.283 419.404C481.132 419.454 480.968 419.467 480.804 419.429L446.109 412.342C445.592 412.241 445.264 411.737 445.365 411.22C445.466 410.703 445.97 410.375 446.488 410.476L481.182 417.562C481.699 417.663 482.027 418.168 481.926 418.685C481.85 419.025 481.611 419.29 481.296 419.391L481.283 419.404Z"/><path fill="#396C61" d="M452.793 412.657C452.642 412.708 452.465 412.72 452.302 412.683C451.784 412.569 451.469 412.065 451.57 411.56C451.608 411.384 455.316 393.856 455.53 365.522C455.744 336.986 464.497 294.478 464.585 294.062C464.686 293.545 465.191 293.217 465.708 293.33C466.225 293.431 466.553 293.936 466.439 294.453C466.351 294.881 457.636 337.2 457.434 365.547C457.22 394.083 453.474 411.787 453.437 411.964C453.361 412.304 453.121 412.556 452.806 412.657H452.793Z"/><path fill="#F69D84" d="M477.462 170.599C476.175 168.871 477.108 165.252 476.781 162.427C476.364 158.707 476.882 152.995 478.017 149.855C479.732 145.139 485.52 131.508 489.38 129.919C493.226 128.318 489.14 140.461 488.358 142.97C487.564 145.48 487.967 147.472 487.967 147.472C487.967 147.472 499.507 120.361 502.71 119.428C505.901 118.507 500.881 134.597 499.62 138.557C499.62 138.557 509.445 118.608 511.664 118.659C516.104 118.772 505.825 141.23 505.825 141.23C505.825 141.23 514.956 124.863 517.592 126.451C520.391 128.116 510.58 145.618 510.58 145.618C510.58 145.618 518.084 135.821 520.984 136.136C523.885 136.451 509.709 158.241 507.124 161.33C504.539 164.42 498.271 173.31 494.26 176.714C491.536 179.035 481.523 176.059 477.462 170.586V170.599Z"/><path fill="#FF7C66" d="M509.142 152.705C509.444 152.428 509.495 151.961 509.255 151.621C503.567 143.563 493.857 142.554 493.44 142.516C492.986 142.479 492.583 142.806 492.545 143.26C492.507 143.714 492.835 144.118 493.289 144.156C493.377 144.156 502.659 145.152 507.906 152.566C508.171 152.945 508.688 153.033 509.054 152.768C509.079 152.743 509.104 152.73 509.129 152.705H509.142Z"/><path fill="#FF7C66" d="M493.617 166.601C493.857 166.387 493.957 166.034 493.831 165.706C490.388 156.463 495.925 151.053 495.975 151.003C496.303 150.688 496.316 150.171 496.001 149.83C495.685 149.502 495.181 149.49 494.84 149.792C494.575 150.057 488.459 156.022 492.28 166.286C492.444 166.715 492.911 166.929 493.339 166.778C493.44 166.74 493.529 166.69 493.604 166.614L493.617 166.601Z"/><path fill="#E05042" d="M400.266 151.621V151.558H400.254L400.279 151.621L400.354 151.797L400.531 152.201L400.922 153.109C401.199 153.739 401.502 154.395 401.805 155.051C402.423 156.375 403.066 157.711 403.747 159.048C405.122 161.709 406.572 164.382 408.148 166.967C408.943 168.266 409.737 169.552 410.557 170.825C411.377 172.099 412.222 173.347 413.092 174.583C413.962 175.819 414.858 177.03 415.766 178.227C416.674 179.425 417.594 180.611 418.553 181.771C426.12 191.064 434.948 198.996 444.823 205.074C445.441 205.452 446.059 205.83 446.689 206.196C447.307 206.574 447.951 206.915 448.581 207.268L449.06 207.533C448.859 207.419 448.644 207.331 448.405 207.217C447.938 207.016 447.408 206.827 446.879 206.688C446.336 206.549 445.781 206.448 445.252 206.398C444.722 206.335 444.218 206.335 443.776 206.36C442.893 206.398 442.225 206.574 441.847 206.688C441.456 206.814 441.292 206.915 441.279 206.927C441.266 206.965 441.771 206.7 442.414 206.209C443.07 205.717 443.877 205.023 444.722 204.204C445.58 203.384 446.475 202.438 447.383 201.417C449.212 199.387 451.066 197.041 452.894 194.582C456.564 189.652 460.133 184.217 463.602 178.644C465.342 175.857 467.057 173.02 468.734 170.17C469.579 168.745 470.424 167.307 471.244 165.882L473.64 161.734L502.887 175.025L502.344 176.437L501.827 177.748L500.78 180.333C500.062 182.036 499.33 183.738 498.586 185.428C497.085 188.795 495.509 192.136 493.857 195.465C490.515 202.11 486.882 208.68 482.569 215.237C480.413 218.529 478.067 221.794 475.393 225.098C474.044 226.75 472.594 228.402 471.005 230.079C469.403 231.756 467.65 233.433 465.569 235.136C463.488 236.825 461.104 238.553 457.964 240.167C456.4 240.974 454.609 241.731 452.541 242.361C450.485 242.992 448.089 243.471 445.466 243.61C444.142 243.673 442.767 243.635 441.367 243.509C439.967 243.357 438.555 243.105 437.168 242.739C435.793 242.361 434.431 241.895 433.17 241.327C432.527 241.05 431.934 240.734 431.328 240.432L430.66 240.066C429.765 239.574 428.869 239.083 427.974 238.566C427.078 238.061 426.208 237.544 425.325 237.002C423.572 235.943 421.857 234.833 420.155 233.698C418.477 232.538 416.8 231.365 415.173 230.13C413.534 228.906 411.944 227.645 410.368 226.347C408.817 225.035 407.266 223.711 405.777 222.337C399.774 216.877 394.364 210.862 389.521 204.494C387.1 201.303 384.83 198.025 382.723 194.658C380.617 191.291 378.612 187.861 376.796 184.331C375.888 182.565 375.018 180.787 374.173 178.984C373.328 177.181 372.533 175.365 371.777 173.511C371.02 171.658 370.288 169.779 369.62 167.85C369.279 166.879 368.952 165.908 368.636 164.886C368.472 164.382 368.308 163.865 368.157 163.335L367.615 161.431L400.241 151.621H400.266Z"/><path fill="#B11722" d="M449.477 221.177C449.035 221.328 448.543 221.126 448.329 220.697C445.1 214.216 443.612 206.133 443.549 205.793C443.461 205.276 443.801 204.784 444.306 204.696C444.823 204.607 445.315 204.948 445.403 205.452C445.416 205.528 446.916 213.611 450.019 219.853C450.246 220.319 450.057 220.887 449.59 221.126C449.552 221.151 449.502 221.164 449.464 221.177H449.477Z"/><path fill="#B11722" d="M442.174 215.855C442.01 215.906 441.834 215.918 441.645 215.868C441.14 215.742 440.825 215.225 440.964 214.72C441.039 214.443 442.692 207.898 443.688 205.83C443.915 205.364 444.482 205.162 444.949 205.389C445.416 205.616 445.617 206.183 445.39 206.65C444.47 208.542 442.818 215.111 442.792 215.174C442.704 215.502 442.464 215.742 442.174 215.843V215.855Z"/><path fill="#B11722" d="M496.051 190.585C495.786 190.673 495.484 190.648 495.231 190.472C485.861 184.28 466.616 175.933 466.414 175.857C465.935 175.655 465.708 175.088 465.922 174.608C466.124 174.129 466.691 173.902 467.171 174.117C467.36 174.205 486.769 182.603 496.278 188.895C496.72 189.185 496.833 189.765 496.543 190.207C496.417 190.396 496.24 190.522 496.051 190.585Z"/><path fill="#E05042" d="M400.544 152.201C403.028 159.741 398.904 178.076 402.902 210.32C403.192 212.69 403.533 215.137 403.924 217.671C404.289 220.042 404.693 222.501 405.147 225.035C405.576 227.393 406.042 229.827 406.547 232.311C407.001 234.493 407.48 236.737 408.01 239.02C408.552 241.378 409.12 243.774 409.738 246.232C409.914 246.926 410.103 247.683 410.305 248.464C410.355 248.666 410.406 248.855 410.456 249.07C410.507 249.246 410.545 249.423 410.595 249.612C410.633 249.751 410.658 249.889 410.696 250.015L410.772 250.318C410.822 250.495 410.86 250.684 410.91 250.86C410.91 250.898 410.923 250.936 410.936 250.961C410.986 251.175 411.049 251.402 411.112 251.629C411.112 251.667 411.125 251.692 411.137 251.73C411.188 251.919 411.238 252.121 411.289 252.31C411.528 253.218 411.781 254.177 412.033 255.16C412.096 255.4 412.159 255.652 412.235 255.904C412.323 256.232 412.411 256.573 412.499 256.913C412.676 257.581 412.865 258.25 413.042 258.943C413.13 259.284 413.231 259.637 413.319 259.977C413.521 260.721 413.723 261.465 413.937 262.234C413.975 262.373 414.013 262.512 414.051 262.65C414.543 264.466 415.072 266.333 415.602 268.249C415.842 269.119 416.094 269.989 416.333 270.859C416.636 271.919 416.939 272.991 417.241 274.062C417.695 275.639 418.149 277.215 418.616 278.791L419.209 280.796C419.385 281.401 419.575 282.007 419.751 282.612C419.966 283.331 420.18 284.062 420.394 284.781C420.533 285.26 420.684 285.739 420.836 286.218C420.924 286.521 421.012 286.811 421.101 287.114C421.277 287.706 421.466 288.299 421.643 288.892C421.819 289.484 422.009 290.064 422.185 290.644C422.311 291.06 422.437 291.464 422.564 291.867C422.677 292.233 422.791 292.586 422.904 292.939C422.942 293.04 422.967 293.128 422.992 293.229C423.055 293.431 423.118 293.645 423.194 293.847C423.333 294.263 423.459 294.692 423.598 295.096C423.749 295.575 423.913 296.067 424.064 296.546C425.313 300.379 426.536 303.948 427.684 307.037C419.158 316.835 404.68 325.397 387.655 330.529L378.209 324.388L370.301 334.413C353.666 336.847 335.846 335.888 319.426 329.911C314.003 318.827 305.061 278.161 302.526 266.005C302.022 263.584 301.568 261.15 301.152 258.716C299.134 247.002 298.062 235.111 297.343 222.614C297.305 221.933 297.267 221.252 297.23 220.571C297.23 220.496 297.23 220.407 297.217 220.332C296.448 209.803 282.688 178.782 284.076 167.623C286.825 145.505 300.925 151.331 313.637 147.913C317.812 146.791 321.318 145.379 324.193 143.929C325.391 143.323 326.476 142.718 327.46 142.126C327.876 141.886 328.254 141.646 328.62 141.394C332.567 138.834 334.724 136.678 334.724 136.678L363.567 133.664C366.417 137.019 369.784 138.973 373.328 140.234C373.719 140.373 374.11 140.499 374.513 140.625C375.106 140.814 375.699 140.978 376.292 141.129C386.482 143.777 397.265 142.327 400.531 152.213L400.544 152.201Z"/><path fill="#B11722" d="M328.166 307.453C327.851 307.453 327.548 307.252 327.422 306.936C311.645 264.58 303.472 191.443 303.397 190.711C303.346 190.283 303.661 189.892 304.09 189.841C304.519 189.791 304.91 190.106 304.96 190.535C305.036 191.266 313.183 264.214 328.897 306.381C329.049 306.785 328.847 307.239 328.431 307.403C328.342 307.441 328.241 307.453 328.153 307.453H328.166Z"/><path fill="#B11722" d="M356.063 151.444C356.365 152.365 355.268 153.55 353.603 154.092C351.939 154.634 350.35 154.344 350.047 153.424C349.744 152.503 350.842 151.318 352.506 150.776C354.171 150.234 355.76 150.524 356.063 151.444Z"/><path fill="#B11722" d="M368.939 148.166C369.242 149.086 368.144 150.271 366.48 150.814C364.815 151.356 363.226 151.066 362.923 150.145C362.621 149.225 363.718 148.039 365.383 147.497C367.047 146.955 368.636 147.245 368.939 148.166Z"/><path fill="#B11722" d="M372.584 155.051C372.231 155.051 371.915 154.811 371.814 154.458C371.701 154.029 371.966 153.601 372.382 153.5C383.505 150.65 384.199 143.954 384.224 143.677C384.262 143.248 384.64 142.92 385.069 142.958C385.498 142.996 385.826 143.374 385.788 143.803C385.763 144.131 385.044 151.886 372.76 155.038C372.697 155.051 372.634 155.063 372.559 155.063L372.584 155.051Z"/><path fill="#B11722" d="M389.685 224.783C374.854 224.783 362.003 220.975 353.402 217.52C342.682 213.22 336.023 208.504 335.96 208.453C335.607 208.201 335.518 207.709 335.771 207.356C336.023 207.003 336.515 206.915 336.868 207.167C336.931 207.218 343.464 211.845 354.02 216.07C363.743 219.966 378.991 224.329 396.344 222.929C396.786 222.892 397.164 223.22 397.189 223.648C397.227 224.077 396.899 224.468 396.47 224.493C394.162 224.682 391.892 224.758 389.673 224.758L389.685 224.783Z"/><path fill="#B11722" d="M344.788 252.689C344.788 252.689 380.226 243.66 402.309 243.395L409.056 272.612C409.056 272.612 374.059 278.501 351.913 282.36L344.788 252.689Z"/><path fill="#B11722" d="M324.912 161.898C318.089 161.898 312.868 159.994 309.311 158.027C303.649 154.899 300.887 151.053 300.773 150.889C300.521 150.536 300.609 150.045 300.963 149.792C301.316 149.54 301.808 149.628 302.06 149.982C302.06 149.982 304.759 153.739 310.131 156.677C315.088 159.388 323.424 161.986 335.026 158.947C335.443 158.834 335.884 159.086 335.985 159.515C336.098 159.931 335.846 160.372 335.417 160.473C331.571 161.482 328.052 161.885 324.899 161.885L324.912 161.898Z"/><path fill="#26120C" d="M415.64 268.237C415.11 266.32 414.58 264.454 414.089 262.638C414.593 264.454 415.11 266.32 415.64 268.237Z"/><path fill="#26120C" d="M413.08 258.931C412.891 258.237 412.714 257.569 412.537 256.9C412.714 257.569 412.903 258.237 413.08 258.931Z"/><path fill="#B11722" d="M405.273 221.151C405.273 221.151 405.16 221.189 405.096 221.189C404.579 221.252 404.1 220.887 404.037 220.37C402.309 207.18 400.405 191.506 400.228 187.08C400.203 186.563 400.607 186.121 401.136 186.096C401.654 186.071 402.095 186.474 402.12 187.004C402.297 191.367 404.201 206.965 405.916 220.13C405.979 220.584 405.702 221.013 405.273 221.151Z"/><path fill="#26120C" d="M370.793 73.8936C370.793 73.8936 379.937 81.0812 373.933 92.0391C373.933 92.0391 370.642 79.2401 370.793 73.8936Z"/><path fill="#26120C" d="M334.182 123.337C334.182 123.337 328.254 129.1 327.031 124.85C325.808 120.601 327.876 118.482 327.876 118.482C327.876 118.482 321.469 124.636 321.368 119.995C321.267 115.367 324.609 111.231 324.609 111.231C324.609 111.231 318.669 106.881 320.612 99.9204C322.554 92.9597 322.793 87.8654 320.851 82.1657C318.909 76.4661 319.792 70.5773 322.604 68.0301C326.716 64.2976 332.693 64.8776 332.693 64.8776C332.693 64.8776 335.872 54.4619 347.777 54.7393C359.682 55.0167 366.619 45.7232 372.622 48.1443C378.625 50.5654 385.511 70.4007 369.355 76.2769C369.355 76.2769 337.347 97.7389 334.182 123.349V123.337Z"/><path fill="#F69D84" d="M364.399 128.999L365.181 136.527C364.374 137.334 363.554 138.04 362.709 138.67C350.463 147.876 335.354 139.641 335.354 139.641L332.63 113.564L360.603 127.17L364.386 129.011L364.399 128.999Z"/><path fill="#26120C" d="M364.336 128.343L365.193 136.527C364.386 137.334 363.567 138.04 362.722 138.67C351.144 135.43 341.824 124.61 341.824 124.61L360.615 127.17L364.336 128.355V128.343Z"/><path fill="#FF7C66" d="M370.326 94.6747C370.326 94.6747 374.072 89.1768 377.01 93.9812C379.949 98.7855 379.167 109.189 372.483 108.192L370.314 94.6747H370.326Z"/><path fill="#F69D84" d="M376.733 111.9C376.733 111.9 378.385 127.448 362.192 129.099C346.112 130.751 333.829 119.264 333.198 118.747H333.173L332.656 115.481L329.969 98.6088L328.532 89.5928C328.532 89.5928 324.773 73.4774 339.983 68.8748C351.094 65.508 361.927 66.2898 367.905 71.6364C368.094 71.8129 368.283 71.9894 368.46 72.166C370.364 74.0701 371.701 76.4912 372.307 79.4545L374.514 95.696L375.056 99.6807L376.721 111.9H376.733Z"/><path fill="#26120C" d="M329.982 98.6214C329.982 98.6214 333.627 99.7563 335.228 104.182C337.637 103.93 339.315 101.686 338.873 99.3024C338.621 97.9153 338.293 96.2634 337.915 94.3971C336.754 88.811 334.976 87.0456 338.217 83.5401C341.459 80.0345 338.407 77.9539 341.358 75.4824C344.599 72.7712 352.595 77.5756 358.484 76.3524C365.471 74.9023 364.878 70.161 370.97 75.5959C370.97 75.5959 369.355 67.4121 361.41 65.2053C353.465 62.986 331.142 64.9405 327.725 75.5706C324.307 86.2007 329.982 98.6214 329.982 98.6214Z"/><path fill="#26120C" d="M337.612 111.912C337.562 112.089 336.01 117.057 333.211 118.747H333.198L332.681 115.481C332.681 115.481 335.191 114.775 337.625 111.9L337.612 111.912Z"/><path fill="#F69D84" d="M333.627 101.408C333.627 101.408 326.539 93.7037 322.667 100.74C319.476 106.541 328.052 119.894 334.976 114.283L333.627 101.396V101.408Z"/><path fill="#26120C" d="M333.866 111.875C333.538 111.912 333.236 111.698 333.173 111.37C331.823 105.116 326.299 103.476 326.06 103.401C325.719 103.3 325.517 102.947 325.618 102.606C325.719 102.266 326.072 102.064 326.413 102.165C326.678 102.241 332.908 104.069 334.434 111.093C334.509 111.446 334.282 111.786 333.942 111.862C333.917 111.862 333.892 111.862 333.866 111.862V111.875Z"/><path fill="#26120C" d="M327.485 108.609C327.296 108.634 327.106 108.571 326.968 108.419C326.716 108.167 326.716 107.764 326.968 107.511C327.207 107.272 329.313 105.229 331.281 105.519C331.634 105.57 331.874 105.897 331.823 106.25C331.773 106.604 331.445 106.843 331.092 106.793C329.957 106.629 328.393 107.915 327.876 108.419C327.762 108.533 327.624 108.583 327.485 108.609Z"/><path fill="#396C61" d="M314.835 316.772C314.835 316.772 317.068 381.851 395.625 355.938C437.584 342.093 456.199 331.463 456.199 331.463C456.199 331.463 469.428 368.182 476.541 383.163C483.654 398.143 503.416 434.813 503.416 434.813L537.316 426.465C537.316 426.465 497.842 289.093 473.464 283.28C449.086 277.467 419.839 286.71 368.258 298.412C368.258 298.412 323.21 305.31 314.848 316.772H314.835Z"/><path fill="#398889" d="M504.362 422.48C503.959 422.619 503.492 422.455 503.265 422.077C492.318 404.373 481.447 377.551 472.72 356.001C469.05 346.935 465.872 339.091 463.223 333.24C459.642 325.309 458.179 323.733 457.624 323.493C455.19 322.446 447.194 326.065 437.079 330.63C422.425 337.25 400.291 347.263 374.539 352.609C361.334 355.346 349.883 353.555 340.538 347.275C323.89 336.103 319.779 314.931 319.615 314.036C319.514 313.519 319.855 313.027 320.372 312.939C320.889 312.838 321.381 313.178 321.482 313.695C321.519 313.91 325.631 335.006 341.61 345.724C350.526 351.701 361.473 353.391 374.16 350.768C399.711 345.472 421.731 335.51 436.31 328.915C448.077 323.594 455.177 320.391 458.38 321.766C461.294 323.014 465.91 334.123 474.485 355.295C483.187 376.77 494.021 403.515 504.892 421.081C505.169 421.522 505.031 422.115 504.589 422.379C504.526 422.417 504.463 422.455 504.387 422.468L504.362 422.48Z"/><path fill="#398889" d="M533.218 415.936C533.218 415.936 533.18 415.936 533.167 415.949L498.901 425.002C498.397 425.141 497.88 424.838 497.741 424.334C497.602 423.83 497.905 423.3 498.41 423.174L532.675 414.12C533.18 413.981 533.697 414.284 533.836 414.788C533.962 415.28 533.684 415.772 533.218 415.923V415.936Z"/><path fill="#26120C" d="M494.574 277.892L390.662 287.695C390.461 287.714 390.313 287.893 390.332 288.094L391.55 300.999C391.569 301.2 391.748 301.348 391.949 301.329L495.861 291.526C496.062 291.507 496.209 291.329 496.19 291.128L494.973 278.222C494.954 278.021 494.775 277.873 494.574 277.892Z"/><path fill="#26120C" d="M507.137 290.493C511.072 290.127 514.275 287.151 514.931 283.255L527.593 208.125C528.362 203.535 524.579 199.462 519.938 199.891L473.086 204.305C469.92 204.607 467.347 206.965 466.78 210.093L451.205 295.764L507.137 290.493Z"/><path fill="#E05042" d="M476.667 275.298L475.81 278.715L478.988 278.476L478.433 282.511L474.75 282.788L473.792 286.508L469.579 286.836L470.538 283.116L467.94 283.318L466.981 287.038L462.769 287.366L463.728 283.646L460.55 283.885L461.104 279.85L464.787 279.573L465.645 276.155L462.467 276.395L463.021 272.36L466.704 272.083L467.663 268.363L471.875 268.035L470.916 271.755L473.514 271.553L474.473 267.833L478.685 267.505L477.727 271.225L480.905 270.985L480.35 275.021L476.667 275.298ZM472.455 275.626L469.857 275.828L468.999 279.245L471.597 279.043L472.455 275.626Z"/><path fill="#F4AD4B" d="M521.817 220.496C520.719 225.401 516.268 229.688 511.866 230.079C507.465 230.47 504.791 226.8 505.888 221.895C506.985 216.99 511.437 212.703 515.839 212.312C520.24 211.921 522.914 215.59 521.817 220.496Z"/><path fill="#26120C" d="M512.913 219.613C512.699 220.597 512.207 221.416 511.828 221.454C511.45 221.492 511.311 220.723 511.538 219.739C511.753 218.756 512.245 217.936 512.623 217.898C513.001 217.86 513.14 218.629 512.913 219.613Z"/><path fill="#26120C" d="M517.062 219.247C516.848 220.231 516.356 221.051 515.977 221.088C515.599 221.126 515.46 220.357 515.687 219.373C515.902 218.39 516.394 217.57 516.772 217.532C517.15 217.495 517.289 218.264 517.062 219.247Z"/><path fill="#26120C" d="M512.951 225.514C509.52 225.817 509.596 222.059 509.596 222.021C509.596 221.82 509.773 221.605 509.962 221.542C510.164 221.479 510.315 221.593 510.302 221.807C510.302 221.946 510.264 224.997 513.115 224.745C515.978 224.493 517.327 221.315 517.377 221.189C517.466 220.975 517.68 220.836 517.857 220.861C518.033 220.887 518.109 221.088 518.021 221.303C518.008 221.341 516.368 225.224 512.938 225.527L512.951 225.514Z"/><path fill="#26120C" d="M466.767 210.093L451.318 295.058L445.958 295.562L461.407 210.597C461.975 207.47 464.547 205.099 467.713 204.809L473.073 204.305C469.907 204.607 467.335 206.965 466.767 210.093Z"/><path fill="#564C54" d="M451.81 294.503C451.81 294.503 451.722 294.503 451.671 294.49C451.242 294.415 450.952 293.999 451.041 293.57L466.313 208.794C466.389 208.365 466.805 208.075 467.234 208.151C467.663 208.226 467.953 208.642 467.864 209.071L452.592 293.847C452.529 294.225 452.188 294.503 451.81 294.503Z"/><path fill="#564C54" d="M483.818 249.196C483.187 253.899 486.403 257.354 491.007 256.926C495.61 256.497 499.847 252.323 500.478 247.62C501.108 242.916 497.892 239.461 493.289 239.89C488.686 240.318 484.449 244.492 483.818 249.183V249.196Z"/><path fill="#F69D84" d="M418.149 269.611C418.149 269.611 442.54 264.164 451.066 268.224L448.089 283.696C448.089 283.696 434.343 282.738 431.139 284.327C427.936 285.916 427.759 292.082 415.425 292.435L418.162 269.611H418.149Z"/><path fill="#E05042" d="M415.476 266.547L412.613 266.08L406.862 265.147C403.028 264.504 399.207 263.823 395.386 263.104C387.756 261.705 380.176 260.166 372.76 258.477C369.053 257.619 365.383 256.711 361.788 255.766C358.194 254.807 354.675 253.786 351.321 252.663C347.991 251.554 344.775 250.368 342.127 249.12C340.815 248.502 339.655 247.872 338.86 247.355L338.835 247.33L338.722 247.153C338.28 246.459 337.877 245.741 337.473 245.022C336.666 243.584 335.884 242.134 335.153 240.646C333.664 237.683 332.353 234.619 331.167 231.492C328.784 225.224 327.018 218.642 325.744 211.883C325.114 208.504 324.622 205.087 324.256 201.631C323.878 198.176 323.638 194.696 323.525 191.216C323.399 187.735 323.386 184.242 323.525 180.8C323.588 179.072 323.689 177.37 323.827 175.693C323.891 174.861 323.966 174.028 324.042 173.234L324.168 172.087L324.269 171.317L284.82 165.189L284.719 165.895L284.643 166.412L284.53 167.383L284.328 169.199C284.202 170.384 284.101 171.544 284.025 172.692C283.861 174.999 283.76 177.269 283.71 179.526C283.584 184.041 283.647 188.53 283.874 193.006C284.366 201.959 285.539 210.887 287.481 219.752C287.973 221.959 288.502 224.178 289.083 226.372C289.675 228.566 290.318 230.76 291 232.942C292.387 237.305 293.976 241.617 295.779 245.867C297.469 249.763 299.323 253.609 301.391 257.367C301.568 257.695 301.745 258.023 301.934 258.351C303.056 260.381 304.267 262.386 305.515 264.365C306.146 265.349 306.777 266.333 307.432 267.304L307.924 268.035L308.164 268.401L308.656 269.107C309.539 270.355 310.434 271.402 311.292 272.297C312.149 273.192 312.982 273.974 313.776 274.642C314.583 275.336 315.34 275.916 316.097 276.458C317.585 277.518 318.972 278.388 320.309 279.132C322.188 280.178 323.941 281.036 325.644 281.78C326.35 282.095 327.056 282.385 327.737 282.675C330.083 283.633 332.34 284.428 334.547 285.146C336.754 285.878 338.924 286.508 341.08 287.088C345.368 288.248 349.568 289.219 353.73 290.077C357.891 290.947 362.015 291.691 366.139 292.372C374.362 293.734 382.522 294.793 390.656 295.688C394.73 296.117 398.803 296.508 402.877 296.861C404.92 297.038 406.95 297.201 408.993 297.353L412.071 297.567L415.236 297.756L418.263 266.963L415.476 266.534V266.547ZM338.079 246.775C338.079 246.775 338.003 246.686 338.066 246.724C338.104 246.749 338.217 246.825 338.394 247.002C338.432 247.039 338.47 247.09 338.52 247.14C338.306 246.989 338.154 246.863 338.066 246.787L338.079 246.775Z"/><path fill="#B11722" d="M325.631 281.805C323.928 281.061 322.163 280.204 320.296 279.157C318.972 278.4 317.572 277.543 316.084 276.484C315.327 275.941 314.571 275.361 313.763 274.668C312.969 273.999 312.137 273.218 311.279 272.322C310.434 271.44 309.526 270.38 308.643 269.132L308.151 268.426L307.912 268.06L307.42 267.329C306.751 266.358 306.133 265.374 305.503 264.391C304.254 262.411 303.056 260.406 301.921 258.376C301.732 258.048 301.555 257.72 301.379 257.392C301.48 257.342 301.581 257.291 301.694 257.241C301.694 257.241 327.144 257.581 325.631 281.805Z"/><path fill="#B11722" d="M378.738 295.31C378.612 295.348 378.486 295.36 378.347 295.348C378.032 295.323 346.049 292.208 328.141 283.81C310.093 275.349 301.631 259.195 301.291 258.514C301.051 258.048 301.24 257.48 301.694 257.241C302.161 257.001 302.728 257.19 302.968 257.644C303.056 257.808 311.506 273.911 328.948 282.095C346.554 290.354 378.209 293.431 378.524 293.456C379.041 293.507 379.432 293.973 379.382 294.49C379.344 294.881 379.079 295.184 378.738 295.297V295.31Z"/><path fill="#B11722" d="M327.27 258.464C326.955 258.565 326.589 258.502 326.325 258.25C325.946 257.897 325.921 257.291 326.287 256.913C330.713 252.197 337.07 247.468 337.347 247.267C337.763 246.951 338.356 247.04 338.671 247.468C338.987 247.884 338.898 248.477 338.47 248.792C338.406 248.843 331.975 253.622 327.661 258.212C327.548 258.325 327.409 258.414 327.27 258.464Z"/><path fill="#B11722" d="M337.751 249.272C337.751 249.272 337.688 249.297 337.65 249.297C333.879 250.091 328.922 251.705 328.872 251.718C328.38 251.882 327.838 251.604 327.674 251.113C327.51 250.621 327.787 250.079 328.279 249.927C328.481 249.864 333.387 248.263 337.259 247.456C337.776 247.342 338.268 247.67 338.381 248.187C338.482 248.666 338.205 249.133 337.751 249.284V249.272Z"/><path fill="#B11722" d="M329.238 226.17H329.213C328.708 226.322 328.178 226.044 328.04 225.54C327.674 224.317 319.212 195.541 319.199 181.052C319.199 180.535 319.628 180.106 320.145 180.106C320.662 180.106 321.091 180.535 321.091 181.052C321.091 195.263 329.767 224.707 329.856 225.01C330.007 225.502 329.73 226.019 329.25 226.183L329.238 226.17Z"/><path fill="#B11722" d="M321.028 189.992C320.775 190.081 320.473 190.056 320.233 189.892C319.792 189.614 319.653 189.034 319.93 188.593L323.033 183.65C323.31 183.208 323.89 183.07 324.332 183.347C324.773 183.624 324.912 184.205 324.634 184.646L321.532 189.589C321.406 189.778 321.229 189.917 321.028 189.98V189.992Z"/><path fill="#B11722" d="M400.455 296.483C400.329 296.521 400.191 296.546 400.052 296.521C399.535 296.47 399.156 295.991 399.207 295.474L402.461 265.614C402.524 265.097 402.99 264.718 403.507 264.782C404.025 264.832 404.403 265.311 404.34 265.828L401.086 295.688C401.048 296.067 400.783 296.369 400.443 296.483H400.455Z"/><path fill="#fff" d="M375.636 249.12C375.308 249.12 374.993 248.906 374.892 248.578C365.736 221.252 352.506 153.184 352.38 152.491C352.292 152.062 352.582 151.646 353.011 151.57C353.439 151.482 353.856 151.772 353.931 152.201C354.057 152.882 367.262 220.849 376.393 248.086C376.531 248.502 376.304 248.944 375.901 249.082C375.812 249.107 375.737 249.12 375.648 249.12H375.636Z"/><path fill="#fff" d="M395.209 246.522C394.818 246.522 394.478 246.232 394.427 245.842C388.853 205.162 365.584 150.41 365.345 149.855C365.168 149.452 365.357 148.985 365.761 148.821C366.165 148.645 366.631 148.834 366.795 149.237C367.035 149.792 390.391 204.733 395.991 245.627C396.054 246.056 395.751 246.459 395.31 246.522C395.272 246.522 395.234 246.522 395.196 246.522H395.209Z"/><path fill="#fff" d="M338.974 352.634C337.297 352.634 335.493 352.054 333.652 350.907C326.942 346.708 318.821 333.972 315.806 315.007C315.743 314.578 316.033 314.174 316.462 314.099C316.891 314.023 317.295 314.326 317.37 314.754C320.309 333.24 328.09 345.56 334.497 349.57C336.679 350.932 338.747 351.373 340.475 350.844C341.862 350.415 342.947 349.469 343.754 347.931C349.341 337.402 339.63 305.688 339.529 305.373C339.403 304.956 339.63 304.515 340.046 304.389C340.462 304.263 340.904 304.49 341.03 304.906C341.446 306.23 351.031 337.578 345.141 348.675C344.132 350.579 342.707 351.815 340.916 352.357C340.286 352.546 339.63 352.647 338.961 352.647L338.974 352.634Z"/><path fill="#F4AD4B" d="M295.338 453.425C295.136 454.308 294.897 455.178 294.619 456.023C292.765 461.71 289.36 466.249 284.732 468.128C267.202 475.24 250.718 472.781 217.172 471.999C183.637 471.217 158.729 462.34 161.832 434.724C162.084 432.543 162.5 430.513 163.068 428.609C163.812 426.112 164.821 423.855 166.019 421.812C167.419 419.404 169.084 417.285 170.9 415.444C180.308 405.886 194.483 402.759 207.183 407.109C219.719 411.409 241.878 413.489 264.944 413.943C289.726 414.448 298.995 437.6 295.338 453.4V453.425Z"/><path fill="#D57635" d="M295.338 453.425C295.136 454.308 294.897 455.178 294.619 456.023C288.679 461.205 277.48 464.484 261.249 465.77C256.154 466.186 250.542 466.375 244.514 466.375C230.553 466.375 214.284 465.291 196.514 463.16C181.481 461.357 171.316 456.06 166.284 447.423C162.538 440.992 162.349 433.968 163.068 428.621C163.812 426.125 164.821 423.868 166.019 421.825C164.72 425.822 161.857 437.171 167.444 446.767C172.249 455.026 182.086 460.096 196.678 461.848C249.394 468.179 285.274 465.102 295.338 453.425Z"/><path fill="#D57635" d="M195.114 419.265C184.81 420.097 177.193 429.491 178.883 439.693C178.921 439.895 178.946 440.084 178.996 440.285C181.216 451.395 196.161 451.067 237.653 451.458C270.153 451.76 286.863 440.134 278.212 425.771C271.338 414.347 217.058 417.499 195.114 419.265Z"/><path fill="#26120C" d="M273.495 427.676C258.374 446.502 196.703 447.561 188.607 433.463C184.659 426.604 185.756 417.802 187.9 410.589C188.127 409.833 188.367 409.089 188.607 408.37C190.826 401.876 193.613 397.135 193.613 397.135C193.613 397.135 193.361 403.843 216.112 401.434C218.71 401.157 221.674 401.044 224.84 401.081C225.432 401.081 226.025 401.094 226.63 401.119C251.16 401.851 286.548 411.421 273.482 427.688L273.495 427.676Z"/><path fill="#F4AD4B" d="M223.931 416.453C220.375 420.425 214.183 421.926 206.048 420.778C205.859 420.753 205.682 420.728 205.506 420.702C195.253 419.126 190.259 414.246 187.9 410.589C188.127 409.833 188.367 409.089 188.606 408.37C190.347 411.737 194.937 417.474 206.3 419.063C213.83 420.122 219.492 418.811 222.645 415.293C225.483 412.115 226.239 407.21 224.852 401.069C225.445 401.069 226.038 401.081 226.643 401.107C228.043 407.639 227.11 412.922 223.944 416.453H223.931Z"/><path fill="#26120C" d="M264.944 413.969C264.944 413.969 279.422 412.897 281.138 405.596C282.853 398.295 249.634 404.7 245.977 389.644C242.307 374.601 256.999 362.596 261.766 366.997C267.416 372.218 255.044 374.437 254.376 382.179C253.821 388.61 257.806 394.537 270.178 395.42C282.55 396.302 288.074 398.219 288.024 403.969C287.96 410.224 277.947 416.68 271.855 417.083C265.764 417.487 264.944 413.969 264.944 413.969Z"/><path fill="#26120C" d="M201.407 391.586C201.407 391.586 197.107 386 190.12 382.28C189.098 381.738 187.888 382.558 188.014 383.705L189.338 396.517C189.338 396.517 199.377 397.374 201.42 391.599L201.407 391.586Z"/><path fill="#564C54" d="M191.785 394.966C191.217 392.065 191.078 389.014 190.41 385.584C190.41 385.584 197.964 390.086 198.406 392.557C198.406 392.557 194.244 395.71 191.785 394.966Z"/><path fill="#26120C" d="M214.523 392.103C214.523 392.103 220.425 388.547 228.156 387.576C229.417 387.413 230.351 388.749 229.783 389.897L224.499 400.439C224.499 400.439 214.321 398.232 214.536 392.103H214.523Z"/><path fill="#564C54" d="M222.254 398.736C223.843 396.239 225.079 393.44 226.946 390.502C226.946 390.502 218.281 391.952 216.957 394.096C216.957 394.096 219.694 398.547 222.254 398.749V398.736Z"/><path fill="#26120C" d="M195.795 391.813C195.795 391.813 186.853 393.175 187.522 403.654C188.19 414.133 198.393 415.242 198.393 415.242C198.393 415.242 200.209 418.609 206.515 419.971C210.551 420.841 216.554 420.564 218.08 417.6C218.08 417.6 226.832 414.398 226.731 406.592C226.618 397.942 216.201 387.324 195.795 391.813Z"/><path fill="#26120C" d="M186.715 416.579C186.715 416.579 190.359 431.446 193.424 434.523C196.476 437.587 199.793 439.277 204.056 439.794C210.929 440.626 209.668 445.216 207.612 446.792C205.241 448.621 201.029 447.574 194.698 447.574C189.237 447.574 184.091 446.489 182.238 442.896C180.396 439.302 180.51 428.684 182.477 422.707C183.688 419.025 185.39 417.096 186.702 416.591L186.715 416.579Z"/><path fill="#26120C" d="M232.923 417.562C232.923 417.562 229.279 432.429 226.214 435.506C223.162 438.57 219.82 440.096 215.582 440.777C210.399 441.597 210.878 446.489 212.026 447.776C214.031 450.008 218.609 448.557 224.94 448.557C230.401 448.557 236.858 446.376 238.712 442.782C240.553 439.188 239.128 429.668 237.161 423.691C235.95 420.009 234.248 418.079 232.936 417.575L232.923 417.562Z"/><path fill="#26120C" d="M263.456 414.599C263.456 414.599 273.079 412.292 276.181 419.542C281.062 430.942 277.165 437.461 264.162 439.277C251.16 441.093 236.392 443.552 247.553 434.296C258.727 425.053 263.456 414.599 263.456 414.599Z"/><path fill="#564C54" d="M211.66 408.736C211.66 408.736 207.776 408.32 206.742 408.799C205.001 409.593 207.801 412.834 209.579 413.111C211.358 413.389 213.085 411.308 213.06 409.946C213.035 408.597 211.66 408.736 211.66 408.736Z"/><path fill="#564C54" d="M213.666 405.747C213.476 405.634 213.275 405.873 213.413 406.037C214.183 406.958 215.608 408.168 217.537 407.765C219.126 407.424 219.732 406.315 219.946 405.344C219.997 405.129 219.694 405.003 219.593 405.205C219.177 405.924 218.382 406.655 216.831 406.756C215.658 406.832 214.46 406.252 213.666 405.76V405.747Z"/><path fill="#564C54" d="M198.607 404.953C198.443 404.801 198.204 405.003 198.305 405.192C198.898 406.239 200.07 407.689 202.038 407.651C203.665 407.613 204.459 406.63 204.85 405.709C204.938 405.507 204.674 405.331 204.522 405.507C203.993 406.138 203.072 406.718 201.521 406.529C200.36 406.39 199.276 405.596 198.595 404.965L198.607 404.953Z"/><path fill="#fff" d="M604.839 4.31257V94.8891C604.839 97.2724 602.909 99.1891 600.538 99.1891H447.207C444.823 99.1891 442.906 97.2598 442.906 94.8891V4.29996C442.906 1.9167 444.836 0 447.207 0H600.538C602.922 0 604.839 1.92931 604.839 4.31257Z"/><path fill="#7D529A" d="M510.555 55.622C510.555 62.9736 507.767 69.682 503.202 74.7386C497.981 80.5265 490.427 84.1581 482.015 84.1581C466.25 84.1581 453.475 71.3843 453.475 55.622C453.475 51.713 454.257 47.9931 455.682 44.5884L482.015 55.622L480.665 27.1238C481.107 27.0985 481.561 27.0859 482.015 27.0859C497.779 27.0859 510.555 39.8597 510.555 55.622Z"/><path fill="#B98FE5" d="M477.828 22.4204C469.302 22.8113 461.76 26.9473 456.792 33.2271C455.19 35.2446 453.866 37.4892 452.857 39.8977L479.177 50.9187L477.828 22.4204Z"/><path fill="#7D529A" d="M579.25 35.9758H575.328V39.8975H579.25V35.9758Z"/><path fill="#E8D2FF" d="M595.935 37.4385H581.886C581.865 37.4385 581.848 37.4554 581.848 37.4763V38.3842C581.848 38.4051 581.865 38.422 581.886 38.422H595.935C595.956 38.422 595.973 38.4051 595.973 38.3842V37.4763C595.973 37.4554 595.956 37.4385 595.935 37.4385Z"/><path fill="#46235F" d="M579.25 28.99H575.328V32.9117H579.25V28.99Z"/><path fill="#E8D2FF" d="M595.935 30.4526H581.886C581.865 30.4526 581.848 30.4696 581.848 30.4905V31.3984C581.848 31.4193 581.865 31.4362 581.886 31.4362H595.935C595.956 31.4362 595.973 31.4193 595.973 31.3984V30.4905C595.973 30.4696 595.956 30.4526 595.935 30.4526Z"/><path fill="#7D529A" d="M579.25 42.949H575.328V46.8706H579.25V42.949Z"/><path fill="#E8D2FF" d="M595.935 44.4243H581.886C581.865 44.4243 581.848 44.4413 581.848 44.4621V45.3701C581.848 45.3909 581.865 45.4079 581.886 45.4079H595.935C595.956 45.4079 595.973 45.3909 595.973 45.3701V44.4621C595.973 44.4413 595.956 44.4243 595.935 44.4243Z"/><path fill="#E8D2FF" d="M595.494 59.1528H575.832C575.568 59.1528 575.341 58.9384 575.341 58.661C575.341 58.3962 575.555 58.1692 575.832 58.1692H595.494C595.759 58.1692 595.986 58.3836 595.986 58.661C595.986 58.9258 595.771 59.1528 595.494 59.1528Z"/><path fill="#E8D2FF" d="M595.494 63.1752H575.832C575.568 63.1752 575.341 62.9609 575.341 62.6834C575.341 62.4186 575.555 62.1917 575.832 62.1917H595.494C595.759 62.1917 595.986 62.406 595.986 62.6834C595.986 62.9482 595.771 63.1752 595.494 63.1752Z"/><path fill="#E8D2FF" d="M595.494 67.2104H575.832C575.568 67.2104 575.341 66.996 575.341 66.7186C575.341 66.4538 575.555 66.2268 575.832 66.2268H595.494C595.759 66.2268 595.986 66.4412 595.986 66.7186C595.986 66.9834 595.771 67.2104 595.494 67.2104Z"/><path fill="#E8D2FF" d="M595.494 71.2331H575.832C575.568 71.2331 575.341 71.0187 575.341 70.7413C575.341 70.4765 575.555 70.2495 575.832 70.2495H595.494C595.759 70.2495 595.986 70.4639 595.986 70.7413C595.986 71.0061 595.771 71.2331 595.494 71.2331Z"/><path fill="#E8D2FF" d="M595.494 75.2682H575.832C575.568 75.2682 575.341 75.0539 575.341 74.7765C575.341 74.5116 575.555 74.2847 575.832 74.2847H595.494C595.759 74.2847 595.986 74.499 595.986 74.7765C595.986 75.0413 595.771 75.2682 595.494 75.2682Z"/><path fill="#E8D2FF" d="M595.494 79.2907H575.832C575.568 79.2907 575.341 79.0763 575.341 78.7989C575.341 78.5341 575.555 78.3071 575.832 78.3071H595.494C595.759 78.3071 595.986 78.5215 595.986 78.7989C595.986 79.0637 595.771 79.2907 595.494 79.2907Z"/><path fill="#E8D2FF" d="M595.494 83.3259H575.832C575.568 83.3259 575.341 83.1115 575.341 82.8341C575.341 82.5693 575.555 82.3423 575.832 82.3423H595.494C595.759 82.3423 595.986 82.5567 595.986 82.8341C595.986 83.0989 595.771 83.3259 595.494 83.3259Z"/><path fill="#26120C" d="M604.839 4.31257V11.8659H442.894V4.29996C442.894 1.9167 444.823 0 447.194 0H600.526C602.909 0 604.826 1.92931 604.826 4.31257H604.839Z"/><path fill="#E8D2FF" d="M587.788 5.93913C587.788 7.03619 586.893 7.93149 585.795 7.93149C584.698 7.93149 583.803 7.03619 583.803 5.93913C583.803 4.84208 584.698 3.94678 585.795 3.94678C586.893 3.94678 587.788 4.84208 587.788 5.93913Z"/><path fill="#B98FE5" d="M594.245 5.93913C594.245 7.03619 593.35 7.93149 592.252 7.93149C591.155 7.93149 590.26 7.03619 590.26 5.93913C590.26 4.84208 591.155 3.94678 592.252 3.94678C593.35 3.94678 594.245 4.84208 594.245 5.93913Z"/><path fill="#7D529A" d="M600.437 5.93913C600.437 7.03619 599.542 7.93149 598.445 7.93149C597.348 7.93149 596.452 7.03619 596.452 5.93913C596.452 4.84208 597.348 3.94678 598.445 3.94678C599.542 3.94678 600.437 4.84208 600.437 5.93913Z"/><path fill="#46235F" d="M510.555 55.622C510.555 62.9736 507.768 69.682 503.202 74.7386L482.015 55.622L480.665 27.1238C481.107 27.0985 481.561 27.0859 482.015 27.0859C497.779 27.0859 510.555 39.8597 510.555 55.622Z"/><path fill="#7D529A" d="M547.418 48.4092H538.338V87.3358H547.418V48.4092Z"/><path fill="#46235F" d="M538.338 77.0715C541.554 76.0753 544.581 74.2973 547.418 72.3806V87.3359H538.338V77.0715Z"/><path fill="#7D529A" d="M532.574 59.2285H523.494V87.3359H532.574V59.2285Z"/><path fill="#46235F" d="M530.897 77.7271C531.465 77.8153 532.02 77.8658 532.574 77.8784V87.3358H523.494V77.9666C525.096 77.437 527.454 77.2227 530.897 77.7271Z"/><path fill="#7D529A" d="M562.275 36.783H553.194V87.3358H562.275V36.783Z"/><path fill="#46235F" d="M562.275 64.4869V87.3359H553.194V68.3707C556.423 66.1766 559.437 64.4743 562.275 64.4869Z"/><path fill="#7D529A" d="M561.909 22.0421L553.712 23.7948L555.919 25.9511L543.37 38.7501L538.969 34.4249L523.393 50.3007C522.801 50.906 522.813 51.877 523.419 52.4696C524.024 53.0623 524.995 53.0497 525.588 52.4444L539.019 38.7627L543.421 43.0879L558.126 28.0948L560.333 30.2511L561.934 22.0168L561.909 22.0421Z"/><path fill="#7D529A" d="M278.09 102.798L215.537 102.885L215.597 146.087L278.15 145.999L278.09 102.798Z"/><path fill="#46235F" d="M215.532 102.884L215.545 105.658L246.859 133.324L278.085 105.557V102.795L246.847 130.651L215.532 102.884Z"/><path fill="#46235F" d="M252.875 125.19L276.333 145.997H278.149V144.9L254.212 123.677L252.875 125.19Z"/><path fill="#46235F" d="M215.595 145.127V146.085H217.575L240.982 125.203L239.633 123.69L215.595 145.127Z"/><path fill="#7D529A" d="M278.085 102.795L246.847 130.651L215.532 102.884L278.085 102.795Z"/><path fill="#B98FE5" d="M275.147 118.57C282.648 118.57 288.73 112.49 288.73 104.99C288.73 97.489 282.648 91.4087 275.147 91.4087C267.645 91.4087 261.564 97.489 261.564 104.99C261.564 112.49 267.645 118.57 275.147 118.57Z"/><path fill="#fff" d="M272.36 111.446C272.007 111.446 271.679 111.307 271.426 111.055L268.097 107.726C267.58 107.209 267.58 106.377 268.097 105.86C268.614 105.343 269.446 105.343 269.964 105.86L272.36 108.255L281.692 98.9241C282.209 98.4071 283.042 98.4071 283.559 98.9241C284.076 99.4411 284.076 100.273 283.559 100.79L273.293 111.055C273.041 111.307 272.713 111.446 272.36 111.446Z"/><path fill="#fff" d="M634.867 275.437V122C634.867 119.655 632.963 117.751 630.617 117.751H552.955C550.609 117.751 548.705 119.655 548.705 122V275.437C548.705 280.178 552.551 284.037 557.306 284.037H626.279C631.021 284.037 634.88 280.191 634.88 275.437H634.867Z"/><path fill="#E8D2FF" d="M621.966 234.278H564.57C563.523 234.278 562.678 233.433 562.678 232.387C562.678 231.34 563.523 230.495 564.57 230.495H621.966C623.012 230.495 623.857 231.34 623.857 232.387C623.857 233.433 623.012 234.278 621.966 234.278Z"/><path fill="#E8D2FF" d="M621.966 246.283H564.57C563.523 246.283 562.678 245.438 562.678 244.391C562.678 243.345 563.523 242.5 564.57 242.5H621.966C623.012 242.5 623.857 243.345 623.857 244.391C623.857 245.438 623.012 246.283 621.966 246.283Z"/><path fill="#E8D2FF" d="M621.966 258.288H564.57C563.523 258.288 562.678 257.443 562.678 256.396C562.678 255.349 563.523 254.505 564.57 254.505H621.966C623.012 254.505 623.857 255.349 623.857 256.396C623.857 257.443 623.012 258.288 621.966 258.288Z"/><path fill="#E8D2FF" d="M621.966 270.292H564.57C563.523 270.292 562.678 269.447 562.678 268.401C562.678 267.354 563.523 266.509 564.57 266.509H621.966C623.012 266.509 623.857 267.354 623.857 268.401C623.857 269.447 623.012 270.292 621.966 270.292Z"/><path fill="#26120C" d="M634.867 122V133.778H548.705V122C548.705 119.655 550.609 117.751 552.955 117.751H630.617C632.963 117.751 634.867 119.655 634.867 122Z"/><path fill="#E8D2FF" d="M614.008 125.001C614.008 126.552 612.759 127.801 611.208 127.801C609.657 127.801 608.408 126.552 608.408 125.001C608.408 123.45 609.657 122.202 611.208 122.202C612.759 122.202 614.008 123.45 614.008 125.001Z"/><path fill="#B98FE5" d="M623.088 125.001C623.088 126.552 621.84 127.801 620.288 127.801C618.737 127.801 617.489 126.552 617.489 125.001C617.489 123.45 618.737 122.202 620.288 122.202C621.84 122.202 623.088 123.45 623.088 125.001Z"/><path fill="#7D529A" d="M631.778 125.001C631.778 126.552 630.529 127.801 628.978 127.801C627.427 127.801 626.178 126.552 626.178 125.001C626.178 123.45 627.427 122.202 628.978 122.202C630.529 122.202 631.778 123.45 631.778 125.001Z"/><path fill="#7D529A" d="M575.454 199.45H565.768V222.866H575.454V199.45Z"/><path fill="#46235F" d="M589.743 182.83H580.057V222.867H589.743V182.83Z"/><path fill="#7D529A" d="M605.57 170.561H595.885V222.879H605.57V170.561Z"/><path fill="#B98FE5" d="M621.083 156.16H611.397V222.867H621.083V156.16Z"/><path fill="#E8D2FF" d="M603.225 145.896L609.934 148.368L609.165 140.499L603.225 145.896Z"/><path fill="#E8D2FF" d="M563.095 188.089C562.805 188.089 562.527 187.912 562.414 187.61C562.275 187.231 562.464 186.815 562.842 186.676C563.132 186.563 592.303 175.391 606.529 145.367C606.705 145.001 607.134 144.85 607.5 145.026C607.866 145.203 608.017 145.631 607.84 145.997C593.35 176.576 563.65 187.937 563.359 188.051C563.271 188.076 563.195 188.101 563.107 188.101L563.095 188.089Z"/><path fill="#7D529A" d="M233.062 26.0141V49.9602C233.062 53.1253 235.635 55.6977 238.8 55.6977H282.285L295.414 60.4012C296.763 60.8803 298.05 59.5563 297.533 58.2323L292.564 45.408V26.0141C292.564 22.849 289.991 20.2766 286.825 20.2766H238.788C235.622 20.2766 233.05 22.849 233.05 26.0141H233.062Z"/><path fill="#46235F" d="M270.834 38.6618C270.834 40.9568 272.688 42.8105 274.983 42.8105C277.278 42.8105 279.132 40.9568 279.132 38.6618C279.132 36.3668 277.278 34.5132 274.983 34.5132C272.688 34.5132 270.834 36.3668 270.834 38.6618Z"/><path fill="#46235F" d="M257.705 38.6618C257.705 40.9568 259.559 42.8105 261.855 42.8105C264.15 42.8105 266.004 40.9568 266.004 38.6618C266.004 36.3668 264.15 34.5132 261.855 34.5132C259.559 34.5132 257.705 36.3668 257.705 38.6618Z"/><path fill="#46235F" d="M244.577 38.6618C244.577 40.9568 246.431 42.8105 248.726 42.8105C251.021 42.8105 252.875 40.9568 252.875 38.6618C252.875 36.3668 251.021 34.5132 248.726 34.5132C246.431 34.5132 244.577 36.3668 244.577 38.6618Z"/><path fill="#B98FE5" d="M336.275 0.453857H315.567C314.237 0.453857 313.158 1.53217 313.158 2.86234V23.5677C313.158 24.8979 314.237 25.9762 315.567 25.9762H336.275C337.606 25.9762 338.684 24.8979 338.684 23.5677V2.86234C338.684 1.53217 337.606 0.453857 336.275 0.453857Z"/><path fill="#fff" d="M333.135 7.9694C333.097 7.79286 333.047 7.61632 333.009 7.43979C332.857 6.8219 332.555 6.27968 332.139 5.7879C331.836 5.44743 331.495 5.14479 331.104 4.91782C330.562 4.60257 329.957 4.74128 329.553 5.22045C328.847 6.07792 328.128 6.93539 327.434 7.80547C327.006 8.33508 327.069 9.06646 327.611 9.53302C327.989 9.87349 328.393 10.1887 328.797 10.5166C328.847 10.5544 328.91 10.5922 328.948 10.6175C328.002 13.152 326.4 15.1192 324.105 16.5315C323.828 16.3045 323.538 16.0523 323.247 15.8127C323.096 15.6866 322.945 15.5605 322.793 15.447C322.327 15.094 321.797 15.0561 321.318 15.3714C321.167 15.4723 321.04 15.6236 320.927 15.7623C320.284 16.5441 319.653 17.3259 319.01 18.0951C318.808 18.3347 318.682 18.6121 318.632 18.9274L318.669 19.2678C318.783 19.457 318.859 19.6966 319.01 19.8479C319.388 20.2262 319.804 20.554 320.296 20.781C320.876 21.0458 321.482 21.1971 322.112 21.1467C322.529 21.1089 322.945 21.0206 323.348 20.9071C324.382 20.6171 325.341 20.1253 326.224 19.52C327.107 18.9274 327.914 18.2338 328.645 17.4646C329.642 16.4306 330.524 15.3083 331.331 14.1104C331.962 13.1773 332.504 12.1937 332.87 11.1093C333.047 10.567 333.173 10.0122 333.211 9.43214C333.223 9.20516 333.236 8.96558 333.236 8.7386L333.16 7.94418L333.135 7.9694Z"/><path fill="#7D529A" d="M373.87 0H352.267C351.076 0 350.11 0.965401 350.11 2.15628V23.757C350.11 24.9478 351.076 25.9132 352.267 25.9132H373.87C375.061 25.9132 376.027 24.9478 376.027 23.757V2.15628C376.027 0.965401 375.061 0 373.87 0Z"/><path fill="#fff" d="M371.335 12.4585C371.335 15.6866 369.519 17.3637 367.363 17.3637C366.089 17.3637 365.168 16.8719 364.689 15.8884C364.21 16.8215 363.403 17.3637 362.116 17.3637C360.288 17.3637 358.535 15.7623 358.535 13.152C358.535 10.5418 360.237 8.95295 362.116 8.95295C363.012 8.95295 363.705 9.24298 364.197 9.7852V9.10427H367.451V13.9465C367.451 14.6526 367.741 14.8796 368.107 14.8796C368.586 14.8796 368.964 14.4004 368.964 12.5089C368.964 9.44473 366.682 7.28845 363.201 7.28845C359.72 7.28845 357.4 9.72215 357.4 12.9377C357.4 16.1532 359.682 18.6247 363.138 18.6247C364.26 18.6247 365.408 18.4103 366.556 17.8807L367.262 19.9613C366.253 20.4531 364.639 20.7684 363.138 20.7684C358.043 20.7684 354.776 17.3637 354.776 12.9377C354.776 8.51161 358.043 5.14478 363.201 5.14478C368.069 5.14478 371.335 8.41073 371.335 12.4711V12.4585ZM364.26 13.152C364.26 12.1432 363.731 11.6136 363.037 11.6136C362.343 11.6136 361.839 12.1432 361.839 13.152C361.839 14.1608 362.343 14.703 363.037 14.703C363.731 14.703 364.26 14.1734 364.26 13.152Z"/><path fill="#46235F" d="M408.792 0H387.188C385.997 0 385.031 0.965401 385.031 2.15628V23.757C385.031 24.9478 385.997 25.9132 387.188 25.9132H408.792C409.983 25.9132 410.948 24.9478 410.948 23.757V2.15628C410.948 0.965401 409.983 0 408.792 0Z"/><path fill="#fff" d="M399.346 18.9274V20.7685L396.987 20.7432V18.9779C395.335 18.8644 393.734 18.3978 392.737 17.7799L394.024 14.9301C395.121 15.5858 396.571 16.0145 397.858 16.0271C398.967 16.0271 399.371 15.8128 399.371 15.4093C399.371 13.9465 392.939 15.0688 392.977 10.7436C392.99 8.86475 394.364 7.30113 397.101 6.93545V5.11963L399.459 5.14485V6.92284C400.67 7.04894 401.868 7.37679 402.814 7.91902L401.616 10.7562C400.468 10.1636 399.396 9.87354 398.387 9.86093C397.24 9.86093 396.874 10.1762 396.874 10.5797C396.874 11.9794 403.306 10.8697 403.268 15.1571C403.255 16.9477 401.944 18.4987 399.358 18.9274H399.346Z"/><path fill="#DBBF9F" d="M160.508 460.852C160.508 464.497 124.577 467.447 80.2602 467.447C35.9431 467.447 0.0126953 464.497 0.0126953 460.852C0.0126953 457.208 35.9431 454.257 80.2602 454.257C124.577 454.257 160.508 457.208 160.508 460.852Z"/><path fill="#39252B" d="M128.777 396.542H28.7294C28.0956 396.542 27.5818 397.056 27.5818 397.689V403.503C27.5818 404.136 28.0956 404.65 28.7294 404.65H128.777C129.411 404.65 129.925 404.136 129.925 403.503V397.689C129.925 397.056 129.411 396.542 128.777 396.542Z"/><path fill="#7F5C55" d="M125.637 306.747H32.0841C30.5309 306.747 29.2717 308.006 29.2717 309.559V321.06C29.2717 322.613 30.5309 323.871 32.0841 323.871H125.637C127.19 323.871 128.449 322.613 128.449 321.06V309.559C128.449 308.006 127.19 306.747 125.637 306.747Z"/><path fill="#396C61" d="M77.9271 262.209H68.8342C68.8342 262.209 68.3928 261.301 67.6109 259.65C67.2325 258.868 66.7911 257.922 66.274 256.825C64.975 254.076 63.2851 250.394 61.3177 246.043C61.3051 246.006 61.2799 245.968 61.2672 245.93C49.0088 218.68 27.0142 165.769 36.0062 155.24C46.2216 143.286 58.417 161.192 67.283 195.074C67.8883 197.407 68.4811 199.803 69.0612 202.275C72.2393 215.931 74.8877 231.757 76.7164 248.982C76.9939 251.567 77.2461 254.177 77.4857 256.812C77.6497 258.59 77.801 260.394 77.9397 262.209H77.9271Z"/><path fill="#1E453E" d="M77.4731 256.812L74.7364 262.209H68.8342C68.8342 262.209 68.3928 261.301 67.6109 259.65L67.283 195.074C71.7601 212.173 75.3796 233.358 77.4731 256.812Z"/><path fill="#1E453E" d="M75.0643 262.209H73.5761L44.9352 168.392C44.8217 168.014 45.0361 167.623 45.4019 167.509C45.7802 167.396 46.1712 167.61 46.2847 167.989L75.0517 262.209H75.0643Z"/><path fill="#396C61" d="M101.17 243.168C100.502 244.682 99.8461 246.132 99.2281 247.506C97.5508 251.213 96.0753 254.378 94.9402 256.812C93.3385 260.229 92.3801 262.209 92.3801 262.209H83.2871C83.4258 260.406 83.5772 258.603 83.7411 256.812C83.9681 254.303 84.2078 251.806 84.4726 249.347C86.2382 232.526 88.7984 217.028 91.863 203.573C92.3422 201.493 92.8215 199.45 93.3259 197.47C102.23 162.037 114.753 142.996 125.208 155.227C133.91 165.403 113.618 215.238 101.183 243.156L101.17 243.168Z"/><path fill="#1E453E" d="M83.7285 256.812L86.4652 262.209H92.3674C92.3674 262.209 92.8089 261.301 93.5908 259.65L93.9187 195.074C89.4416 212.173 85.822 233.358 83.7285 256.812Z"/><path fill="#1E453E" d="M86.1372 262.209H87.6254L116.266 168.392C116.38 168.014 116.165 167.623 115.8 167.509C115.421 167.396 115.03 167.61 114.917 167.988L86.1498 262.209H86.1372Z"/><path fill="#396C61" d="M91.8504 203.586C90.5766 221.53 88.811 238.301 87.5498 249.271C86.6292 257.291 85.9734 262.209 85.9734 262.209H77.9272C76.9813 257.708 76.1237 253.244 75.3166 248.843C72.3403 232.463 70.2846 216.776 69.0613 202.287C64.3571 146.753 71.7349 109 85.2671 119.05C94.9781 126.262 94.4232 167.295 91.8504 203.599V203.586Z"/><path fill="#1E453E" d="M99.2156 247.506C97.5382 251.214 96.0627 254.379 94.9277 256.812C93.326 260.23 92.3675 262.209 92.3675 262.209H68.8217C68.8217 262.209 68.3803 261.301 67.5984 259.649C67.22 258.868 66.7786 257.922 66.2615 256.825C64.9625 254.076 63.2726 250.394 61.3052 246.043C64.1932 246.876 69.2126 248.137 75.2914 248.843C75.7454 248.893 76.2121 248.944 76.6913 248.994C79.138 249.234 81.7485 249.372 84.4474 249.36C85.469 249.36 86.4905 249.335 87.5373 249.284C91.3586 249.095 95.3186 248.553 99.2156 247.519V247.506Z"/><path fill="#1E453E" d="M81.2566 136.376L80.2982 262.209H78.873L79.8315 136.376C79.8315 135.985 80.1594 135.682 80.5504 135.669C80.9413 135.669 81.2566 135.997 81.2566 136.388V136.376Z"/><path fill="#E05042" d="M121.677 261.238L120.504 264.366L119.76 266.345L117.628 272.007L116.884 273.987L114.69 279.8L113.946 281.78L104.538 306.747H53.1706L43.7624 281.78L43.0183 279.8L40.8239 273.987L40.0798 272.007L37.9485 266.345L37.2044 264.366L36.0315 261.238C35.2244 259.095 36.8008 256.812 39.0961 256.812H118.625C120.907 256.812 122.484 259.095 121.689 261.238H121.677Z"/><path fill="#B11722" d="M120.504 264.365L119.76 266.345H37.9484L37.2043 264.365H120.504Z"/><path fill="#B11722" d="M117.628 272.007L116.884 273.987H40.8364L40.0923 272.007H117.628Z"/><path fill="#B11722" d="M114.69 279.8L113.946 281.78H43.7751L43.031 279.8H114.69Z"/><path fill="#644946" d="M65.1011 323.871L62.2509 333.051L22.5875 460.852H14.844L39.9915 335.662L42.3625 323.871H65.1011Z"/><path fill="#39252B" d="M42.3624 323.871H65.1011L62.2509 333.051L39.9915 335.662L42.3624 323.871Z"/><path fill="#644946" d="M143.104 460.852H135.36L94.524 329.268L92.8467 323.871H115.585L116.153 326.734H116.165L143.104 460.852Z"/><path fill="#39252B" d="M116.153 326.734L94.524 329.268L92.8467 323.871H115.585L116.153 326.734Z"/><path fill="#7F5C55" d="M126.797 378.926H30.7095C28.9821 378.926 27.5818 380.326 27.5818 382.053V383.907C27.5818 385.634 28.9821 387.034 30.7095 387.034H126.797C128.524 387.034 129.925 385.634 129.925 383.907V382.053C129.925 380.326 128.524 378.926 126.797 378.926Z"/><path fill="#EAD5B9" d="M713.128 74.6258C727.105 60.6503 727.105 37.9913 713.128 24.0157C699.15 10.0401 676.488 10.0402 662.511 24.0157C648.533 37.9913 648.533 60.6503 662.511 74.6259C676.488 88.6014 699.15 88.6014 713.128 74.6258Z"/><path fill="#E05042" d="M713.12 69.965C727.097 55.9894 727.097 33.3304 713.12 19.3549C699.142 5.37925 676.48 5.37926 662.503 19.3549C648.525 33.3304 648.525 55.9894 662.503 69.965C676.48 83.9406 699.142 83.9406 713.12 69.965Z"/><path fill="#fff" d="M692.441 73.4013C708.312 70.8454 719.105 55.909 716.549 40.0401C713.993 24.1712 699.054 13.379 683.183 15.9349C667.312 18.4909 656.518 33.4273 659.075 49.2962C661.631 65.1651 676.569 75.9573 692.441 73.4013Z"/><path fill="#EAD5B9" d="M716.918 44.6514C716.918 45.4206 716.893 46.1898 716.83 46.9464C715.657 31.9659 703.083 20.1504 687.823 20.1504C672.563 20.1504 659.989 31.9785 658.817 46.9464C658.754 46.1898 658.728 45.4206 658.728 44.6514C658.728 28.6117 671.781 15.5479 687.836 15.5479C703.89 15.5479 716.943 28.599 716.943 44.6514H716.918Z"/><path fill="#26120C" d="M687.811 47.6777C687.584 47.6777 687.369 47.5768 687.23 47.3877L672.954 28.1702C672.714 27.8424 672.777 27.3884 673.105 27.1488C673.433 26.9093 673.887 26.9723 674.127 27.3002L688.063 46.051L703.89 39.103C704.256 38.9391 704.685 39.103 704.849 39.4813C705.013 39.847 704.849 40.2757 704.47 40.4396L688.113 47.6146C688.012 47.6525 687.924 47.6777 687.823 47.6777H687.811Z"/><path fill="#DBBF9F" d="M788.35 462.731C788.35 467.333 757.364 471.066 719.138 471.066C680.912 471.066 649.926 467.333 649.926 462.731C649.926 458.128 680.912 454.396 719.138 454.396C757.364 454.396 788.35 458.128 788.35 462.731Z"/><path fill="#644946" d="M783.696 226.006L767.541 462.214H670.76L654.604 226.006H783.696Z"/><path fill="#39252B" d="M782.612 241.743L656.181 249.032L655.273 235.779H783.028L782.612 241.743Z"/><path fill="#7F5C55" d="M788.514 221.126H649.787C648.171 221.126 646.861 222.436 646.861 224.052V232.853C646.861 234.469 648.171 235.779 649.787 235.779H788.514C790.13 235.779 791.44 234.469 791.44 232.853V224.052C791.44 222.436 790.13 221.126 788.514 221.126Z"/><path fill="#39252B" d="M769.231 262.688L766.053 318.6H672.235L669.07 262.688H769.231Z"/><path fill="#644946" d="M723.829 292.952C723.829 295.537 721.736 297.63 719.151 297.63C716.565 297.63 714.472 295.537 714.472 292.952C714.472 290.367 716.565 288.274 719.151 288.274C721.736 288.274 723.829 290.367 723.829 292.952Z"/><path fill="#39252B" d="M764.817 331.702L761.916 382.684H676.372L673.484 331.702H764.817Z"/><path fill="#644946" d="M723.829 359.04C723.829 361.625 721.736 363.718 719.151 363.718C716.565 363.718 714.472 361.625 714.472 359.04C714.472 356.455 716.565 354.362 719.151 354.362C721.736 354.362 723.829 356.455 723.829 359.04Z"/><path fill="#39252B" d="M761.008 395.558L758.347 442.29H679.941L677.292 395.558H761.008Z"/><path fill="#644946" d="M723.829 418.924C723.829 421.509 721.736 423.603 719.151 423.603C716.565 423.603 714.472 421.509 714.472 418.924C714.472 416.339 716.565 414.246 719.151 414.246C721.736 414.246 723.829 416.339 723.829 418.924Z"/><path fill="#396C61" d="M760.542 137.977C759.117 145.795 757.477 151.848 757.477 151.848C757.477 151.848 753.555 160.599 750.049 163.184C747.602 164.987 745.37 163.777 744.828 154.471C744.739 152.957 744.689 151.23 744.701 149.275C744.701 149.275 744.147 144.811 743.882 138.67C743.302 125.317 744.084 104.056 754.879 103.666C765.069 103.3 763.152 123.614 760.542 137.964V137.977Z"/><path fill="#1E453E" d="M743.882 138.683C745.446 141.823 748.056 145.253 751.827 144.963C755.737 144.66 758.713 141.028 760.542 137.99C759.117 145.808 757.477 151.86 757.477 151.86C757.477 151.86 753.555 160.612 750.049 163.197C747.905 161.847 746.139 158.695 744.828 154.483L743.882 138.683Z"/><path fill="#1E453E" d="M750.541 161.091C750.213 161.091 749.935 160.839 749.923 160.511C749.317 151.23 752.432 121.155 752.571 119.869C752.609 119.529 752.912 119.276 753.252 119.314C753.593 119.352 753.845 119.655 753.807 119.995C753.769 120.31 750.566 151.255 751.159 160.422C751.184 160.763 750.919 161.066 750.579 161.091H750.541Z"/><path fill="#396C61" d="M753.088 179.072H740.06C740.06 179.072 728.193 178.19 731.901 168.165C735.608 158.153 730.841 155.77 725.116 149.175C719.39 142.58 710.814 128.608 720.348 124.308C729.883 120.008 739.417 130.373 743.251 141.445C744.437 144.862 744.827 148.052 745.244 151.142C745.471 152.806 745.698 154.433 746.076 156.047C746.732 158.897 747.829 161.721 750.049 164.596C750.112 164.672 750.162 164.748 750.225 164.823C756.266 172.452 753.088 179.072 753.088 179.072Z"/><path fill="#1E453E" d="M753.088 179.072H741.712C739.594 168.972 743.264 160.675 746.089 156.047C746.745 158.897 747.842 161.721 750.061 164.596C750.124 164.672 750.175 164.748 750.238 164.823C756.279 172.452 753.101 179.072 753.101 179.072H753.088Z"/><path fill="#1E453E" d="M743.743 178.808C743.402 178.808 743.125 178.543 743.125 178.202C742.507 155.795 727.512 136.388 727.361 136.186C727.146 135.909 727.197 135.518 727.461 135.316C727.726 135.102 728.13 135.152 728.332 135.417C728.483 135.619 743.718 155.341 744.361 178.165C744.361 178.505 744.096 178.795 743.756 178.808H743.743Z"/><path fill="#396C61" d="M783.28 149.174C773.431 157.194 768.336 158.064 769.609 165.731C770.026 168.266 770.379 170.725 770.379 172.919C770.379 177.357 768.891 180.674 763.568 181.203C755.623 181.998 748.952 179.072 748.952 179.072C748.952 179.072 746.581 173.411 746.228 166.727C745.887 160.511 747.287 153.424 753.921 149.174C767.705 140.36 765.158 105.519 783.28 108.798C801.403 112.076 793.13 141.155 783.28 149.174Z"/><path fill="#1E453E" d="M770.379 172.919C770.379 177.357 768.891 180.674 763.568 181.203C755.623 181.998 748.952 179.072 748.952 179.072C748.952 179.072 746.581 173.411 746.228 166.727C749.305 168.644 758.852 173.852 770.391 172.919H770.379Z"/><path fill="#1E453E" d="M756.67 177.647C756.354 177.647 756.09 177.42 756.052 177.093C756.027 176.916 754.084 159.489 765.46 148.91C776.47 138.67 780.808 121.887 780.859 121.723C780.947 121.395 781.288 121.18 781.616 121.269C781.943 121.357 782.158 121.697 782.07 122.025C782.032 122.202 777.605 139.326 766.318 149.817C755.396 159.968 757.275 176.765 757.3 176.941C757.338 177.282 757.099 177.597 756.758 177.635C756.733 177.635 756.708 177.635 756.682 177.635L756.67 177.647Z"/><path fill="#E05042" d="M769.143 221.341L772.334 194.167L772.485 192.893L772.914 189.173L773.065 187.899L773.494 184.28L773.645 183.007L774.541 175.365H729.126L730.022 183.007L730.173 184.28L730.602 187.899L730.74 189.173L731.182 192.893L731.333 194.167L734.511 221.341H769.143Z"/><path fill="#B11722" d="M773.645 183.007L773.494 184.28H730.173L730.021 183.007H773.645Z"/><path fill="#B11722" d="M773.065 187.899L772.913 189.173H730.74L730.602 187.899H773.065Z"/><path fill="#B11722" d="M772.485 192.893L772.333 194.167H731.333L731.182 192.893H772.485Z"/><path fill="#396C61" d="M701.999 177.862L701.671 181.683L701.494 183.637L701.33 185.491L701.103 188.101L700.99 189.324L700.523 194.784L699.993 200.736L699.968 201.014L699.64 204.771L699.489 206.625L699.375 207.823L698.858 213.888L698.203 221.416H677.28L677.129 219.689L676.485 212.375L676.107 207.949L675.994 206.625L675.83 204.771L675.476 200.736L675.464 200.61L675.073 196.209L674.48 189.324L674.442 188.832L674.14 185.491L674.051 184.457L673.988 183.637L673.484 177.862H701.999Z"/><path fill="#1E453E" d="M701.494 183.637L701.33 185.491H674.14L674.051 184.457L673.988 183.637H701.494Z"/><path fill="#1E453E" d="M699.641 204.771L699.489 206.625H675.994L675.83 204.771H699.641Z"/><path fill="#fff" d="M700.99 189.324L700.523 194.784L699.993 200.736H675.477L675.464 200.61L675.073 196.209L674.48 189.324H700.99Z"/><path fill="#398889" d="M703.462 172.301H672.021V177.875H703.462V172.301Z"/><path fill="#396C61" d="M676.246 167.572H699.224C700.258 167.572 701.091 168.405 701.091 169.439V172.301H674.379V169.439C674.379 168.405 675.212 167.572 676.246 167.572Z"/><path fill="#7F5C55" d="M80.0457 71.0186H33.4711L26.6609 24.4504H73.2229L80.0457 71.0186Z"/><path fill="#39252B" d="M26.661 24.4504L20.2039 71.0186H33.4712L26.661 24.4504Z"/><path fill="#DDDAC7" d="M36.3088 67.7022L30.457 27.7668H70.3853L76.2371 67.7022H36.3088Z"/><path fill="#fff" d="M36.8765 67.0338L31.2139 28.4351H69.8305L75.4805 67.0338H36.8765Z"/><path fill="#DBBF9F" d="M66.3496 33.1638L70.6249 62.3052H40.3193L36.0439 33.1638H66.3496Z"/><path fill="#EAD5B9" d="M55.8433 55.4796C60.8433 53.4088 63.2177 47.6774 61.1466 42.6781C59.0755 37.6788 53.3433 35.3047 48.3433 37.3755C43.3433 39.4463 40.969 45.1777 43.04 50.177C45.1111 55.1763 50.8433 57.5504 55.8433 55.4796Z"/><path fill="#1E453E" d="M51.1652 47.1986C51.1652 47.1986 57.307 39.9984 67.4215 40.4902L70.6123 62.3178L51.1526 47.2112L51.1652 47.1986Z"/><path fill="#396C61" d="M37.4565 42.7474C37.4565 42.7474 46.1333 40.982 55.1506 47.7409C64.1679 54.4998 70.625 62.3179 70.625 62.3179H40.3194L37.4565 42.7474Z"/><path fill="#DBBF9F" d="M197.346 90.425H2.9638L0.41626 81.5603H200.259L197.346 90.425Z"/><path fill="#644946" d="M200.436 71.0186H0.365723V81.5604H200.436V71.0186Z"/><path fill="#39252B" d="M10.3416 81.5603L14.6169 90.5007H24.6809L27.5438 81.5603H10.3416Z"/><path fill="#39252B" d="M187.358 81.5603L183.082 90.5007H173.018L170.156 81.5603H187.358Z"/><path fill="#E05042" d="M177.243 59.695H178.719V57.4883L122.698 57.5639C120.844 57.5639 119.154 58.3205 117.943 59.5437C116.733 60.7542 115.976 62.444 115.976 64.2976C115.976 68.0175 118.99 71.0186 122.711 71.0186L178.731 70.943V69.0263H177.243V59.7076V59.695Z"/><path fill="#fff" d="M177.621 59.695V69.0137L126.229 69.0767C123.72 69.0767 121.689 66.9961 121.677 64.4237C121.677 63.1375 122.181 61.9648 123.001 61.1199C123.82 60.275 124.956 59.758 126.217 59.7454L177.621 59.6824V59.695Z"/><path fill="#DBBF9F" d="M177.621 62.053V63.4779L127.553 63.5409C127.162 63.5409 126.847 63.2257 126.847 62.8348C126.847 62.4439 127.162 62.116 127.553 62.116L177.621 62.053Z"/><path fill="#DBBF9F" d="M177.634 65.5586V66.9835L127.566 67.0466C127.175 67.0466 126.86 66.7313 126.86 66.3404C126.86 65.9495 127.175 65.6216 127.566 65.6216L177.634 65.5586Z"/><path fill="#F4AD4B" d="M172.236 46.2529H173.712V44.0461L117.691 44.1218C115.837 44.1218 114.147 44.8784 112.937 46.1015C111.726 47.3121 110.969 49.0018 110.969 50.8555C110.969 54.5754 113.983 57.5765 117.704 57.5765L173.724 57.5008V55.5842H172.236V46.2655V46.2529Z"/><path fill="#fff" d="M172.615 46.2528V55.5715L121.222 55.6346C118.713 55.6346 116.682 53.5539 116.67 50.9815C116.67 49.6953 117.174 48.5226 117.994 47.6778C118.814 46.8329 119.949 46.3159 121.21 46.3033L172.615 46.2402V46.2528Z"/><path fill="#DBBF9F" d="M172.627 48.6108V50.0358L122.559 50.0988C122.168 50.0988 121.853 49.7836 121.853 49.3926C121.853 49.0017 122.168 48.6739 122.559 48.6739L172.627 48.6108Z"/><path fill="#DBBF9F" d="M172.627 52.1165V53.5414L122.559 53.6044C122.168 53.6044 121.853 53.2892 121.853 52.8983C121.853 52.5074 122.168 52.1795 122.559 52.1795L172.627 52.1165Z"/><path fill="#396C61" d="M181.998 32.7856H183.473V30.5789L127.453 30.6545C125.599 30.6545 123.909 31.4111 122.698 32.6343C121.487 33.8448 120.731 35.5345 120.731 37.3882C120.731 41.1081 123.745 44.1092 127.465 44.1092L183.486 44.0336V42.1169H181.998V32.7982V32.7856Z"/><path fill="#fff" d="M182.389 32.7856V42.1042L130.997 42.1673C128.487 42.1673 126.456 40.0867 126.444 37.5143C126.444 36.228 126.948 35.0553 127.768 34.2105C128.588 33.3656 129.723 32.8486 130.984 32.836L182.389 32.7729V32.7856Z"/><path fill="#DBBF9F" d="M182.389 35.1436V36.5685L132.321 36.6315C131.93 36.6315 131.615 36.3163 131.615 35.9254C131.615 35.5345 131.93 35.2066 132.321 35.2066L182.389 35.1436Z"/><path fill="#DBBF9F" d="M182.389 38.6619V40.0868L132.321 40.1498C131.93 40.1498 131.615 39.8346 131.615 39.4437C131.615 39.0528 131.93 38.7249 132.321 38.7249L182.389 38.6619Z"/></g><defs><clipPath id="clip0_8_6854"><rect width="794" height="485" fill="#fff"/></clipPath></defs></svg>