<svg width="593" height="583" viewBox="0 0 593 583" fill="none" xmlns="http://www.w3.org/2000/svg">
<g clip-path="url(#clip0_8_6413)">
<path d="M481.674 297.015H275.984V1.05762H481.674V297.015ZM281.408 291.591H476.25V6.48156H281.408V291.591Z" fill="#EBEBEB"/>
<path d="M379.432 7.9054H374.008V294.303H379.432V7.9054Z" fill="#EBEBEB"/>
<path d="M486.596 12.0276H271.062V19.5804H486.596V12.0276Z" fill="#EBEBEB"/>
<path d="M486.596 20.5161H271.062V28.069H486.596V20.5161Z" fill="#EBEBEB"/>
<path d="M486.596 29.0181H271.062V36.5709H486.596V29.0181Z" fill="#EBEBEB"/>
<path d="M486.596 37.5201H271.062V45.073H486.596V37.5201Z" fill="#EBEBEB"/>
<path d="M486.596 46.0087H271.062V53.5615H486.596V46.0087Z" fill="#EBEBEB"/>
<path d="M486.596 54.5106H271.062V62.0635H486.596V54.5106Z" fill="#EBEBEB"/>
<path d="M486.596 63.0127H271.062V70.5655H486.596V63.0127Z" fill="#EBEBEB"/>
<path d="M486.596 71.5011H271.062V79.0539H486.596V71.5011Z" fill="#EBEBEB"/>
<path d="M486.596 80.0032H271.062V87.556H486.596V80.0032Z" fill="#EBEBEB"/>
<path d="M470.487 10.4954H469.131V157.471H470.487V10.4954Z" fill="#263238"/>
<path d="M472.222 163.776H467.409L468.615 156.861H471.016L472.222 163.776Z" fill="#263238"/>
<path d="M475.368 10.4954H474.012V235.223H475.368V10.4954Z" fill="#263238"/>
<path d="M477.104 240.308H472.29L473.497 233.392H475.897L477.104 240.308Z" fill="#263238"/>
<path d="M495.003 0H262.641V15.7972H495.003V0Z" fill="#DBDBDB"/>
<path d="M171.885 184.78H169.851V183.424H170.529V182.746H171.885V184.78Z" fill="#EBEBEB"/>
<path d="M167.112 184.78H164.373V183.424H167.112V184.78ZM161.62 184.78H158.881V183.424H161.62V184.78ZM156.128 184.78H153.389V183.424H156.128V184.78ZM150.636 184.78H147.897V183.424H150.636V184.78ZM145.145 184.78H142.406V183.424H145.145V184.78ZM139.653 184.78H136.914V183.424H139.653V184.78ZM134.161 184.78H131.422V183.424H134.161V184.78ZM128.669 184.78H125.93V183.424H128.669V184.78ZM123.178 184.78H120.439V183.424H123.178V184.78ZM117.686 184.78H114.947V183.424H117.686V184.78ZM112.194 184.78H109.455V183.424H112.194V184.78ZM106.703 184.78H103.963V183.424H106.703V184.78ZM101.211 184.78H98.4717V183.424H101.211V184.78Z" fill="#EBEBEB"/>
<path d="M95.7598 184.78H93.7258V182.746H95.0818V183.424H95.7598V184.78Z" fill="#EBEBEB"/>
<path d="M95.0818 180.007H93.7258V177.268H95.0818V180.007ZM95.0818 174.515H93.7258V171.776H95.0818V174.515ZM95.0818 169.024H93.7258V166.285H95.0818V169.024ZM95.0818 163.532H93.7258V160.793H95.0818V163.532ZM95.0818 158.04H93.7258V155.301H95.0818V158.04ZM95.0818 152.549H93.7258V149.809H95.0818V152.549ZM95.0818 147.057H93.7258V144.318H95.0818V147.057ZM95.0818 141.565H93.7258V138.826H95.0818V141.565ZM95.0818 136.073H93.7258V133.334H95.0818V136.073ZM95.0818 130.582H93.7258V127.842H95.0818V130.582ZM95.0818 125.09H93.7258V122.351H95.0818V125.09ZM95.0818 119.598H93.7258V116.859H95.0818V119.598ZM95.0818 114.106H93.7258V111.367H95.0818V114.106Z" fill="#EBEBEB"/>
<path d="M95.0818 108.669H93.7258V106.635H95.7598V107.991H95.0818V108.669Z" fill="#EBEBEB"/>
<path d="M167.112 107.991H164.373V106.635H167.112V107.991ZM161.62 107.991H158.881V106.635H161.62V107.991ZM156.128 107.991H153.389V106.635H156.128V107.991ZM150.636 107.991H147.897V106.635H150.636V107.991ZM145.145 107.991H142.406V106.635H145.145V107.991ZM139.653 107.991H136.914V106.635H139.653V107.991ZM134.161 107.991H131.422V106.635H134.161V107.991ZM128.669 107.991H125.93V106.635H128.669V107.991ZM123.178 107.991H120.439V106.635H123.178V107.991ZM117.686 107.991H114.947V106.635H117.686V107.991ZM112.194 107.991H109.455V106.635H112.194V107.991ZM106.703 107.991H103.963V106.635H106.703V107.991ZM101.211 107.991H98.4717V106.635H101.211V107.991Z" fill="#EBEBEB"/>
<path d="M171.885 108.669H170.529V107.991H169.851V106.635H171.885V108.669Z" fill="#EBEBEB"/>
<path d="M171.885 180.007H170.529V177.268H171.885V180.007ZM171.885 174.515H170.529V171.776H171.885V174.515ZM171.885 169.024H170.529V166.285H171.885V169.024ZM171.885 163.532H170.529V160.793H171.885V163.532ZM171.885 158.04H170.529V155.301H171.885V158.04ZM171.885 152.549H170.529V149.809H171.885V152.549ZM171.885 147.057H170.529V144.318H171.885V147.057ZM171.885 141.565H170.529V138.826H171.885V141.565ZM171.885 136.073H170.529V133.334H171.885V136.073ZM171.885 130.582H170.529V127.842H171.885V130.582ZM171.885 125.09H170.529V122.351H171.885V125.09ZM171.885 119.598H170.529V116.859H171.885V119.598ZM171.885 114.106H170.529V111.367H171.885V114.106Z" fill="#EBEBEB"/>
<path d="M99.2041 179.316H89.6309V188.889H99.2041V179.316Z" fill="white"/>
<path d="M99.8685 189.567H88.9392V178.638H99.8685V189.567ZM90.2952 188.211H98.5125V179.994H90.2952V188.211Z" fill="#EBEBEB"/>
<path d="M99.2041 140.914H89.6309V150.487H99.2041V140.914Z" fill="white"/>
<path d="M99.8685 151.165H88.9392V140.236H99.8685V151.165ZM90.2952 149.809H98.5125V141.592H90.2952V149.809Z" fill="#EBEBEB"/>
<path d="M99.2041 102.526H89.6309V112.099H99.2041V102.526Z" fill="white"/>
<path d="M99.8685 112.764H88.9392V101.835H99.8685V112.764ZM90.2952 111.408H98.5125V103.191H90.2952V111.408Z" fill="#EBEBEB"/>
<path d="M175.993 179.316H166.42V188.889H175.993V179.316Z" fill="white"/>
<path d="M176.671 189.567H165.742V178.638H176.671V189.567ZM167.098 188.211H175.315V179.994H167.098V188.211Z" fill="#EBEBEB"/>
<path d="M175.993 140.914H166.42V150.487H175.993V140.914Z" fill="white"/>
<path d="M176.671 151.165H165.742V140.236H176.671V151.165ZM167.098 149.809H175.315V141.592H167.098V149.809Z" fill="#EBEBEB"/>
<path d="M175.993 102.526H166.42V112.099H175.993V102.526Z" fill="white"/>
<path d="M176.671 112.764H165.742V101.835H176.671V112.764ZM167.098 111.408H175.315V103.191H167.098V111.408Z" fill="#EBEBEB"/>
<path d="M137.592 102.526H128.019V112.099H137.592V102.526Z" fill="white"/>
<path d="M138.27 112.764H127.341V101.835H138.27V112.764ZM128.697 111.408H136.914V103.191H128.697V111.408Z" fill="#EBEBEB"/>
<path d="M137.592 179.316H128.019V188.889H137.592V179.316Z" fill="white"/>
<path d="M138.27 189.567H127.341V178.638H138.27V189.567ZM128.697 188.211H136.914V179.994H128.697V188.211Z" fill="#EBEBEB"/>
<path d="M133.741 154.84H118.418L112.466 171.559H118.269V173.024H106.431V171.559H110.065L129.795 118.391H136.141L155.64 171.559H159.206V173.024H133.904V171.559H139.395L133.741 154.84ZM119.11 153.132H133.117L126.378 132.86L119.11 153.132Z" fill="#DBDBDB"/>
<path d="M548.93 206.557C548.93 206.557 548.659 221.636 539.004 238.748H525.404C515.749 221.636 515.478 206.557 515.478 206.557C529.445 198.747 529.811 181.255 529.811 181.255H531.221V208.944C529.323 209.391 527.94 211.073 527.94 213.107C527.94 215.466 529.852 217.365 532.197 217.365C534.543 217.365 536.469 215.453 536.469 213.107C536.469 211.059 535.072 209.391 533.187 208.944V181.255H534.597C534.597 181.255 534.964 198.747 548.93 206.557Z" fill="#EBEBEB"/>
<path d="M542.259 237.094H522.149V245.555H542.259V237.094Z" fill="#C7C7C7"/>
<path d="M578.884 226.518H577.528C577.528 201.527 557.202 181.2 532.211 181.2C507.22 181.2 486.894 201.527 486.894 226.518H485.538C485.538 200.781 506.474 179.844 532.211 179.844C557.948 179.844 578.884 200.781 578.884 226.518Z" fill="#EBEBEB"/>
<path d="M578.206 179.275H485.158V180.631H578.206V179.275Z" fill="#EBEBEB"/>
<path d="M490.989 221.731H481.416V231.304H490.989V221.731Z" fill="white"/>
<path d="M491.667 231.982H480.738V221.053H491.667V231.982ZM482.094 230.626H490.311V222.409H482.094V230.626Z" fill="#EBEBEB"/>
<path d="M490.989 175.18H481.416V184.753H490.989V175.18Z" fill="white"/>
<path d="M491.667 185.418H480.738V174.488H491.667V185.418ZM482.094 184.062H490.311V175.844H482.094V184.062Z" fill="#EBEBEB"/>
<path d="M582.993 221.731H573.419V231.304H582.993V221.731Z" fill="white"/>
<path d="M583.671 231.982H572.741V221.053H583.671V231.982ZM574.097 230.626H582.315V222.409H574.097V230.626Z" fill="#EBEBEB"/>
<path d="M582.993 175.18H573.419V184.753H582.993V175.18Z" fill="white"/>
<path d="M583.671 185.418H572.741V174.488H583.671V185.418ZM574.097 184.062H582.315V175.844H574.097V184.062Z" fill="#EBEBEB"/>
<path d="M55.9344 315.836H20.0278V331.01H55.9344V315.836Z" fill="#EBEBEB"/>
<path d="M35.9065 334.969H0V350.143H35.9065V334.969Z" fill="#EBEBEB"/>
<path d="M593 334.969H557.094V350.143H593V334.969Z" fill="#EBEBEB"/>
<path d="M572.972 38.7269H537.065V53.9004H572.972V38.7269Z" fill="#EBEBEB"/>
<path d="M593 57.8599H557.094V73.0334H593V57.8599Z" fill="#EBEBEB"/>
<path d="M55.9344 38.7269H20.0278V53.9004H55.9344V38.7269Z" fill="#EBEBEB"/>
<path d="M488.291 429.509C488.291 429.509 511.248 424.302 523.831 412.708C536.415 401.114 543.439 380.354 543.439 380.354C543.439 380.354 529.933 382.836 517.702 387.121C515.655 389.317 511.736 393.846 509.919 398.131C509.919 398.131 509.539 393.602 509.865 390.253C506.597 391.758 503.749 393.426 501.688 395.216C491.26 404.342 488.304 429.509 488.304 429.509H488.291Z" fill="#DBDBDB"/>
<path d="M529.106 390.456C532.238 388.287 535.425 386.199 538.53 384.015C538.72 383.88 538.53 383.595 538.34 383.704C532.428 387.243 526.597 391.012 520.956 394.972C518.99 396.355 517.065 397.792 515.153 399.243C515.288 399.013 515.424 398.796 515.56 398.565C516.251 397.413 516.97 396.287 517.702 395.148C519.167 392.884 520.753 390.646 522.57 388.639C522.638 388.572 522.529 388.45 522.462 388.531C520.672 390.592 518.895 392.626 517.255 394.823C516.482 395.867 515.763 396.938 515.071 398.036C514.719 398.606 514.366 399.189 514.041 399.772C513.932 399.962 513.81 400.165 513.702 400.369C510.732 402.701 507.844 405.128 505.091 407.705C503.396 409.291 501.742 410.932 500.156 412.627C501.037 409.847 501.823 407.04 502.854 404.301C502.895 404.206 502.732 404.165 502.705 404.26C501.701 407.135 500.617 410.01 499.844 412.966C498.081 414.864 496.4 416.83 494.813 418.878C494.84 418.756 494.867 418.62 494.894 418.498C495.152 417.413 495.423 416.342 495.722 415.257C496.277 413.183 496.888 411.122 497.593 409.088C499.03 404.911 500.888 400.83 503.763 397.44C503.83 397.358 503.708 397.25 503.654 397.331C499.166 402.633 496.535 409.006 494.867 415.691C494.623 416.668 494.393 417.644 494.162 418.634C494.04 419.149 493.904 419.691 493.823 420.22C493.132 421.156 492.454 422.105 491.803 423.081C487.816 429.007 484.711 435.489 482.094 442.133C479.138 449.604 476.846 457.32 474.731 465.063C474.69 465.212 474.921 465.266 474.961 465.117C479.45 451.679 484.033 438.065 491.721 426.051C493.349 423.515 495.098 421.075 496.969 418.715C500.739 418.498 504.563 417.685 508.129 416.491C512.088 415.176 515.817 413.345 519.316 411.095C521.336 409.793 523.18 408.274 525.052 406.769C525.133 406.701 525.052 406.579 524.957 406.647C521.851 409.277 518.122 411.325 514.434 413.006C510.732 414.701 506.841 416.03 502.854 416.898C501.159 417.264 499.437 417.535 497.715 417.78C499.83 415.162 502.095 412.667 504.481 410.281C505.254 409.508 506.054 408.762 506.854 408.016C509.485 406.091 512.414 404.572 515.343 403.162C519.099 401.345 522.801 399.419 526.53 397.521C528.631 396.45 530.72 395.365 532.835 394.321C532.93 394.28 532.835 394.145 532.754 394.185C528.984 396.002 525.146 397.711 521.336 399.46C517.756 401.101 514.122 402.755 510.692 404.681C510.542 404.762 510.407 404.857 510.258 404.938C513.363 402.226 516.59 399.65 519.872 397.168C522.909 394.863 526.001 392.626 529.133 390.456H529.106Z" fill="#A6A6A6"/>
<path d="M527.804 402.281C525.933 403.094 524.035 403.826 522.19 404.681C520.292 405.576 518.489 406.606 516.685 407.677C516.604 407.718 516.685 407.84 516.753 407.799C518.584 406.918 520.441 406.105 522.245 405.196C524.102 404.26 525.933 403.27 527.845 402.43C527.94 402.389 527.886 402.24 527.804 402.281Z" fill="#A6A6A6"/>
<path d="M413.725 313.843C413.725 313.843 420.166 321.22 420.586 332.908C420.668 334.969 420.342 337.83 420.098 341.207C428.655 345.777 435.082 354.007 435.082 354.007C430.214 351.092 423.542 349.912 419.949 350.387C420.071 352.611 420.329 354.916 420.83 357.248C422.417 357.153 425.495 357.37 430.566 359.174C430.566 359.174 425.59 359.052 421.793 360.923C425.888 373.94 438.052 387.31 471.626 392.992C471.626 392.992 478.107 370.184 465.673 345.736C455.612 325.938 413.739 313.857 413.739 313.857L413.725 313.843Z" fill="#DBDBDB"/>
<path d="M483.233 448.682C482.65 443.123 481.918 437.577 481.063 432.044C479.341 420.993 477.118 409.996 474.297 399.175C472.968 394.063 471.368 389.073 469.443 384.192C469.565 383.31 469.551 382.388 469.565 381.507C469.592 380.435 469.592 379.351 469.578 378.279C469.551 376.123 469.456 373.981 469.266 371.838C468.9 367.608 468.263 363.364 467.205 359.241C466.595 356.855 465.876 354.495 465.171 352.122C465.144 352.028 464.995 352.068 465.022 352.163C466.215 356.258 466.893 360.516 467.504 364.733C468.1 368.91 468.48 373.127 468.629 377.344C468.67 378.496 468.697 379.649 468.697 380.802C468.697 381.29 468.67 381.791 468.656 382.28C467.002 378.279 465.144 374.374 463.002 370.564C459.612 364.543 455.72 358.835 451.503 353.37C451.544 352.746 451.354 352.095 451.232 351.485C451.069 350.739 450.906 349.98 450.744 349.234C450.405 347.702 450.011 346.17 449.605 344.651C448.764 341.614 447.666 338.671 446.716 335.661C446.689 335.566 446.54 335.607 446.567 335.701C447.449 338.671 448.045 341.763 448.723 344.787C449.062 346.278 449.388 347.783 449.713 349.288C449.876 350.034 450.039 350.794 450.188 351.539C450.188 351.594 450.201 351.648 450.215 351.702C448.859 349.994 447.476 348.299 446.052 346.644C439.638 339.119 432.601 332.189 425.536 325.301C424.668 324.46 423.773 323.633 422.892 322.792C422.824 322.725 422.715 322.833 422.783 322.901C429.55 329.952 436.207 337.098 442.513 344.57C444.018 346.346 445.482 348.136 446.933 349.966C446.174 349.451 445.401 348.949 444.642 348.448C442.689 347.173 440.709 345.926 438.675 344.787C436.641 343.648 434.58 342.536 432.492 341.492C430.336 340.42 428.031 339.552 425.956 338.346C425.861 338.291 425.793 338.441 425.875 338.481C428.017 339.363 430.024 340.705 432.004 341.871C434.051 343.078 436.085 344.298 438.092 345.573C440.072 346.821 442.052 348.054 444.004 349.329C445.645 350.387 447.245 351.553 448.94 352.529C452.818 357.546 456.452 362.74 459.707 368.191C461.754 371.622 463.598 375.147 465.266 378.74C464.859 378.564 464.453 378.388 464.059 378.212C463.029 377.751 462.012 377.303 460.981 376.842C459.002 375.961 457.022 375.106 455.042 374.252C451.272 372.611 447.449 371.106 443.76 369.316C441.686 368.313 439.652 367.242 437.726 365.967C437.645 365.913 437.563 366.048 437.645 366.103C444.533 370.849 452.249 374.198 459.869 377.561L463.178 379.025C464.087 379.432 464.995 379.879 465.931 380.232C468.182 385.263 470.08 390.456 471.612 395.799C474.677 406.47 476.996 417.359 478.921 428.288C480.847 439.258 482.148 450.296 483.152 461.388C483.274 462.771 483.396 464.154 483.558 465.537C483.626 466.093 484.44 466.093 484.44 465.51C484.372 459.883 483.803 454.242 483.219 448.642L483.233 448.682Z" fill="#A6A6A6"/>
<path d="M462.798 355.933C462.188 352.516 461.28 349.18 460.357 345.844C460.33 345.749 460.181 345.79 460.208 345.885C461.063 349.166 461.659 352.516 462.283 355.838C462.907 359.228 463.463 362.645 463.951 366.062C463.951 366.116 464.046 366.116 464.046 366.062C463.829 362.659 463.408 359.296 462.812 355.933H462.798Z" fill="#A6A6A6"/>
<path d="M448.33 365.194C446.052 363.58 443.503 362.36 441.021 361.085C439.801 360.448 438.553 359.851 437.319 359.255C436.045 358.631 434.716 358.116 433.441 357.478C433.346 357.438 433.278 357.573 433.36 357.614C434.594 358.224 435.746 358.97 436.953 359.634C438.201 360.312 439.435 361.004 440.682 361.668C443.136 362.984 445.55 364.448 448.126 365.519C448.357 365.614 448.506 365.33 448.303 365.194H448.33Z" fill="#A6A6A6"/>
<path opacity="0.1" d="M488.711 389.751C488.711 389.751 509.946 384.68 519.709 370.428C529.025 356.828 532.035 333.627 532.265 331.579C531.886 333.451 527.506 353.723 513.038 363.16C501.973 370.401 491.274 376.34 488.711 389.738V389.751Z" fill="#A6A6A6"/>
<path d="M508.319 353.058C504.576 356.652 501.783 360.896 500.495 365.954C500.495 365.994 500.549 366.021 500.562 365.981C502.162 361.262 504.793 356.611 508.427 353.18C508.495 353.112 508.4 352.99 508.319 353.058Z" fill="#A6A6A6"/>
<path d="M488.711 389.751C488.711 389.751 509.946 384.68 519.709 370.428C529.025 356.828 532.035 333.627 532.266 331.579C532.279 331.484 532.293 331.43 532.293 331.43C532.293 331.43 522.109 345.912 511.397 349.6C500.685 353.289 485.647 366.062 488.711 389.738V389.751Z" fill="#DBDBDB"/>
<path d="M528.523 339.43C526.557 343.295 524.482 347.132 521.96 350.658C519.492 354.102 516.522 357.018 513.227 359.648C510.339 361.94 507.288 364.015 504.373 366.265C504.4 366.225 504.414 366.198 504.441 366.157C504.983 365.343 505.58 364.557 506.176 363.784C507.397 362.225 508.726 360.76 510.054 359.309C512.699 356.448 515.383 353.641 517.756 350.536C519.072 348.814 520.224 346.997 521.16 345.044C521.201 344.949 521.051 344.909 521.011 344.99C517.567 352.163 510.692 356.76 505.769 362.821C505.064 363.689 504.414 364.57 503.803 365.506C503.383 366.157 502.854 366.889 502.583 367.662C499.912 369.845 497.444 372.232 495.342 374.984C495.518 373.588 495.817 372.205 496.196 370.862C496.725 368.964 497.417 367.174 498.447 365.479C498.501 365.398 498.366 365.303 498.312 365.398C497.322 367.079 496.413 368.883 495.83 370.74C495.356 372.259 495.139 373.778 495.057 375.323C494 376.761 493.05 378.266 492.183 379.798C492.277 379.351 492.359 378.89 492.44 378.442C492.86 376.327 493.322 374.212 493.877 372.123C494.989 367.893 496.495 363.784 498.99 360.163C499.044 360.082 498.922 360.001 498.854 360.082C496.4 363.662 494.528 367.662 493.199 371.784C492.521 373.873 491.979 375.988 491.505 378.13C491.274 379.174 491.057 380.219 490.867 381.276C490.759 381.819 490.65 382.375 490.555 382.931C488.386 387.514 486.853 392.436 485.66 397.331C483.491 406.131 482.148 415.189 481.131 424.193C480.074 433.644 479.518 443.204 479.667 452.71C479.68 453.903 479.762 455.096 479.829 456.289C479.843 456.601 480.304 456.642 480.318 456.317C480.521 451.598 480.643 446.892 480.928 442.174C481.213 437.455 481.619 432.763 482.121 428.058C483.111 418.851 484.535 409.643 486.542 400.599C488.264 392.829 490.501 385.019 494.745 378.212C496.874 374.795 499.423 371.784 502.407 369.099C505.39 366.428 508.644 364.082 511.777 361.614C514.895 359.147 517.906 356.475 520.373 353.343C523.045 349.966 525.147 346.183 527.126 342.387C527.628 341.424 528.143 340.461 528.645 339.512C528.686 339.417 528.564 339.336 528.509 339.43H528.523Z" fill="#A6A6A6"/>
<path d="M524.862 342.549C523.506 345.424 521.865 348.163 520.129 350.821C520.089 350.889 520.184 350.943 520.224 350.889C522.068 348.285 523.614 345.478 525.011 342.603C525.052 342.509 524.902 342.468 524.862 342.549Z" fill="#A6A6A6"/>
<path d="M410.769 380.354C410.769 380.354 410.43 410.539 428.478 419.258C446.526 427.976 456.208 420.708 468.466 423.637C468.466 423.637 468.466 423.637 468.439 423.624C467.965 422.905 459.205 410.322 445.292 406.864C430.973 403.298 415.108 392.951 410.769 380.368V380.354Z" fill="#DBDBDB"/>
<path opacity="0.1" d="M410.769 380.354C410.769 380.354 410.43 410.539 428.478 419.258C446.526 427.976 456.208 420.708 468.466 423.637C468.466 423.637 468.466 423.637 468.439 423.624C467.924 423.38 458.974 418.891 447.923 417.576C436.546 416.207 414.796 408.789 410.769 380.368V380.354Z" fill="#A6A6A6"/>
<path d="M469.646 424.166C467.49 422.227 465.09 420.559 462.473 419.312C462.093 419.122 461.686 418.973 461.293 418.81C461.103 418.566 460.9 418.336 460.683 418.119C460.141 417.549 459.571 417.02 458.988 416.505C457.849 415.529 456.642 414.647 455.354 413.888C452.357 412.125 449.089 410.905 446.025 409.264C445.93 409.223 445.862 409.359 445.943 409.4C447.449 410.186 448.913 411.054 450.391 411.908C451.815 412.749 453.279 413.535 454.676 414.444C455.923 415.244 457.13 416.139 458.242 417.115C458.554 417.386 458.866 417.698 459.164 417.997C457.171 417.319 455.123 416.79 453.062 416.383C449.754 415.718 446.418 415.244 443.123 414.539C441.496 414.2 439.909 413.766 438.336 413.251C436.845 412.044 435.34 410.85 433.929 409.535C432.221 407.962 430.648 406.24 429.265 404.355C429.211 404.274 429.075 404.355 429.129 404.437C431.353 407.311 433.74 410.213 436.533 412.6C435.76 412.301 434.987 411.99 434.228 411.637C428.099 408.857 422.634 404.423 418.851 398.836C418.797 398.755 418.661 398.836 418.715 398.918C422.024 403.704 426.214 407.799 431.163 410.864C433.645 412.396 436.262 413.657 439.028 414.579C442.214 415.637 445.509 416.274 448.791 416.885C452.018 417.481 455.245 418.105 458.351 419.163C461.225 420.139 463.937 421.563 466.378 423.38C471.029 426.865 474.623 431.624 477.199 436.79C480.616 443.638 482.243 451.3 483.152 458.866C483.192 459.191 483.694 459.191 483.667 458.866C482.813 446.174 479.423 432.98 469.646 424.166Z" fill="#A6A6A6"/>
<path d="M448.71 414.322C447.815 412.884 446.459 411.8 444.994 410.959C443.286 409.969 441.767 408.911 440.587 407.311C440.533 407.23 440.398 407.311 440.452 407.393C441.537 408.789 442.852 409.942 444.343 410.878C445.916 411.867 447.503 412.83 448.588 414.39C448.642 414.457 448.75 414.39 448.696 414.322H448.71Z" fill="#A6A6A6"/>
<path d="M458.283 446.445L459.11 463.042L461.618 513.756H499.478L502 463.042L502.827 446.445H458.283Z" fill="#EBEBEB"/>
<path d="M458.283 446.445L459.11 463.042H502L502.827 446.445H458.283Z" fill="#DBDBDB"/>
<path d="M455.639 455.354H505.485V439.516H455.639V455.354Z" fill="#EBEBEB"/>
<path d="M57.9956 514.271L120.127 513.933L182.258 513.824L306.507 513.594L430.77 513.81L492.901 513.933L555.019 514.271L492.901 514.597L430.77 514.719L306.507 514.949L182.258 514.719L120.127 514.597L57.9956 514.271Z" fill="#263238"/>
<path d="M84.2474 573.772C117.408 573.772 144.291 568.612 144.291 562.246C144.291 555.881 117.408 550.72 84.2474 550.72C51.0865 550.72 24.2043 555.881 24.2043 562.246C24.2043 568.612 51.0865 573.772 84.2474 573.772Z" fill="#EBEBEB"/>
<path d="M306.507 582.667C426.667 582.667 524.075 573.118 524.075 561.338C524.075 549.558 426.667 540.008 306.507 540.008C186.348 540.008 88.9392 549.558 88.9392 561.338C88.9392 573.118 186.348 582.667 306.507 582.667Z" fill="#EBEBEB"/>
<path d="M289.774 383.649L293.286 404.681L317.043 532.97H320.867L303.592 404.681L301.042 383.649H289.774Z" fill="#C7C7C7"/>
<path d="M301.042 383.649H289.774L293.286 404.681H303.592L301.042 383.649Z" fill="#A6A6A6"/>
<path d="M215.181 532.97H219.005L242.762 404.681L246.274 383.649H235.006L232.457 404.681L215.181 532.97Z" fill="#C7C7C7"/>
<path d="M235.006 383.649L232.457 404.681H242.762L246.274 383.649H235.006Z" fill="#A6A6A6"/>
<path d="M143.924 532.97H147.762L171.505 404.681L175.017 383.649H163.749L161.2 404.681L143.924 532.97Z" fill="#C7C7C7"/>
<path d="M161.199 404.681H171.505L175.017 383.649H163.749L161.199 404.681Z" fill="#A6A6A6"/>
<path d="M149.999 393.534H324.067V375.188H258.912L237.013 220.646H156.63L149.999 393.534Z" fill="#C7C7C7"/>
<path d="M160.142 375.188H324.067V393.534H159.491L160.142 375.188Z" fill="#DBDBDB"/>
<path d="M149.999 393.534H159.491L165.674 220.646H156.63L149.999 393.534Z" fill="#DBDBDB"/>
<path d="M315.131 557.405C311.741 557.731 219.575 535.777 216.673 532.781C216.321 532.455 218.124 524.075 220.795 512.644L220.85 512.414C222.517 505.173 249.352 446.594 249.352 446.594L309.097 463.246L281.964 517.594C281.964 517.594 293.205 525.716 302.846 533.418C302.846 533.432 302.873 533.432 302.86 533.445C308.812 538.178 313.952 542.435 315.036 543.805C317.857 547.398 318.521 557.08 315.131 557.378V557.405Z" fill="#AD6359"/>
<path d="M315.131 557.405C311.755 557.731 219.588 535.777 216.673 532.794C216.321 532.455 218.138 524.089 220.795 512.658L220.85 512.441C221.46 509.742 225.596 499.898 230.518 488.616C240.349 491.26 275.591 500.779 288.391 504.739L281.964 517.621C281.964 517.621 293.205 525.743 302.846 533.445C302.846 533.445 302.846 533.445 302.846 533.472C308.799 538.205 313.938 542.462 315.023 543.832C317.843 547.439 318.508 557.121 315.118 557.405H315.131Z" fill="#EBEBEB"/>
<path d="M315.43 557.839C311.945 558.138 219.711 535.94 216.727 532.862C215.588 531.71 217.636 517.146 222.68 501.729L282.127 516.116C282.127 516.116 312.487 540.144 315.402 543.859C318.291 547.575 318.914 557.528 315.43 557.826V557.839Z" fill="#FFC727"/>
<path d="M314.996 553.839C299.632 549.744 237.243 534.639 221.744 531.764C221.622 531.737 221.595 531.832 221.717 531.859C236.864 536.252 299.361 550.843 314.928 554.097C315.253 554.165 315.307 553.934 314.982 553.839H314.996Z" fill="#263238"/>
<path d="M310.263 539.127C306.629 538.096 302.629 538.978 300.107 540.673C297.68 542.313 295.334 544.863 294.669 548.09C294.656 548.185 294.818 548.226 294.859 548.131C297.205 542.286 303.985 538.3 310.222 539.303C310.344 539.317 310.399 539.14 310.263 539.113V539.127Z" fill="#263238"/>
<path d="M286.615 518.841C280.445 517.268 272.743 517.716 267.685 521.852C267.495 522.014 267.726 522.286 267.929 522.231C274.221 520.699 280.052 519.831 286.547 519.614C287.008 519.601 287.062 518.936 286.628 518.828L286.615 518.841Z" fill="#263238"/>
<path d="M290.94 521.852C284.771 520.279 277.069 520.726 272.011 524.862C271.821 525.025 272.052 525.296 272.255 525.242C278.547 523.709 284.377 522.841 290.873 522.625C291.334 522.611 291.388 521.947 290.954 521.838L290.94 521.852Z" fill="#263238"/>
<path d="M295.266 524.876C289.096 523.303 281.394 523.75 276.336 527.886C276.146 528.049 276.377 528.32 276.58 528.265C282.872 526.733 288.703 525.865 295.198 525.648C295.659 525.635 295.713 524.97 295.279 524.862L295.266 524.876Z" fill="#263238"/>
<path d="M299.592 527.886C293.422 526.313 285.72 526.774 280.662 530.896C280.472 531.059 280.703 531.33 280.906 531.276C287.198 529.743 293.029 528.875 299.524 528.659C299.985 528.645 300.039 527.981 299.605 527.872L299.592 527.886Z" fill="#263238"/>
<path d="M229.216 518.014C222.273 516.36 219.683 527.154 226.653 528.808C233.596 530.462 236.186 519.668 229.216 518.014Z" fill="#263238"/>
<path d="M297.273 503.939C294.764 500.59 290.208 502.176 287.632 504.414C283.455 508.034 279.835 513.634 278.194 518.882C278.153 519.018 278.235 519.085 278.343 519.099C278.37 519.574 278.804 520.075 279.333 519.872C284.472 517.879 290.208 516.401 294.588 512.889C297.137 510.841 299.632 507.112 297.259 503.939H297.273ZM286.52 515.262C284.011 516.306 281.475 517.214 279.008 518.34C280.852 515.519 282.574 512.645 284.703 510.014C285.72 508.753 286.791 507.492 287.971 506.38C289.801 504.658 297.124 500.956 296.12 507.831C295.564 511.628 289.503 514.028 286.52 515.262Z" fill="#263238"/>
<path d="M262.275 517.472C267.468 519.601 273.394 519.397 278.886 519.858C279.455 519.899 279.726 519.302 279.618 518.841C279.713 518.801 279.78 518.692 279.699 518.584C276.648 514.014 271.59 509.661 266.56 507.37C263.454 505.96 258.627 505.729 257.176 509.648C255.793 513.363 259.251 516.238 262.275 517.472ZM259.386 513.051C256.471 506.732 264.553 508.224 266.79 509.363C268.241 510.095 269.624 511.004 270.953 511.926C273.746 513.851 276.201 516.129 278.764 518.313C276.079 517.919 273.38 517.77 270.695 517.485C267.482 517.146 260.987 516.55 259.386 513.065V513.051Z" fill="#263238"/>
<path d="M287.239 510.529L223.806 493.552C223.806 493.552 279.55 377.941 275.048 371.581C272.797 368.394 213.351 365.723 194.91 349.112C170.963 327.539 188.387 296.175 188.387 296.175H254.871C254.871 296.175 253.651 310.046 256.187 312.216C257.854 313.667 336.8 322.671 344.705 349.641C354.387 382.714 287.252 510.529 287.252 510.529H287.239Z" fill="#37474F"/>
<path d="M288.351 501.227C286.696 500.386 284.879 499.857 283.144 499.261C281.299 498.623 279.455 497.986 277.611 497.376C273.964 496.183 270.302 495.044 266.628 493.972C259.21 491.83 251.78 489.728 244.295 487.789C240.403 486.772 232.05 484.575 231.535 484.643C231.291 484.684 231.223 485.091 231.453 485.172C238.667 487.803 246.003 490.053 253.339 492.332C260.661 494.61 267.997 496.847 275.414 498.772C277.476 499.301 279.537 499.776 281.598 500.278C283.754 500.806 285.937 501.512 288.161 501.715C288.378 501.729 288.581 501.322 288.351 501.213V501.227Z" fill="#263238"/>
<path d="M286.574 366.415C285.272 365.235 283.266 365.031 281.611 364.706C272.065 362.821 262.533 360.909 252.986 359.024C244.064 357.262 235.074 355.648 226.206 353.655C218.856 352.014 211.385 349.858 205.106 345.654C198.815 341.451 194.57 335.281 192.55 328.162C190.53 321.043 190.597 313.463 191.506 306.195C191.736 304.419 192.116 302.642 192.496 300.893C192.523 300.758 192.306 300.703 192.279 300.839C189.445 314.385 188.753 330.196 198.638 341.356C203.452 346.793 210.191 350.102 217.107 352.326C224.904 354.834 233.094 356.15 241.121 357.736C250.668 359.621 260.2 361.519 269.746 363.391C274.343 364.299 279.008 365.031 283.55 366.13C284.418 366.333 285.408 366.632 286.018 367.31C286.859 368.245 286.588 369.547 286.33 370.645C285.801 372.896 285.123 375.106 284.405 377.303C278.642 395.026 238.193 479.002 237.094 480.928C236.972 481.131 237.298 481.307 237.42 481.104C246.681 465.673 276.825 400.857 283.143 384.11C284.757 379.839 286.249 375.5 287.306 371.052C287.686 369.452 287.93 367.648 286.561 366.401L286.574 366.415Z" fill="#263238"/>
<path d="M307.28 469.822L265.299 402.294C272.038 386.036 276.431 373.561 275.035 371.595C273.936 370.049 259.346 368.611 242.518 365.642L199.33 296.175H254.858C254.858 296.175 253.651 310.046 256.173 312.216C257.841 313.667 336.786 322.671 344.692 349.641C350.821 370.564 326.196 429.4 307.28 469.822Z" fill="#263238"/>
<path d="M410.023 564.253C406.769 565.243 312.08 562.084 308.636 559.724C308.216 559.467 308.324 550.897 308.663 539.181V538.95C308.853 531.52 308.46 467.992 308.46 467.992L367.744 469.266L369.588 531.872C369.588 531.872 382.226 537.581 393.209 543.222C393.209 543.235 393.236 543.235 393.236 543.249C400.016 546.707 405.888 549.853 407.23 550.978C410.715 553.934 413.278 563.29 410.037 564.253H410.023Z" fill="#AD6359"/>
<path d="M410.023 564.253C406.769 565.243 312.08 562.084 308.636 559.724C308.216 559.48 308.338 550.897 308.663 539.181V538.95C308.677 538.435 308.69 537.906 308.69 537.377C308.704 536.998 308.704 536.618 308.69 536.238C308.69 535.682 308.69 535.113 308.69 534.543C308.717 529.608 308.69 521.594 308.663 512.793L369.059 514.19L369.574 531.845C369.574 531.845 382.198 537.567 393.182 543.195C393.195 543.195 393.209 543.195 393.209 543.222C399.975 546.68 405.86 549.825 407.203 550.951C410.674 553.921 413.264 563.277 410.01 564.24L410.023 564.253Z" fill="#EBEBEB"/>
<path d="M410.417 564.633C407.067 565.623 312.257 562.219 308.718 559.806C307.375 558.897 306.48 544.225 308.351 528.116L369.466 530.381C369.466 530.381 404.003 547.886 407.596 550.951C411.162 554.016 413.752 563.643 410.403 564.633H410.417Z" fill="#FFC727"/>
<path d="M409.183 560.782C393.304 559.819 329.166 557.446 313.396 557.704C313.274 557.704 313.26 557.799 313.396 557.799C329.112 559.087 393.263 560.945 409.169 561.026C409.508 561.026 409.508 560.782 409.169 560.768L409.183 560.782Z" fill="#263238"/>
<path d="M401.63 547.317C397.86 547.032 394.118 548.686 391.989 550.856C389.941 552.944 388.138 555.914 388.138 559.209C388.138 559.304 388.314 559.317 388.328 559.209C389.453 553.026 395.311 547.764 401.63 547.507C401.752 547.507 401.765 547.317 401.63 547.303V547.317Z" fill="#263238"/>
<path d="M374.401 532.143C368.042 531.832 360.584 533.811 356.448 538.869C356.286 539.059 356.57 539.289 356.76 539.195C362.618 536.442 368.164 534.421 374.483 532.93C374.93 532.821 374.863 532.171 374.401 532.143Z" fill="#263238"/>
<path d="M379.243 534.232C372.883 533.92 365.425 535.899 361.289 540.957C361.127 541.147 361.411 541.378 361.601 541.283C367.459 538.53 373.005 536.51 379.324 535.018C379.771 534.91 379.704 534.259 379.243 534.232Z" fill="#263238"/>
<path d="M384.083 536.32C377.724 536.008 370.266 537.988 366.13 543.046C365.967 543.235 366.252 543.466 366.442 543.371C372.3 540.618 377.846 538.598 384.165 537.106C384.612 536.998 384.544 536.347 384.083 536.32Z" fill="#263238"/>
<path d="M388.924 538.422C382.565 538.11 375.107 540.09 370.971 545.147C370.808 545.337 371.093 545.568 371.283 545.473C377.141 542.72 382.687 540.7 389.006 539.208C389.453 539.1 389.385 538.449 388.924 538.422Z" fill="#263238"/>
<path d="M317.993 542.761C310.86 542.53 310.48 553.622 317.626 553.853C324.759 554.083 325.139 542.991 317.993 542.761Z" fill="#263238"/>
<path d="M381.887 515.424C378.768 512.644 374.619 515.099 372.53 517.797C369.154 522.177 366.713 528.387 366.171 533.852C366.171 533.988 366.252 534.042 366.361 534.042C366.483 534.503 367.012 534.91 367.486 534.598C372.124 531.628 377.453 529.025 381.046 524.726C383.148 522.218 384.843 518.055 381.887 515.424ZM373.602 528.659C371.351 530.177 369.046 531.574 366.862 533.174C368.11 530.042 369.222 526.882 370.781 523.872C371.527 522.435 372.327 520.984 373.263 519.668C374.714 517.621 381.155 512.522 381.534 519.465C381.751 523.289 376.287 526.855 373.602 528.659Z" fill="#263238"/>
<path d="M350.279 535.642C355.784 536.686 361.56 535.316 367.025 534.666C367.595 534.598 367.744 533.96 367.54 533.527C367.622 533.459 367.662 533.35 367.567 533.255C363.676 529.377 357.845 526.123 352.462 524.875C349.14 524.116 344.366 524.835 343.716 528.97C343.105 532.876 347.051 535.018 350.265 535.628L350.279 535.642ZM346.563 531.886C342.455 526.272 350.658 526.123 353.085 526.787C354.645 527.208 356.191 527.831 357.669 528.469C360.787 529.798 363.649 531.547 366.605 533.16C363.893 533.31 361.221 533.703 358.523 533.947C355.309 534.245 348.828 534.964 346.563 531.872V531.886Z" fill="#263238"/>
<path d="M373.154 523.004L306.304 521.038C306.304 521.038 310.535 407.094 305.49 400.247C298.778 391.107 201.025 388.409 180.929 358.658C162.881 331.932 179.872 295.375 179.872 295.375H253.949C253.949 295.375 251.292 307.063 246.396 318.481C246.396 318.481 335.064 337.586 359.228 365.682C375.541 384.639 373.14 523.018 373.14 523.018L373.154 523.004Z" fill="#37474F"/>
<path d="M259.577 313.802C257.434 314.114 255.292 314.914 253.244 315.633C251.102 316.379 248.973 317.233 246.898 318.169C242.789 320.026 238.871 322.169 234.993 324.447C234.871 324.515 234.993 324.691 235.101 324.623C239.169 322.657 243.359 320.908 247.549 319.253C249.569 318.453 251.59 317.653 253.61 316.853C255.644 316.053 257.8 315.375 259.739 314.358C259.997 314.223 259.875 313.762 259.577 313.802Z" fill="#263238"/>
<path d="M255.685 295.402C254.736 298.751 253.895 302.141 252.824 305.463C252.336 306.982 251.847 308.541 251.224 310.006C250.695 311.253 249.908 312.663 248.444 312.907C246.762 313.179 246.315 311.728 246.491 310.345C246.695 308.799 247.129 307.266 247.481 305.748C247.888 303.999 248.295 302.263 248.661 300.514C248.851 299.632 249.04 298.764 249.217 297.883C249.257 297.666 249.474 295.985 249.61 295.497C249.61 295.537 249.651 295.578 249.705 295.578H249.759C249.759 295.578 249.854 295.537 249.868 295.483C249.895 295.347 249.881 295.32 249.786 295.225C249.746 295.185 249.678 295.185 249.637 295.212C249.312 295.374 249.271 295.822 249.163 296.134C248.864 296.975 248.566 297.829 248.281 298.683C247.766 300.283 247.264 301.883 246.803 303.497C246.342 305.11 245.895 306.724 245.447 308.351C245.108 309.558 244.715 310.833 245.013 312.094C245.339 313.477 246.41 314.196 247.603 314.331C247.535 314.44 247.468 314.548 247.413 314.657C247.251 314.982 247.142 315.335 247.006 315.674C246.871 316.026 246.735 316.365 246.627 316.718C246.573 316.88 246.532 317.057 246.518 317.233C246.491 317.423 246.518 317.626 246.491 317.816C246.437 318.114 246.844 318.318 247.006 318.019C247.101 317.843 247.237 317.721 247.332 317.558C247.44 317.382 247.522 317.192 247.59 317.002C247.712 316.663 247.82 316.338 247.915 315.985C248.01 315.646 248.132 315.307 248.2 314.968C248.24 314.765 248.254 314.562 248.281 314.345C248.973 314.291 249.664 314.074 250.247 313.667C251.278 312.935 251.902 311.795 252.363 310.643C252.919 309.246 253.353 307.809 253.786 306.372C254.871 302.832 255.807 299.225 256.268 295.551C256.322 295.158 255.78 295.008 255.658 295.402H255.685Z" fill="#263238"/>
<path d="M211.412 302.358C211.059 304.026 210.815 305.707 210.381 307.361C209.961 308.975 209.459 310.589 208.89 312.162C208.334 313.653 207.656 315.172 206.707 316.46C205.785 317.708 204.564 318.779 203.33 319.701C200.889 321.518 198.15 322.942 195.262 323.877C193.811 324.352 192.32 324.745 190.814 325.044C190.028 325.193 189.242 325.301 188.442 325.383C187.777 325.45 187.126 325.45 186.53 325.762C186.272 325.898 186.299 326.291 186.543 326.427C187.533 326.955 188.97 326.725 190.055 326.644C191.33 326.549 192.577 326.372 193.825 326.101C196.32 325.545 198.761 324.569 200.998 323.321C203.195 322.101 205.418 320.569 207.059 318.657C208.768 316.677 209.771 314.318 210.436 311.809C211.236 308.799 211.819 305.531 211.751 302.412C211.751 302.236 211.466 302.195 211.425 302.371L211.412 302.358Z" fill="#263238"/>
<path d="M318.209 444.343C317.857 433.821 317.301 423.298 316.528 412.789C316.338 410.2 316.148 407.61 315.918 405.02C315.728 403.026 315.47 400.992 314.792 399.094C313.368 395.107 310.155 393.019 306.222 391.907C301.585 390.592 296.771 389.738 292.025 388.829C287.184 387.894 282.33 387.039 277.476 386.226C267.631 384.558 257.773 382.985 247.983 381.032C238.233 379.093 228.538 376.774 219.114 373.629C210.449 370.727 201.581 367.201 194.76 360.923C180.089 347.417 180.183 325.518 182.57 307.267C182.909 304.69 183.302 302.114 183.696 299.551C183.709 299.415 183.506 299.361 183.492 299.497C181.987 309.775 180.292 320.108 181.011 330.522C181.594 339.037 183.831 347.634 188.536 354.835C193.418 362.306 200.835 367.255 208.89 370.795C217.69 374.659 227.046 377.358 236.376 379.608C255.793 384.273 275.659 386.605 295.225 390.551C297.639 391.039 300.039 391.555 302.439 392.097C304.636 392.599 306.9 393.06 308.934 394.05C313.341 396.179 314.44 400.558 314.86 405.074C315.836 415.542 316.392 426.065 316.84 436.56C317.735 457.727 317.911 478.975 317.247 500.156C317.165 502.773 317.07 505.376 316.962 507.993C316.962 508.224 317.314 508.21 317.328 507.993C318.603 486.799 318.942 465.605 318.25 444.384L318.209 444.343Z" fill="#263238"/>
<path d="M370.266 514.881C368.462 514.461 366.564 514.407 364.733 514.244C362.794 514.081 360.841 513.905 358.902 513.77C355.079 513.498 351.255 513.295 347.417 513.159C339.702 512.902 331.986 512.685 324.257 512.631C320.23 512.603 311.592 512.509 311.117 512.712C310.887 512.807 310.928 513.227 311.172 513.254C318.819 514.027 326.481 514.42 334.142 514.841C341.79 515.248 349.451 515.641 357.126 515.682C359.255 515.682 361.37 515.641 363.499 515.627C365.723 515.614 368.015 515.763 370.225 515.424C370.442 515.397 370.537 514.949 370.293 514.881H370.266Z" fill="#263238"/>
<path d="M252.322 232.918C259.007 261.502 260.77 282.208 268.879 287.537C275.428 291.835 284.622 294.859 294.073 296.975C305.165 299.442 316.664 300.69 324.718 301.354C327.891 301.626 330.535 301.788 332.407 301.91C337.044 302.209 344.638 271.59 341.356 267.861C340.597 267.007 337.546 266.343 333.261 265.8C318.833 263.983 290.425 263.563 288.73 261.949C286.968 260.254 275.143 240.796 264.784 222.544C254.858 205.066 248.091 214.747 252.336 232.918H252.322Z" fill="#AD6359"/>
<path d="M323.104 298.832C323.688 299.103 331.864 302.656 336.895 303.903C340.651 304.839 351.512 307.253 352.95 303.225C353.94 300.486 347.716 298.317 343.349 296.676C341.044 295.822 338.169 293.544 338.78 292.066C339.851 289.476 345.777 291.822 349.695 293.91C357.275 297.951 367.432 305.341 371.825 301.408C373.479 299.917 371.405 297.408 368.394 294.981C373.222 297.761 378.347 300.012 380.259 298.425C381.358 297.53 381.358 296.351 380.68 295.035C382.158 295.456 383.432 295.32 384.3 294.33C385.778 292.662 384.937 290.33 383.175 287.957C383.717 287.876 384.178 287.591 384.531 286.994C387.595 281.923 370.808 268.295 365.14 267.17C348.448 263.848 330.901 265.936 330.901 265.936C324.596 271.373 323.077 298.819 323.091 298.832H323.104Z" fill="#AD6359"/>
<path d="M346.875 282.506C350.794 282.967 354.726 284.228 358.062 286.343C362.021 288.852 365.221 292.364 368.896 295.225C368.991 295.307 368.869 295.456 368.774 295.374C367.038 293.883 365.14 292.567 363.35 291.144C361.601 289.761 359.879 288.31 358.035 287.049C354.658 284.743 350.916 283.17 346.861 282.56C346.821 282.56 346.834 282.492 346.861 282.492L346.875 282.506Z" fill="#263238"/>
<path d="M349.695 275.374C354.089 276.404 358.591 277.435 362.699 279.347C367.201 281.435 370.794 284.974 374.32 288.377C376.435 290.425 378.51 292.513 380.544 294.656C380.625 294.751 380.517 294.9 380.422 294.805C376.842 291.279 373.154 287.862 369.357 284.567C365.791 281.462 361.858 279.143 357.37 277.624C354.848 276.77 352.258 276.106 349.682 275.441C349.628 275.441 349.641 275.346 349.695 275.36V275.374Z" fill="#263238"/>
<path d="M354.116 269.068C358.374 269.773 362.089 270.383 365.913 272.512C370.971 275.333 375.947 280.201 377.683 281.923C379.608 283.835 381.466 285.801 383.297 287.808C383.365 287.889 383.229 288.025 383.161 287.943C378.985 283.577 374.51 279.441 369.805 275.658C367.554 273.841 365.127 272.282 362.428 271.238C359.757 270.207 356.923 269.665 354.116 269.095C354.102 269.095 354.102 269.068 354.116 269.068Z" fill="#263238"/>
<path d="M317.206 302.534L330.603 264.729C330.603 264.729 291.903 263.102 289.422 261.502C286.94 259.888 274.14 236.403 264.444 220.619C256.824 208.225 247.386 209.12 251.712 234.07C256.268 260.39 260.065 281.096 266.655 287.144C277.774 297.354 317.219 302.534 317.219 302.534H317.206Z" fill="#FFC727"/>
<g opacity="0.1">
<path d="M257.692 213.432L253.57 213.351C254.722 212.591 256.146 212.659 257.692 213.432Z" fill="black"/>
<path d="M265.597 222.531L250.614 222.26C250.654 220.619 250.803 219.195 251.061 218.002L262.804 218.205C263.36 218.937 263.902 219.751 264.431 220.619C264.811 221.243 265.204 221.88 265.597 222.531Z" fill="black"/>
<path d="M270.98 231.589L251.237 231.236C251.02 229.704 250.871 228.28 250.763 226.951L268.445 227.277C269.272 228.687 270.126 230.138 270.98 231.589Z" fill="black"/>
<path d="M276.269 240.647L252.756 240.213C252.512 238.803 252.254 237.379 251.997 235.928L273.747 236.321C274.601 237.786 275.442 239.223 276.269 240.647Z" fill="black"/>
<path d="M281.571 249.691L254.369 249.189C254.112 247.793 253.854 246.355 253.583 244.905L279.035 245.379C279.916 246.884 280.757 248.322 281.571 249.691Z" fill="black"/>
<path d="M287.171 258.749L256.119 258.18C255.834 256.783 255.549 255.359 255.265 253.895L284.418 254.424C285.462 256.132 286.398 257.597 287.171 258.749Z" fill="black"/>
<path d="M330.59 264.729L329.261 268.472L258.139 267.17C257.8 265.787 257.461 264.363 257.122 262.885L314.643 263.929C323.172 264.417 330.576 264.729 330.576 264.729H330.59Z" fill="black"/>
<path d="M327.607 273.136L326.115 277.367L260.702 276.174C260.255 274.845 259.807 273.407 259.373 271.889L327.607 273.136Z" fill="black"/>
<path d="M324.46 282.032L322.955 286.276L264.946 285.218C264.106 284.038 263.305 282.588 262.546 280.893L324.46 282.032Z" fill="black"/>
<path d="M321.301 290.927L319.809 295.171L280.92 294.452C277.055 293.124 273.502 291.646 270.641 289.991L321.301 290.927Z" fill="black"/>
<path d="M318.155 299.822L317.192 302.534C317.192 302.534 309.436 301.504 299.822 299.483L318.155 299.822Z" fill="black"/>
</g>
<path d="M316.46 282.818C317.531 279.848 318.562 276.879 319.565 273.896C320.596 270.818 321.382 267.631 322.508 264.58C322.548 264.458 322.345 264.404 322.304 264.526C321.233 267.577 319.823 270.519 318.657 273.543C317.531 276.472 316.433 279.428 315.375 282.384C313.233 288.351 311.05 294.358 309.328 300.446C309.273 300.622 309.558 300.744 309.64 300.568C312.189 294.778 314.318 288.771 316.474 282.818H316.46Z" fill="#263238"/>
<path d="M286.371 296.161C278.235 293.815 270.614 290.791 266.628 287.144C260.038 281.096 256.241 260.39 251.685 234.07C248.227 214.097 253.597 209.541 259.78 214.87L286.371 296.161Z" fill="#263238"/>
<path d="M261.95 312.175C259.658 313.87 171.681 311.416 171.329 310.765C170.38 309.029 197.391 229.636 235.86 206.151C242.64 202.015 252.58 205.446 256.81 209.039C258.926 210.829 264.77 224.104 265.217 234.762C265.665 245.406 263.387 311.09 261.936 312.175H261.95Z" fill="#FFC727"/>
<g opacity="0.1">
<path d="M259.509 213.473L226.789 212.876C228.511 211.371 230.274 209.975 232.05 208.7L256.905 209.147C257.543 209.758 258.492 211.317 259.509 213.473Z" fill="black"/>
<path d="M262.939 222.49L217.921 221.663C219.209 220.212 220.524 218.816 221.88 217.473L261.488 218.192C262.004 219.548 262.492 220.999 262.939 222.49Z" fill="black"/>
<path d="M264.933 231.481L210.666 230.491C211.751 229.053 212.863 227.643 213.975 226.274L264.173 227.196C264.485 228.619 264.743 230.057 264.933 231.481Z" fill="black"/>
<path d="M265.272 240.43L204.429 239.332C205.364 237.908 206.327 236.498 207.303 235.115L265.272 236.159C265.272 237.298 265.272 238.735 265.272 240.43Z" fill="black"/>
<path d="M265.217 245.122C265.217 246.464 265.177 247.888 265.15 249.393L198.855 248.186C199.696 246.762 200.55 245.352 201.432 243.956L265.217 245.122Z" fill="black"/>
<path d="M265.041 254.071C265 255.454 264.96 256.878 264.919 258.343L193.798 257.041C194.571 255.631 195.343 254.221 196.157 252.81L265.041 254.071Z" fill="black"/>
<path d="M264.77 263.021C264.743 264.431 264.689 265.855 264.648 267.292L189.174 265.923C189.865 264.526 190.584 263.116 191.316 261.692L264.77 263.021Z" fill="black"/>
<path d="M264.485 271.97L264.323 276.242L184.889 274.791C185.54 273.408 186.204 271.984 186.882 270.56L264.485 271.97Z" fill="black"/>
<path d="M264.133 280.92C264.079 282.371 264.024 283.794 263.957 285.191L180.929 283.672C181.526 282.289 182.15 280.879 182.787 279.442L264.133 280.92Z" fill="black"/>
<path d="M263.74 289.869C263.672 291.334 263.604 292.758 263.523 294.127L177.295 292.568C177.824 291.212 178.394 289.788 178.99 288.323L263.74 289.869Z" fill="black"/>
<path d="M263.265 298.819C263.184 300.337 263.089 301.775 262.994 303.09L173.987 301.449C174.448 300.148 174.963 298.724 175.519 297.205L263.265 298.819Z" fill="black"/>
<path d="M262.641 307.768C262.438 310.046 262.234 311.538 262.044 312.026L171.315 310.358C171.41 309.68 171.79 308.216 172.441 306.114L262.641 307.768Z" fill="black"/>
</g>
<path d="M264.621 178.841C264.621 184.129 268.377 188.414 273.014 188.414C277.652 188.414 281.408 184.129 281.408 178.841C281.408 173.553 277.652 169.268 273.014 169.268C268.377 169.268 264.621 173.553 264.621 178.841Z" fill="#FFC727"/>
<path d="M271.238 189.825C276.398 189.825 280.581 185.059 280.581 179.18C280.581 173.301 276.398 168.536 271.238 168.536C266.078 168.536 261.895 173.301 261.895 179.18C261.895 185.059 266.078 189.825 271.238 189.825Z" fill="#C7C7C7"/>
<path d="M255.007 221.907C249.922 222.802 241.745 214.639 238.694 208.225C238.491 207.791 241.23 190.828 241.433 187.424C241.474 186.719 262.56 193.852 262.56 193.852C262.56 193.852 260.037 200.889 259.739 206.842C259.725 207.344 259.929 221.026 255.02 221.907H255.007Z" fill="#AD6359"/>
<path d="M259.807 208.252C259.807 208.32 259.807 208.402 259.807 208.483H259.698C259.047 208.551 258.356 208.537 257.596 208.483C245.962 207.547 242.857 193.011 242.084 187.438C245.677 188.143 262.546 193.852 262.546 193.852C262.546 193.852 260.024 200.889 259.725 206.842C259.725 207.005 259.725 207.168 259.725 207.317C259.725 207.642 259.752 207.954 259.807 208.252Z" fill="#263238"/>
<path d="M244.552 160.508C240.62 167.424 239.738 189.743 243.942 195.709C250.044 204.361 262.424 207.832 270.384 199.954C278.099 192.32 278.737 163.206 273.814 157.538C266.56 149.186 250.369 150.298 244.566 160.508H244.552Z" fill="#AD6359"/>
<path d="M243.061 176.983C248.241 177.024 249.339 167.627 249.339 167.627C249.339 167.627 258.248 166.257 259.604 159.572C259.604 159.572 267.984 165.051 274.655 162.705C281.313 160.359 280.486 152.101 279.74 150.501C278.045 146.826 272.486 151.477 272.486 151.477C272.486 151.477 264.173 146.338 254.668 147.179C246.939 147.87 242.993 155.098 242.993 155.098C242.993 155.098 238.83 155.938 237.46 158.827C236.091 161.715 239.752 176.956 243.061 176.983Z" fill="#263238"/>
<path d="M247.251 167.668C254.126 168.644 258.722 164.129 259.794 157.552C259.794 157.471 259.929 157.484 259.916 157.552C259.658 163.681 253.854 170.475 247.169 167.966C247.007 167.912 247.061 167.641 247.237 167.668H247.251Z" fill="#263238"/>
<path d="M243.183 154.976C243.264 154.962 243.305 155.084 243.223 155.111C241.284 155.979 239.074 156.63 237.704 158.366C236.05 160.467 236.376 163.247 236.959 165.661C237.867 169.403 239.738 174.271 243.061 176.495C243.25 176.617 243.061 176.902 242.857 176.78C238.884 174.38 236.62 168.061 236.104 163.668C235.535 158.745 238.627 155.966 243.183 154.962V154.976Z" fill="#263238"/>
<path d="M267.143 161.444C270.14 163.437 274.641 163.545 277.652 161.295C281.313 158.555 280.621 154.013 279.116 150.216C279.048 150.026 279.292 149.836 279.401 150.013C281.489 153.348 281.584 158.406 278.574 161.254C275.469 164.196 270.153 164.088 266.845 161.891C266.573 161.701 266.872 161.254 267.143 161.444Z" fill="#263238"/>
<path d="M245.203 179.017C245.203 179.017 241.745 171.058 238.233 172.156C234.721 173.254 236.335 184.089 239.765 186.231C243.196 188.36 245.23 185.228 245.23 185.228L245.203 179.017Z" fill="#AD6359"/>
<path d="M238.775 175.248C238.775 175.248 238.694 175.315 238.735 175.343C241.121 176.929 242.003 179.614 242.45 182.312C241.867 181.187 240.931 180.455 239.453 181.106C239.372 181.146 239.413 181.255 239.494 181.255C240.606 181.255 241.338 181.58 241.881 182.584C242.274 183.289 242.464 184.129 242.681 184.902C242.749 185.16 243.196 185.119 243.169 184.835V184.767C243.901 181.458 242.26 176.292 238.775 175.234V175.248Z" fill="#263238"/>
<path d="M240.172 173.241C240.172 173.241 239.521 161.701 242.966 155.369C246.803 148.318 261.909 143.762 272.499 151.477C272.499 151.477 255.712 146.175 247.522 155.925C244.077 160.033 244.023 173.593 244.023 173.593L240.172 173.241Z" fill="#C7C7C7"/>
<path d="M241.582 189.825C246.742 189.825 250.925 185.059 250.925 179.18C250.925 173.301 246.742 168.536 241.582 168.536C236.423 168.536 232.24 173.301 232.24 179.18C232.24 185.059 236.423 189.825 241.582 189.825Z" fill="#C7C7C7"/>
<path d="M248.2 178.841C248.2 184.129 244.444 188.414 239.806 188.414C235.169 188.414 231.413 184.129 231.413 178.841C231.413 173.553 235.169 169.268 239.806 169.268C244.444 169.268 248.2 173.553 248.2 178.841Z" fill="#FFC727"/>
<path d="M385.643 251.102C386.361 251.983 386.944 252.932 386.537 253.285H386.524C386.104 253.624 385.276 252.878 384.544 251.997L385.629 251.102H385.643Z" fill="#263238"/>
<path d="M385.317 241.582C386.077 242.505 386.185 249.013 385.873 251.386C385.805 251.847 385.249 252.322 384.802 252.295C382.442 252.146 376.029 250.776 375.269 249.854C374.754 249.23 373.574 246.423 372.164 243.684C370.334 240.091 339.403 200.523 339.295 199.913C339.187 199.303 340.19 198.272 340.787 197.771C341.397 197.269 342.604 196.469 343.187 196.699C343.756 196.943 376.666 234.884 379.839 237.365C382.266 239.277 384.788 240.972 385.304 241.596L385.317 241.582Z" fill="#37474F"/>
<path d="M385.317 241.583C385.371 241.65 385.439 241.759 385.48 241.922C383.758 244.173 382.076 245.84 380.558 247.088C378.51 248.769 376.788 249.664 375.703 250.139C375.486 250.057 375.351 249.949 375.269 249.854C375.188 249.759 375.079 249.596 374.971 249.407C376.625 248.756 380.68 246.722 384.883 241.176C385.087 241.338 385.236 241.488 385.317 241.583Z" fill="#A6A6A6"/>
<path d="M366.608 228.518L366.063 228.966C365.641 229.314 365.581 229.938 365.928 230.36L375.1 241.497C375.447 241.919 376.071 241.98 376.493 241.632L377.037 241.184C377.459 240.836 377.52 240.212 377.172 239.79L368.001 228.653C367.653 228.231 367.03 228.17 366.608 228.518Z" fill="#263238"/>
<path d="M369.832 232.719L369.529 232.969C369.28 233.174 369.245 233.541 369.449 233.79L375.328 240.929C375.533 241.177 375.9 241.213 376.149 241.008L376.452 240.758C376.701 240.553 376.736 240.186 376.532 239.937L370.653 232.798C370.448 232.55 370.081 232.514 369.832 232.719Z" fill="#A6A6A6"/>
<path d="M374.425 237.394L373.221 238.385L373.514 238.741L374.718 237.75L374.425 237.394Z" fill="#263238"/>
<path d="M226.68 227.25C235.074 250.735 252.051 274.641 266.18 276.974C280.187 279.279 316.623 263.59 327.742 258.315C332.027 256.281 317.653 219.48 313.097 221.69C305.355 225.446 271.753 244.715 269.055 243.983C267.36 243.522 252.539 232.294 240.064 220.551C223.846 205.296 224.077 219.954 226.68 227.263V227.25Z" fill="#AD6359"/>
<path d="M374.076 215.154C374.672 219.846 362.97 220.348 362.97 220.348C362.97 220.348 365.94 221.704 367.079 224.646C368.381 228.009 363.689 231.507 363.689 231.507C363.689 231.507 366.415 233.514 367.296 236.728C368.218 240.064 363.987 244.281 363.987 244.281C363.987 244.281 365.506 247.535 364.272 250.871C362.17 256.566 353.099 258.451 347.349 259.712C341.6 260.973 324.094 259.156 320.718 259.142L312.324 222.273C312.324 222.273 336.529 209.283 343.498 208.768C349.37 208.334 373.167 207.981 374.089 215.154H374.076Z" fill="#AD6359"/>
<path d="M362.848 220.226C356.489 219.195 349.899 219.683 343.539 220.226C343.403 220.226 343.417 220.456 343.566 220.443C349.885 219.832 356.516 220.89 362.848 220.524C363.025 220.524 363.038 220.239 362.848 220.212V220.226Z" fill="#263238"/>
<path d="M363.445 231.046C361.994 230.857 360.489 231.141 359.065 231.331C357.519 231.535 355.987 231.779 354.455 232.036C351.377 232.552 348.326 233.148 345.275 233.826C345.139 233.853 345.153 234.07 345.302 234.043C348.366 233.528 351.431 233.067 354.523 232.674C356.068 232.484 357.614 232.307 359.16 232.131C360.597 231.968 362.13 231.928 363.499 231.453C363.703 231.385 363.675 231.06 363.458 231.033L363.445 231.046Z" fill="#263238"/>
<path d="M363.852 244.294C362.604 244.077 361.153 244.538 359.919 244.769C358.523 245.04 357.126 245.298 355.729 245.542C352.936 246.044 350.143 246.545 347.322 246.952C347.187 246.979 347.2 247.196 347.349 247.169C350.211 246.776 353.072 246.41 355.933 245.989C357.329 245.786 358.74 245.569 360.136 245.338C361.33 245.149 362.835 245.054 363.892 244.416C363.947 244.376 363.92 244.294 363.865 244.281L363.852 244.294Z" fill="#263238"/>
<path d="M302.263 225.487L318.914 265.624C318.914 265.624 277.15 281.964 264.255 278.14C251.346 274.316 233.569 248.308 227.792 232.823C222.016 217.351 223.507 204.252 243.237 221.69C262.966 239.128 268.377 242.857 269.611 242.627C270.845 242.396 302.263 225.487 302.263 225.487Z" fill="#FFC727"/>
<g opacity="0.1">
<path d="M243.739 222.138L224.958 221.799C224.782 220.199 224.782 218.748 224.985 217.527L238.423 217.771C239.888 218.843 241.488 220.144 243.237 221.69C243.4 221.839 243.576 221.989 243.739 222.138Z" fill="black"/>
<path d="M249.19 226.924C251.034 228.524 252.715 229.975 254.247 231.277L227.06 230.789C226.572 229.311 226.151 227.873 225.799 226.49L249.19 226.924Z" fill="black"/>
<path d="M305.056 232.213L290.222 231.941C293.123 230.396 295.835 228.931 297.951 227.806L303.266 227.901L305.056 232.213Z" fill="black"/>
<path d="M259.956 236.064C262.343 238.016 264.173 239.44 265.57 240.444L230.857 239.806C230.124 238.315 229.446 236.877 228.863 235.494L259.956 236.064Z" fill="black"/>
<path d="M308.799 241.23L273.814 240.593C275.957 239.494 278.723 238.03 281.706 236.457L307.009 236.918L308.799 241.23Z" fill="black"/>
<path d="M312.541 250.261L235.874 248.864C234.979 247.413 234.138 245.962 233.338 244.539L310.751 245.962L312.541 250.261Z" fill="black"/>
<path d="M316.284 259.278L241.922 257.922C240.877 256.512 239.874 255.061 238.898 253.597L314.494 254.98L316.284 259.278Z" fill="black"/>
<path d="M318.914 265.624C318.914 265.624 316.257 266.668 312.067 268.16L249.312 267.021C248.051 265.651 246.803 264.2 245.569 262.682L318.236 263.997L318.914 265.624Z" fill="black"/>
<path d="M298.778 272.594C294.046 274.058 288.961 275.496 284.079 276.608L259.929 276.16C258.031 275.021 256.078 273.543 254.112 271.78L298.778 272.594Z" fill="black"/>
</g>
<path d="M318.48 265.597C312.175 267.916 305.856 270.167 299.415 272.052C292.974 273.936 276.458 278.072 269.678 278.316C266.519 278.425 263.454 277.299 260.743 275.74C257.99 274.153 255.617 272.024 253.38 269.787C251.074 267.482 248.891 265.055 246.735 262.614C244.267 259.834 241.894 256.986 239.535 254.125C237.053 251.115 234.545 248.105 232.267 244.945C232.185 244.837 232.009 244.945 232.091 245.054C234.084 247.874 235.982 250.749 238.03 253.515C238.87 254.654 239.738 255.78 240.62 256.892C240.159 256.553 239.698 256.2 239.223 255.875C237.46 254.654 235.643 253.488 233.948 252.173C233.826 252.078 233.704 252.254 233.826 252.335C235.548 253.556 237.162 254.966 238.776 256.322C239.562 256.986 240.362 257.637 241.189 258.261C241.582 258.559 241.962 258.844 242.355 259.129C242.41 259.17 242.464 259.21 242.504 259.251C243.101 259.997 243.698 260.756 244.308 261.488C246.478 264.133 248.688 266.736 250.993 269.258C253.149 271.631 255.454 273.896 258.085 275.74C260.634 277.53 263.536 279.103 266.641 279.455C272.987 280.187 290.045 275.97 296.717 274.058C304.188 271.916 311.619 269.421 318.738 266.302C319.172 266.112 318.982 265.407 318.521 265.583L318.48 265.597Z" fill="#263238"/>
<path d="M275.496 239.616C274.56 240.05 271.265 242.071 270.139 242.166C269 242.26 268.078 241.65 267.224 240.986C266.316 240.281 265.434 239.562 264.526 238.857C263.4 237.989 262.261 237.135 261.122 236.267C261.068 236.186 261.014 236.104 260.959 236.037C260.797 235.792 260.62 235.548 260.444 235.318C260.078 234.843 259.712 234.382 259.346 233.921C258.614 233.026 257.854 232.158 257.108 231.277C257.014 231.169 256.878 231.331 256.959 231.426C257.719 232.335 258.397 233.297 259.088 234.26C259.319 234.572 259.536 234.897 259.753 235.209C259.576 235.074 259.387 234.938 259.21 234.803C258.315 234.138 255.495 232.077 253.746 230.667C253.624 230.572 253.502 230.735 253.624 230.83C255.21 232.063 258.736 235.142 259.698 235.969C261.597 237.596 263.509 239.196 265.461 240.755C266.939 241.935 268.526 243.481 270.573 242.966C271.563 242.722 274.818 240.593 275.699 239.86C275.848 239.725 275.645 239.535 275.496 239.603V239.616Z" fill="#263238"/>
<path d="M304.188 248.471C303.022 245.542 301.829 242.627 300.595 239.725C299.32 236.728 297.815 233.826 296.636 230.802C296.581 230.68 296.391 230.775 296.446 230.897C297.666 233.894 298.561 237.026 299.686 240.064C300.785 243.006 301.91 245.949 303.076 248.864C305.422 254.749 307.768 260.702 310.507 266.411C310.589 266.587 310.887 266.478 310.819 266.289C308.894 260.268 306.507 254.342 304.175 248.471H304.188Z" fill="#263238"/>
<path d="M549.609 296.554H63.4331V313.843H549.609V296.554Z" fill="#37474F"/>
<path d="M549.609 307.09H63.4331V313.843H549.609V307.09Z" fill="#455A64"/>
<path d="M80.8712 556.429H73.8743L94.2141 313.843H112.059L80.8712 556.429Z" fill="#455A64"/>
<path d="M112.045 313.843L109.957 330.074H92.8582L94.2141 313.843H112.045Z" fill="#263238"/>
<path d="M532.157 556.429H539.154L518.814 313.843H500.969L532.157 556.429Z" fill="#455A64"/>
<path d="M500.983 313.843L503.071 330.074H520.17L518.814 313.843H500.983Z" fill="#263238"/>
<path d="M470.324 296.554H349.573L378.903 215.968H499.654L470.324 296.554Z" fill="#263238"/>
<path d="M474.609 296.554H353.845L383.175 215.968H503.939L474.609 296.554Z" fill="#37474F"/>
<path d="M503.939 215.968L474.595 296.554H425.753L492.63 215.968H503.939Z" fill="#263238"/>
<path d="M496.115 296.554H481.416L468.236 273.706H482.934L496.115 296.554Z" fill="#455A64"/>
<path d="M468.236 273.706V296.554H481.416L468.236 273.706Z" fill="#37474F"/>
<path d="M413.684 296.554H398.985L385.792 273.706H400.491L413.684 296.554Z" fill="#455A64"/>
<path d="M385.792 273.706V296.554H398.985L385.792 273.706Z" fill="#263238"/>
<path d="M96.6954 288.215L94.2546 287.903L106.825 192.333L152.426 167.302L153.606 169.458L109.103 193.893L96.6954 288.215Z" fill="#263238"/>
<path d="M104.492 193.106C104.492 195.018 106.052 196.577 107.964 196.577C109.876 196.577 111.435 195.018 111.435 193.106C111.435 191.194 109.876 189.635 107.964 189.635C106.052 189.635 104.492 191.194 104.492 193.106Z" fill="#FFC727"/>
<path d="M149.064 168.373C149.064 170.285 150.623 171.844 152.535 171.844C154.447 171.844 156.006 170.285 156.006 168.373C156.006 166.461 154.447 164.901 152.535 164.901C150.623 164.901 149.064 166.461 149.064 168.373Z" fill="#FFC727"/>
<path d="M175.858 171.559L159.545 189.77L152.02 180.468L147.437 174.8L159.668 161.159L165.797 165.091L175.858 171.559Z" fill="#FFC727"/>
<path opacity="0.1" d="M175.858 171.559L159.546 189.77L152.02 180.468L165.797 165.091L175.858 171.559Z" fill="black"/>
<path d="M199.52 180.536L171.071 212.293L152.169 188.184L173.499 164.4L199.52 180.536Z" fill="#FFC727"/>
<path d="M117.822 296.554H75.7319L78.3083 283.333H115.232L117.822 296.554Z" fill="#FFC727"/>
<path d="M361.777 258.844L358.781 296.554H338.02L335.024 258.844H361.777Z" fill="#FFC727"/>
<path d="M363.567 255.441H333.071V260.932H363.567V255.441Z" fill="#455A64"/>
<path d="M361.465 255.441H335.159L336.691 249.257H359.933L361.465 255.441Z" fill="#37474F"/>
<path d="M355.608 278.031C355.608 282.926 352.38 286.899 348.407 286.899C344.434 286.899 341.207 282.926 341.207 278.031C341.207 273.136 344.434 269.163 348.407 269.163C352.38 269.163 355.608 273.136 355.608 278.031Z" fill="white"/>
<path d="M158.311 371.215C149.443 371.215 142.419 368.53 137.416 363.242C126.771 351.973 127.91 332.027 128.52 321.328C128.629 319.525 128.71 317.979 128.71 316.908C128.71 311.294 127.178 306.846 125.564 302.155C124.439 298.9 123.286 295.537 122.717 291.808C121.795 285.801 124.249 277.706 127.056 273.638C129.212 270.519 133.917 271.116 134.121 271.143L133.754 273.828L133.931 272.486L133.754 273.828C132.859 273.706 130.283 273.733 129.28 275.184C126.812 278.75 124.601 286.289 125.388 291.388C125.93 294.873 126.988 297.978 128.127 301.26C129.741 305.965 131.422 310.833 131.422 316.894C131.422 318.047 131.327 319.633 131.232 321.477C130.649 331.783 129.551 350.956 139.395 361.384C143.856 366.116 150.23 368.516 158.325 368.516C164.467 368.516 169.213 366.699 172.834 362.984C182.095 353.451 181.526 333.193 181.133 319.796C181.011 315.66 180.916 312.094 181.092 309.45C181.444 304.283 182.868 299.944 184.238 295.741C186.367 289.191 188.211 283.55 185.621 276.296C184.726 273.787 182.15 273.543 181.241 273.652L180.902 270.967C183.085 270.682 186.828 271.645 188.17 275.387C191.072 283.51 189.011 289.856 186.814 296.581C185.499 300.622 184.129 304.812 183.79 309.64C183.614 312.148 183.722 315.647 183.831 319.715C184.224 333.573 184.834 354.523 174.759 364.882C170.664 369.1 165.132 371.242 158.311 371.242V371.215Z" fill="#A6A6A6"/>
<path d="M181.417 266.994H132.764V296.554H181.417V266.994Z" fill="#263238"/>
<path d="M146.785 265.719H138.216V266.994H146.785V265.719Z" fill="#263238"/>
<path d="M145.212 264.471H139.802V265.746H145.212V264.471Z" fill="#263238"/>
<path d="M172.088 266.994H159.138L160.494 263.007H170.732L172.088 266.994Z" fill="#263238"/>
<path d="M168.888 264.607H162.352V266.994H168.888V264.607Z" fill="white"/>
<path d="M131.517 270.913V273.258L132.751 273.692V274.696L130.73 274.004V270.18L132.751 269.489V270.492L131.517 270.913Z" fill="#263238"/>
<path d="M182.665 270.913V273.258L181.417 273.692V274.696L183.438 274.004V270.18L181.417 269.489V270.492L182.665 270.913Z" fill="#263238"/>
<path d="M146.785 271.712C147.314 275.238 147.436 278.777 147.463 282.303C147.45 285.828 147.328 289.367 146.785 292.893C146.243 289.354 146.121 285.828 146.107 282.303C146.135 278.777 146.257 275.238 146.785 271.712Z" fill="#455A64"/>
<path d="M165.62 294.371C158.962 294.371 153.552 288.961 153.552 282.303C153.552 275.645 158.962 270.234 165.62 270.234C172.278 270.234 177.688 275.645 177.688 282.303C177.688 288.961 172.278 294.371 165.62 294.371ZM165.62 270.926C159.342 270.926 154.23 276.038 154.23 282.316C154.23 288.594 159.342 293.707 165.62 293.707C171.898 293.707 177.01 288.594 177.01 282.316C177.01 276.038 171.898 270.926 165.62 270.926Z" fill="#37474F"/>
<path d="M174.895 282.303C174.895 287.428 170.746 291.591 165.606 291.591C160.467 291.591 156.318 287.442 156.318 282.303C156.318 277.163 160.467 273.014 165.606 273.014C170.746 273.014 174.895 277.163 174.895 282.303Z" fill="#455A64"/>
<path d="M178.461 270.465C179 270.465 179.437 270.028 179.437 269.489C179.437 268.95 179 268.512 178.461 268.512C177.922 268.512 177.485 268.95 177.485 269.489C177.485 270.028 177.922 270.465 178.461 270.465Z" fill="#FFC727"/>
<path d="M449.496 169.444L422.62 196.116C420.803 197.933 417.847 197.92 416.03 196.089C414.213 194.272 414.227 191.316 416.057 189.499L442.919 162.813L449.496 169.431V169.444Z" fill="#EBEBEB"/>
<path d="M449.496 169.444L441.862 177.038L436.777 168.929L442.919 162.827L449.496 169.444Z" fill="#C7C7C7"/>
<path d="M414.281 197.838C413.82 197.377 413.82 196.632 414.281 196.171L420.356 190.136L422.024 191.818L415.949 197.852C415.488 198.313 414.742 198.313 414.281 197.852V197.838Z" fill="#EBEBEB"/>
<path d="M422.037 191.804L415.949 197.852C415.488 198.313 414.742 198.313 414.281 197.852C413.82 197.391 413.82 196.632 414.281 196.184L415.311 195.167L420.356 190.15L422.024 191.818L422.037 191.804Z" fill="#EBEBEB"/>
<path d="M451.472 170.785L441.64 160.885L436.974 165.519L446.806 175.419L451.472 170.785Z" fill="#FFC727"/>
<path d="M447.177 171.749L440.614 165.132L446.16 159.627C447.991 157.81 450.933 157.823 452.75 159.654C454.567 161.484 454.554 164.427 452.723 166.244L447.177 171.749Z" fill="#FFC727"/>
<path d="M432.614 186.218L422.634 196.13C421.102 197.662 418.769 197.893 416.993 196.835L415.962 197.866C415.501 198.327 414.756 198.327 414.295 197.866C413.833 197.405 413.833 196.645 414.295 196.198L415.325 195.181C414.281 193.391 414.525 191.072 416.071 189.54L419.434 186.191L432.627 186.231L432.614 186.218Z" fill="#FFC727"/>
<path d="M414.688 209.256C411.298 209.256 412.464 202.584 414.688 200.361C416.979 202.639 418.064 209.256 414.688 209.256Z" fill="#FFC727"/>
<path d="M363.391 192.36H306.656V119.53H348.787L363.391 133.402V192.36Z" fill="#DBDBDB"/>
<path d="M363.391 171.044H306.656V192.36H363.391V171.044Z" fill="#EBEBEB"/>
<path d="M306.656 171.044L324.61 153.85L340.881 171.044H306.656Z" fill="#FFC727"/>
<path d="M329.708 171.044L351.024 144.114L363.391 159.749V171.044H329.708Z" fill="#FFC727"/>
<path d="M325.233 142.514C325.233 146.026 322.386 148.874 318.874 148.874C315.362 148.874 312.514 146.026 312.514 142.514C312.514 139.002 315.362 136.155 318.874 136.155C322.386 136.155 325.233 139.002 325.233 142.514Z" fill="white"/>
<path d="M348.787 119.53L363.391 133.402H348.787V119.53Z" fill="#EBEBEB"/>
<path d="M319.836 184.062C320.053 183.994 320.27 184.116 320.325 184.306C320.731 185.553 321.884 186.448 323.253 186.435C324.948 186.435 326.332 185.065 326.332 183.384V176.238C326.332 176.021 326.508 175.844 326.725 175.844C326.942 175.844 327.118 176.021 327.118 176.238V183.384C327.118 185.526 325.396 187.235 323.267 187.235C321.558 187.235 320.08 186.109 319.592 184.563C319.525 184.346 319.647 184.129 319.85 184.062H319.836Z" fill="#A6A6A6"/>
<path d="M330.182 176.238C330.182 176.021 330.359 175.844 330.576 175.844H333.789C335.579 175.844 337.03 177.309 337.03 179.099C337.03 180.889 335.579 182.34 333.789 182.34L330.969 182.367V186.841C330.969 187.058 330.793 187.235 330.562 187.235C330.345 187.235 330.169 187.058 330.169 186.841V176.238H330.182ZM333.789 181.567C335.145 181.553 336.244 180.441 336.244 179.099C336.244 177.756 335.132 176.644 333.789 176.644H330.969V181.567H333.789Z" fill="#A6A6A6"/>
<path d="M344.99 182.109C344.759 182.109 344.583 181.946 344.583 181.716C344.583 181.485 344.759 181.309 344.99 181.309H348.556C348.746 181.323 348.909 181.499 348.909 181.716V185.689C348.895 185.797 348.841 185.919 348.76 185.987C347.756 186.787 346.482 187.235 345.085 187.235C341.817 187.221 339.159 184.658 339.159 181.445C339.159 178.231 341.803 175.682 345.085 175.682C346.495 175.682 347.756 176.17 348.773 176.97C348.922 177.078 348.963 177.363 348.827 177.526C348.692 177.689 348.448 177.716 348.258 177.594C347.431 176.916 346.305 176.482 345.085 176.482C342.237 176.482 339.959 178.705 339.959 181.445C339.959 184.184 342.237 186.435 345.085 186.435C346.197 186.435 347.241 186.082 348.095 185.458V182.109H344.99Z" fill="#A6A6A6"/>
<path d="M180.333 38.4558H155.708V115.896H180.333V38.4558Z" fill="#C7C7C7"/>
<path d="M177.607 40.9102H158.447V51.6224H177.607V40.9102Z" fill="#FFC727"/>
<path d="M177.607 53.9005H158.447V64.6128H177.607V53.9005Z" fill="#FFC727"/>
<path d="M177.607 66.8773H158.447V77.5896H177.607V66.8773Z" fill="#FFC727"/>
<path d="M177.607 79.8541H158.447V90.5664H177.607V79.8541Z" fill="#FFC727"/>
<path d="M177.607 92.8445H158.447V103.557H177.607V92.8445Z" fill="#FFC727"/>
<path opacity="0.3" d="M177.607 40.9102H158.447V51.6224H177.607V40.9102Z" fill="black"/>
<path opacity="0.1" d="M177.607 53.9005H158.447V64.6128H177.607V53.9005Z" fill="black"/>
<path opacity="0.2" d="M177.607 79.8541H158.447V90.5664H177.607V79.8541Z" fill="white"/>
<path opacity="0.4" d="M177.607 92.8445H158.447V103.557H177.607V92.8445Z" fill="white"/>
<path d="M169.553 111.055C169.553 112.303 168.536 113.32 167.288 113.32C166.041 113.32 165.024 112.303 165.024 111.055C165.024 109.808 166.041 108.791 167.288 108.791C168.536 108.791 169.553 109.808 169.553 111.055Z" fill="#263238"/>
<path d="M228.04 69.1881L210.628 51.7758L155.869 106.534L173.282 123.947L228.04 69.1881Z" fill="#DBDBDB"/>
<path d="M224.381 68.9895L210.832 55.4413L203.258 63.016L216.806 76.5642L224.381 68.9895Z" fill="#FFC727"/>
<path d="M215.208 78.1696L201.66 64.6213L194.085 72.1961L207.634 85.7443L215.208 78.1696Z" fill="#FFC727"/>
<path d="M206.023 87.3496L192.474 73.8014L184.9 81.3761L198.448 94.9244L206.023 87.3496Z" fill="#FFC727"/>
<path d="M196.837 96.5296L183.289 82.9813L175.714 90.5561L189.262 104.104L196.837 96.5296Z" fill="#FFC727"/>
<path d="M187.665 105.71L174.116 92.1614L166.542 99.7361L180.09 113.284L187.665 105.71Z" fill="#FFC727"/>
<path opacity="0.3" d="M224.381 68.9895L210.832 55.4413L203.258 63.016L216.806 76.5642L224.381 68.9895Z" fill="black"/>
<path opacity="0.1" d="M215.208 78.1694L201.66 64.6212L194.085 72.1959L207.634 85.7442L215.208 78.1694Z" fill="black"/>
<path opacity="0.2" d="M196.837 96.5296L183.289 82.9813L175.714 90.5561L189.262 104.104L196.837 96.5296Z" fill="white"/>
<path opacity="0.4" d="M187.665 105.71L174.116 92.1614L166.542 99.7361L180.09 113.284L187.665 105.71Z" fill="white"/>
<path d="M169.078 112.9C168.197 113.781 166.759 113.781 165.878 112.9C164.996 112.018 164.996 110.581 165.878 109.699C166.759 108.818 168.197 108.818 169.078 109.699C169.959 110.581 169.959 112.018 169.078 112.9Z" fill="#263238"/>
<path d="M240.05 124.642V100.018H162.61V124.642H240.05Z" fill="#EBEBEB"/>
<path d="M237.609 121.917V102.757H226.897V121.917H237.609Z" fill="#FFC727"/>
<path d="M224.619 121.917V102.757H213.907V121.917H224.619Z" fill="#FFC727"/>
<path d="M211.642 121.917V102.757H200.93V121.917H211.642Z" fill="#FFC727"/>
<path d="M198.666 121.917V102.757H187.953V121.917H198.666Z" fill="#FFC727"/>
<path d="M185.675 121.917V102.757H174.963V121.917H185.675Z" fill="#FFC727"/>
<path opacity="0.3" d="M237.609 121.917V102.757H226.897V121.917H237.609Z" fill="black"/>
<path opacity="0.1" d="M224.619 121.917V102.757H213.907V121.917H224.619Z" fill="black"/>
<path opacity="0.2" d="M198.666 121.917V102.757H187.953V121.917H198.666Z" fill="white"/>
<path opacity="0.4" d="M185.675 121.917V102.757H174.963V121.917H185.675Z" fill="white"/>
<path d="M167.451 113.876C166.203 113.876 165.186 112.859 165.186 111.611C165.186 110.364 166.203 109.347 167.451 109.347C168.698 109.347 169.715 110.364 169.715 111.611C169.715 112.859 168.698 113.876 167.451 113.876Z" fill="#263238"/>
<path d="M74.6336 553.663C76.4642 554.26 78.1049 555.602 79.149 553.812C80.1931 552.022 83 552.551 84.0441 552.171C85.0882 551.792 86.5527 548.768 86.4713 547.832C86.4035 546.883 85.6171 545.92 85.6171 545.025C85.6171 544.13 85.5628 542.815 85.4544 541.581C85.3459 540.347 85.2238 538.598 83.3255 537.703C81.4271 536.808 80.3016 537.147 79.1083 537.025C77.9015 536.903 77.0201 534.977 74.6336 534.245C72.2335 533.499 69.1147 536.184 68.83 537.256C68.5452 538.327 68.3282 541.581 67.4333 542.788C66.5383 544.008 65.3044 543.602 65.0874 545.107C64.8705 546.612 64.9518 549.107 65.3993 549.554C65.8468 550.002 66.9994 549.337 67.5418 550.232C68.0842 551.127 68.5588 553.527 69.6436 554.083C70.7283 554.639 73.2505 553.202 74.6471 553.663H74.6336Z" fill="#EBEBEB"/>
<path d="M54.7684 480.467L52.4361 482.813L52.3547 481.958V481.945L53.8463 480.467H54.7684Z" fill="#37474F"/>
<path d="M63.6095 480.467L55.677 488.454L53.1142 490.989L53.0735 490.46V490.447L53.0464 490.149L55.2024 487.979L62.7552 480.467H63.6095Z" fill="#37474F"/>
<path d="M72.4641 480.467L60.111 492.901L53.8193 499.152L53.8057 499.03L53.7515 498.339L59.6364 492.413L71.664 480.467H72.4641Z" fill="#37474F"/>
<path d="M81.3185 480.467L64.5585 497.335L54.5107 507.315L54.4429 506.542L64.0704 496.861L80.5592 480.467H81.3185Z" fill="#37474F"/>
<path d="M90.1324 480.467C88.9391 481.701 87.7323 482.921 86.5255 484.142L68.9926 501.783L55.2022 515.492L55.1479 514.76L68.518 501.295L86.1458 483.775C87.2577 482.663 88.3832 481.565 89.5087 480.467H90.1324Z" fill="#37474F"/>
<path d="M98.9464 480.467C96.2887 483.179 93.6309 485.877 90.9597 488.576L73.4403 506.217L55.8938 523.641L55.8396 522.963L72.9521 505.742L90.5935 488.21C93.2106 485.62 95.8276 483.043 98.4583 480.467H98.9464Z" fill="#37474F"/>
<path d="M107.706 480.467C103.625 484.67 99.516 488.847 95.3938 493.023L77.8745 510.651L60.2331 528.184C59.0263 529.391 57.8059 530.584 56.5855 531.777L56.5312 531.208C57.6296 530.069 58.7551 528.943 59.867 527.818L77.3999 510.176L95.0277 492.657C99.1499 488.576 103.299 484.508 107.449 480.467H107.706Z" fill="#37474F"/>
<path d="M116.344 480.562V480.616C110.866 486.257 105.374 491.871 99.8414 497.457L82.3085 515.099L64.6807 532.618C62.2128 535.045 59.7449 537.473 57.277 539.9L57.2363 539.452C59.5822 537.052 61.9416 534.652 64.3146 532.252L81.8339 514.611L99.4753 497.091C105.062 491.559 110.689 486.054 116.344 480.562Z" fill="#37474F"/>
<path d="M115.544 490.121V490.148L115.516 490.447C111.774 494.284 108.031 498.108 104.275 501.905L86.756 519.533L69.1146 537.066C65.4128 540.727 61.6974 544.388 57.9549 548.022V547.981L57.9277 547.71C61.5211 544.022 65.128 540.347 68.7485 536.686L86.2678 519.058L103.909 501.525C107.774 497.715 111.652 493.905 115.544 490.121Z" fill="#37474F"/>
<path d="M114.73 499.695L114.676 500.291C112.696 502.312 110.716 504.319 108.723 506.339L91.1901 523.981L73.5622 541.5C68.7621 546.246 63.9347 550.978 59.0939 555.683H58.9312C63.65 550.802 68.4095 545.961 73.1826 541.134L90.7155 523.492L108.343 505.973C110.472 503.871 112.601 501.783 114.73 499.695Z" fill="#37474F"/>
<path d="M113.917 509.295L113.849 510.068C113.618 510.299 113.388 510.543 113.157 510.773L95.6378 528.415L77.9964 545.934C74.7014 549.202 71.3928 552.443 68.0842 555.683H67.6909C70.9995 552.307 74.3081 548.931 77.6303 545.568L95.1496 527.94L112.791 510.407C113.171 510.041 113.537 509.661 113.917 509.295Z" fill="#37474F"/>
<path d="M113.089 518.963L113.022 519.818L100.072 532.849L82.4306 550.382C80.6407 552.158 78.8508 553.921 77.0473 555.683H76.4778C78.3355 553.785 80.1932 551.9 82.0644 550.015L99.5973 532.374L113.089 518.963Z" fill="#37474F"/>
<path d="M112.276 528.618L112.195 529.554L104.506 537.296L86.8782 554.816C86.5799 555.1 86.2952 555.399 85.9969 555.683H85.2917C85.6985 555.277 86.1053 554.856 86.5121 554.449L104.031 536.808L112.276 528.618Z" fill="#37474F"/>
<path d="M111.449 538.286L111.367 539.303L108.953 541.73L94.9055 555.683H94.1326L108.465 541.256L111.449 538.286Z" fill="#37474F"/>
<path d="M110.635 547.981V548.022L110.554 548.998L103.828 555.683H102.987L110.635 547.981Z" fill="#37474F"/>
<path d="M116.235 481.945L116.154 482.826L113.822 480.467H114.744L116.235 481.945Z" fill="#37474F"/>
<path d="M115.544 490.149L115.462 490.989L112.913 488.454L104.967 480.467H105.835L113.388 487.979L115.544 490.149Z" fill="#37474F"/>
<path d="M114.839 498.339L114.784 499.03L114.771 499.166L108.466 492.901L96.1125 480.467H96.9261L108.954 492.413L114.839 498.339Z" fill="#37474F"/>
<path d="M114.147 506.556L114.079 507.329L104.031 497.335L87.2715 480.467H88.0173L104.506 496.861L114.147 506.556Z" fill="#37474F"/>
<path d="M113.456 514.773L113.388 515.492L99.5973 501.783L82.0644 484.142C80.8576 482.921 79.6508 481.701 78.4575 480.467H79.0677C80.1932 481.565 81.3187 482.663 82.4306 483.775L100.072 501.295L113.456 514.773Z" fill="#37474F"/>
<path d="M112.75 522.963L112.696 523.641L95.1497 506.217L77.6303 488.576C74.959 485.877 72.3013 483.179 69.6436 480.467H70.1317C72.7488 483.043 75.3794 485.62 77.9964 488.21L95.6378 505.742L112.75 522.963Z" fill="#37474F"/>
<path d="M112.059 531.208L112.005 531.791C110.784 530.584 109.564 529.391 108.344 528.184L90.7157 510.651L73.1828 493.023C69.0742 488.847 64.9656 484.67 60.884 480.467H61.1417C65.291 484.508 69.4403 488.576 73.5625 492.657L91.1903 510.176L108.723 527.818C109.835 528.943 110.947 530.069 112.059 531.208Z" fill="#37474F"/>
<path d="M111.354 539.452L111.327 539.9C108.845 537.5 106.377 535.059 103.909 532.618L86.268 515.099L68.7487 497.457C63.2163 491.871 57.7245 486.257 52.2463 480.616V480.562C57.9008 486.054 63.5281 491.559 69.1148 497.091L86.7562 514.611L104.276 532.252C106.649 534.652 109.008 537.052 111.354 539.452Z" fill="#37474F"/>
<path d="M110.662 547.71L110.635 548.022C106.893 544.388 103.177 540.727 99.4754 537.066L81.834 519.533L64.3146 501.905C60.5586 498.108 56.8025 494.284 53.0735 490.46L53.0464 490.121C56.9381 493.905 60.8162 497.715 64.6808 501.525L82.3086 519.058L99.8415 536.686C103.462 540.347 107.069 544.022 110.662 547.71Z" fill="#37474F"/>
<path d="M109.659 555.683H109.496C104.655 550.978 99.8278 546.246 95.0276 541.5L77.3998 523.981L59.8669 506.339C57.8736 504.319 55.8938 502.312 53.9141 500.291L53.8599 499.695C55.9888 501.783 58.1177 503.871 60.233 505.973L77.8744 523.492L95.3937 541.134C100.167 545.961 104.94 550.802 109.659 555.683Z" fill="#37474F"/>
<path d="M100.899 555.683H100.506C97.1838 552.442 93.8887 549.202 90.5937 545.934L72.9523 528.414L55.4329 510.773C55.2024 510.543 54.9719 510.298 54.7414 510.068L54.6736 509.309C55.0533 509.661 55.4194 510.041 55.7991 510.407L73.4404 527.94L90.9598 545.568C94.2819 548.931 97.5906 552.307 100.899 555.683Z" fill="#37474F"/>
<path d="M92.0988 555.683H91.5429C89.7394 553.921 87.9359 552.158 86.146 550.382L68.5182 532.849L55.5685 519.831L55.5007 518.963L68.9928 532.374L86.5257 550.015C88.3834 551.9 90.2547 553.785 92.0988 555.683Z" fill="#37474F"/>
<path d="M83.2983 555.683H82.5932C82.2949 555.399 82.0102 555.1 81.7118 554.816L64.0705 537.296L56.3956 529.567L56.3142 528.618L64.5586 536.808L82.078 554.449C82.4847 554.856 82.8915 555.277 83.2983 555.683Z" fill="#37474F"/>
<path d="M74.4574 555.683H73.6845L59.6365 541.73L57.2228 539.303V539.289L57.1279 538.3L60.1111 541.256L74.4574 555.683Z" fill="#37474F"/>
<path d="M65.6028 555.683H64.7621L58.0364 548.998L57.9551 547.981L65.6028 555.683Z" fill="#37474F"/>
<path d="M52.9146 480.551L51.5642 480.674L58.4091 555.742L59.7595 555.619L52.9146 480.551Z" fill="#37474F"/>
<path d="M115.897 480.591L108.973 555.652L110.324 555.776L117.247 480.716L115.897 480.591Z" fill="#37474F"/>
<path d="M120.208 472.25H48.2869V484.426H120.208V472.25Z" fill="#263238"/>
<path d="M112.791 549.161H55.7041V561.338H112.791V549.161Z" fill="#263238"/>
<path d="M107.774 544.578C109.93 544.266 112.71 544.266 112.872 545.5C113.022 546.734 112.045 547.398 112.357 548.022C112.669 548.646 114.418 549.771 115.245 550.598C116.073 551.426 116.683 552.863 116.683 553.175C116.683 553.487 117.198 554.002 116.683 554.612C116.168 555.236 115.883 556.158 115.462 556.619C115.042 557.08 114.852 557.595 115.462 558.422C116.073 559.25 115.557 561.609 114.635 562.436C113.713 563.263 111.028 561.311 110.215 561.514C109.388 561.718 109.293 562.124 108.574 562.64C107.855 563.155 106.106 564.389 104.248 564.389C102.391 564.389 101.469 562.748 100.343 562.016C99.2177 561.297 98.1872 561.189 97.1566 560.782C96.1261 560.375 95.0006 559.439 94.7836 559.033C94.5667 558.626 93.8616 558.517 94.1599 557.392C94.4718 556.253 94.987 555.955 94.987 555.019C94.987 554.083 94.987 553.934 94.987 552.876C94.987 551.819 94.1599 549.975 94.8785 549.148C95.5972 548.32 96.1125 547.086 97.2515 547.086C98.3906 547.086 101.984 547.71 101.984 547.71C101.984 547.71 102.391 547.303 103.014 546.368C103.638 545.446 104.709 544.822 105.509 544.93C106.31 545.039 107.801 544.564 107.801 544.564L107.774 544.578Z" fill="#F5F5F5"/>
<path d="M94.96 555.032C96.438 555.71 97.9296 556.321 99.4347 556.917C100.926 557.541 102.418 558.138 103.937 558.694C105.442 559.222 106.96 559.819 108.466 560.158C108.818 560.239 109.239 560.294 109.401 560.267L110.31 559.806C111.001 559.439 111.679 559.046 112.276 558.585C112.873 558.138 113.442 557.636 113.767 557.053C113.862 556.917 113.917 556.755 113.984 556.619L114.052 556.388L114.079 556.28C114.079 556.28 114.079 556.294 114.079 556.28C114.093 556.212 113.903 555.846 113.686 555.588C112.75 554.449 111.408 553.487 110.161 552.51C108.872 551.548 107.544 550.653 106.174 549.812C105.496 549.378 104.818 548.944 104.113 548.551C103.76 548.347 103.408 548.158 103.042 547.981C102.865 547.886 102.676 547.805 102.499 547.737C102.323 547.697 102.092 547.547 101.957 547.697C102.079 547.507 102.35 547.615 102.54 547.642C102.743 547.683 102.933 547.737 103.137 547.805C103.53 547.927 103.909 548.076 104.289 548.239C105.049 548.551 105.781 548.89 106.513 549.242C107.964 549.988 109.374 550.788 110.771 551.67C112.154 552.551 113.496 553.487 114.69 554.788C114.961 555.155 115.3 555.466 115.408 556.212C115.408 556.307 115.408 556.416 115.395 556.524L115.34 556.714L115.232 557.066C115.137 557.283 115.056 557.514 114.92 557.717C114.445 558.544 113.767 559.155 113.09 559.67C112.398 560.185 111.652 560.592 110.92 560.972L110.364 561.243L110.093 561.378L109.944 561.446C109.849 561.487 109.74 561.514 109.645 561.541C109.008 561.609 108.615 561.487 108.181 561.392C106.54 560.931 105.035 560.321 103.557 559.643C100.601 558.273 97.6855 556.836 94.9735 555.019L94.96 555.032Z" fill="#C7C7C7"/>
<path d="M101.103 557.826C101.889 556.551 102.798 555.385 103.774 554.273C104.248 553.704 104.777 553.175 105.306 552.646C105.577 552.388 105.862 552.131 106.16 551.887C106.486 551.642 106.73 551.398 107.245 551.168C107.313 551.141 107.367 551.114 107.449 551.087C107.584 551.059 107.733 551.059 107.882 551.087C108.167 551.127 108.289 551.276 108.452 551.385C108.615 551.561 108.764 551.737 108.872 551.9C109.103 552.226 109.306 552.551 109.496 552.876C109.849 553.541 110.201 554.192 110.5 554.883C111.083 556.239 111.666 557.622 111.896 559.114L109.564 555.371C109.171 554.761 108.805 554.124 108.398 553.541C108.208 553.243 108.005 552.944 107.815 552.687C107.706 552.537 107.625 552.442 107.53 552.361C107.53 552.388 107.53 552.361 107.625 552.402C107.679 552.429 107.733 552.415 107.788 552.402C107.788 552.402 107.76 552.429 107.733 552.429C107.571 552.483 107.245 552.714 106.988 552.917L106.174 553.595L104.52 555.019C103.421 555.982 102.309 556.944 101.103 557.826Z" fill="#C7C7C7"/>
<path d="M73.7251 566.748C72.559 567.033 71.0403 567.169 70.8911 566.504C70.7419 565.84 71.2437 565.419 71.0403 565.094C70.8369 564.768 69.8199 564.24 69.3317 563.833C68.8436 563.426 68.4232 562.667 68.4097 562.49C68.3961 562.328 68.0842 562.07 68.3419 561.704C68.5859 561.338 68.708 560.809 68.9114 560.538C69.1148 560.267 69.1961 559.968 68.8164 559.548C68.4368 559.128 68.5995 557.799 69.0605 557.31C69.5216 556.809 71.0945 557.744 71.5284 557.595C71.9623 557.446 72.003 557.216 72.3691 556.89C72.7352 556.565 73.6302 555.805 74.6472 555.71C75.6642 555.616 76.2608 556.47 76.9117 556.809C77.5626 557.148 78.1321 557.148 78.7287 557.324C79.3118 557.5 79.9762 557.948 80.1118 558.165C80.2474 558.382 80.6407 558.395 80.5322 559.033C80.4237 559.67 80.1525 559.86 80.2067 560.375C80.261 560.89 80.261 560.972 80.3152 561.541C80.3695 562.111 80.9254 563.087 80.5729 563.575C80.2203 564.063 80.0033 564.768 79.3796 564.823C78.7558 564.877 76.749 564.728 76.749 564.728C76.749 564.728 76.5456 564.972 76.2473 565.514C75.9625 566.057 75.393 566.45 74.9591 566.436C74.5116 566.423 73.7251 566.748 73.7251 566.748Z" fill="#F5F5F5"/>
<path d="M69.2504 560.131C69.8741 559.466 70.5386 558.87 71.1894 558.233L71.6776 557.785L71.9352 557.555C72.1522 557.378 72.3013 557.365 72.4369 557.31C72.9522 557.175 73.4133 557.161 73.8743 557.134C74.8099 557.093 75.732 557.148 76.6812 557.297C77.1693 557.392 77.5897 557.446 78.1863 557.758C78.5796 557.988 78.7694 558.395 78.8508 558.68C78.9457 558.992 78.9592 559.277 78.9592 559.534C78.9321 560.592 78.6474 561.487 78.3219 562.382C78.1456 562.829 77.9422 563.25 77.7253 563.684C77.6033 563.901 77.4812 564.104 77.3321 564.321C77.21 564.511 76.8303 564.85 76.5727 564.904C75.5015 565.257 74.6201 565.148 73.6845 565.094C72.7759 564.985 71.8674 564.863 70.986 564.619C71.8945 564.551 72.8031 564.538 73.6845 564.429C74.5523 564.348 75.5015 564.24 76.1252 563.941C76.3015 563.846 76.2473 563.846 76.3829 563.67C76.4778 563.507 76.5727 563.331 76.6541 563.141C76.8303 562.762 76.9795 562.355 77.1015 561.948C77.3592 561.148 77.5897 560.28 77.5897 559.534C77.6168 559.155 77.888 558.856 77.9016 558.883C77.7117 558.748 76.8168 558.639 76.4235 558.544C75.5964 558.355 74.715 558.26 73.8472 558.192C73.4133 558.165 72.9793 558.151 72.5997 558.192C72.5183 558.192 72.4369 558.233 72.4641 558.192L72.1793 558.382L71.5962 558.748C70.7962 559.209 70.0368 559.711 69.2368 560.144L69.2504 560.131Z" fill="#C7C7C7"/>
<path d="M72.0572 558.409C72.1114 559.277 72.0843 560.104 72.1385 560.863C72.1792 561.216 72.247 561.65 72.3419 561.677C72.3419 561.69 72.3419 561.65 72.3148 561.65C72.3419 561.636 72.3148 561.65 72.3962 561.65C72.5182 561.65 72.6945 561.623 72.8708 561.596C73.603 561.473 74.3895 561.257 75.1895 561.094C75.9895 560.918 76.8031 560.755 77.671 560.687C77.0201 561.27 76.3014 561.718 75.5421 562.084C74.7827 562.463 73.9962 562.762 73.0877 562.924C72.8437 562.952 72.6131 562.979 72.3148 562.965C72.1792 562.965 71.9623 562.911 71.786 562.843C71.569 562.735 71.3792 562.572 71.2978 562.409C70.9317 561.731 71.0402 561.27 71.0944 560.823C71.2436 559.928 71.5826 559.141 72.0707 558.409H72.0572Z" fill="#C7C7C7"/>
<path d="M63.9077 549.093C63.2975 547.263 63.406 545.147 61.3585 545.364C59.2974 545.581 58.0634 543.018 57.1413 542.395C56.2193 541.771 52.9242 542.395 52.2056 543.018C51.4869 543.642 51.175 544.835 50.4563 545.364C49.7377 545.893 48.7071 546.72 47.785 547.547C46.863 548.374 45.5205 549.5 45.9273 551.561C46.3341 553.622 47.2698 554.327 47.88 555.358C48.5037 556.402 47.4732 558.246 48.2868 560.619C49.1003 562.992 53.1276 563.914 54.1582 563.507C55.1887 563.101 57.9414 561.351 59.4465 561.351C60.9517 561.351 61.372 562.585 62.7009 561.867C64.0433 561.148 65.9959 559.602 66.1044 558.978C66.2129 558.355 64.9654 557.812 65.3857 556.849C65.7925 555.887 67.4468 554.083 67.2434 552.876C67.04 551.67 64.3959 550.503 63.9348 549.093H63.9077Z" fill="#F5F5F5"/>
<path d="M60.0973 545.147C57.5752 546.029 55.0124 546.896 52.6665 548.103C52.3953 548.266 52.097 548.429 51.9207 548.591C51.8258 548.619 51.7716 549.066 51.7038 549.351C51.5953 549.988 51.5139 550.653 51.4461 551.317C51.3105 552.632 51.2156 553.961 51.2021 555.276C51.2021 555.927 51.2156 556.592 51.3105 557.188C51.3377 557.514 51.4597 557.731 51.4461 557.704C51.5546 557.771 51.88 557.88 52.1784 557.921C53.3988 558.138 54.7547 558.151 56.0565 558.11C56.7074 558.083 57.3718 558.043 57.982 557.961C58.5379 557.866 59.2973 557.69 59.921 557.568C61.2364 557.31 62.5517 557.053 63.8127 556.727C64.1246 556.646 64.45 556.565 64.6941 556.47C64.7755 556.443 64.8162 556.415 64.8433 556.402C64.8433 556.402 64.9111 556.375 64.8704 556.402C64.8297 556.429 64.789 556.483 64.7755 556.537C64.6941 556.619 64.6806 556.944 64.7212 557.026C64.7348 557.107 64.8162 557.229 64.8568 557.256C64.884 557.297 64.9518 557.338 64.9382 557.324C64.9653 557.324 64.9382 557.324 64.9246 557.324L64.7484 557.256C64.1788 557.066 63.5144 556.917 62.8771 556.754L58.9583 555.887C57.643 555.602 56.3412 555.304 55.0259 554.978C54.3751 554.815 53.7106 554.639 53.0462 554.409C52.6936 554.259 52.4224 554.232 51.9343 553.839C51.9072 553.812 51.8529 553.744 51.8258 553.703C51.7851 553.649 51.7309 553.5 51.7309 553.459C51.7309 553.378 51.7309 553.297 51.7309 553.215C51.7309 553.026 51.7716 552.958 51.7987 552.836C51.8665 552.619 51.9478 552.456 52.0292 552.28C52.7479 551.019 53.6293 550.015 54.5785 549.012C54.8225 548.768 55.0666 548.524 55.3243 548.293C55.4599 548.171 55.5819 548.063 55.7311 547.954C55.7988 547.9 55.8667 547.846 55.9616 547.791C56.07 547.737 56.0565 547.696 56.3006 547.615C56.6938 547.547 56.8972 547.71 57.0599 547.805C57.2362 547.913 57.3718 548.035 57.5074 548.158C57.765 548.402 58.0091 548.659 58.2261 548.917C59.9075 551.059 61.2906 553.351 62.6059 555.71C61.0465 553.541 59.5278 551.303 57.7379 549.364C57.5074 549.134 57.2904 548.89 57.0464 548.7C56.8565 548.496 56.4497 548.32 56.5175 548.361C56.5853 548.32 56.4633 548.402 56.4226 548.429C56.3684 548.469 56.3006 548.524 56.2463 548.564C56.1243 548.659 56.0158 548.768 55.8938 548.89C55.6633 549.12 55.4463 549.351 55.2293 549.595C54.3751 550.571 53.5344 551.656 52.9784 552.754C52.9242 552.876 52.8564 553.026 52.8292 553.134C52.8292 553.175 52.7886 553.27 52.8021 553.242C52.8021 553.242 52.7614 553.134 52.7479 553.12C52.7479 553.107 52.7208 553.08 52.7208 553.08C52.7614 553.107 53.1547 553.283 53.4259 553.351C54.0361 553.541 54.6734 553.703 55.3243 553.866C56.6124 554.178 57.9278 554.436 59.2295 554.707L64.2602 555.67C64.9246 555.819 64.4907 555.805 65.1958 556.022C65.2908 556.049 65.3857 556.09 65.4806 556.131C65.5484 556.158 65.5891 556.185 65.684 556.239C65.7111 556.239 65.806 556.321 65.8603 556.388C65.901 556.429 65.9959 556.565 66.023 556.673C66.0772 556.768 66.0501 557.121 65.9688 557.215C65.901 557.324 65.7925 557.432 65.6976 557.514C65.6026 557.595 65.5755 557.582 65.5077 557.622C65.3857 557.69 65.2908 557.731 65.2094 557.758C64.8433 557.907 64.5178 557.988 64.1653 558.083C62.8229 558.409 61.5076 558.639 60.1787 558.883C59.4871 559.005 58.9447 559.127 58.1718 559.249C57.4667 559.344 56.7887 559.372 56.0972 559.385C54.7276 559.399 53.3716 559.385 51.9614 559.114C51.5953 559.033 51.2563 558.978 50.7953 558.694C50.5783 558.571 50.3342 558.138 50.3207 557.988C50.2529 557.771 50.2257 557.582 50.1986 557.392C50.1173 556.66 50.1308 555.968 50.1715 555.29C50.2393 553.92 50.402 552.592 50.6054 551.249C50.7139 550.585 50.8224 549.92 50.9715 549.242C51.0936 548.903 51.0122 548.591 51.419 548.13C51.7444 547.846 52.0563 547.71 52.3682 547.547C53.6293 546.991 54.9039 546.598 56.1921 546.205C57.4803 545.812 58.7685 545.459 60.0838 545.188L60.0973 545.147Z" fill="#C7C7C7"/>
</g>
<defs>
<clipPath id="clip0_8_6413">
<rect width="593" height="582.667" fill="white"/>
</clipPath>
</defs>
</svg>
